<mxfile host="app.diagrams.net" modified="2023-08-11T22:07:05.542Z" agent="Mozilla/5.0 (X11; Linux x86_64; rv:102.0) Gecko/20100101 Firefox/102.0" etag="wLheOjWACvRM8DSD1OwT" version="21.6.8" type="device" pages="3">
  <diagram id="EUp0dcuQEHcNpMvHSYha" name="UpdateProcess">
    <mxGraphModel dx="1943" dy="227" grid="1" gridSize="10" guides="1" tooltips="1" connect="1" arrows="1" fold="1" page="1" pageScale="1" pageWidth="850" pageHeight="1100" math="0" shadow="0">
      <root>
        <mxCell id="0" />
        <mxCell id="1" parent="0" />
        <mxCell id="Hpg2Vx3gKNEG4ZOuF6sN-53" value="" style="shape=flexArrow;endArrow=classic;html=1;rounded=0;fontSize=24;fillColor=#d5e8d4;strokeColor=#82b366;" parent="1" edge="1">
          <mxGeometry width="50" height="50" relative="1" as="geometry">
            <mxPoint x="3318.5" y="2221" as="sourcePoint" />
            <mxPoint x="3315.5003086572483" y="1920.9995290348306" as="targetPoint" />
          </mxGeometry>
        </mxCell>
        <mxCell id="Hpg2Vx3gKNEG4ZOuF6sN-54" value="Validate" style="edgeLabel;html=1;align=center;verticalAlign=middle;resizable=0;points=[];fontSize=24;" parent="Hpg2Vx3gKNEG4ZOuF6sN-53" vertex="1" connectable="0">
          <mxGeometry x="0.1072" y="1" relative="1" as="geometry">
            <mxPoint x="60" y="-8" as="offset" />
          </mxGeometry>
        </mxCell>
        <mxCell id="Hpg2Vx3gKNEG4ZOuF6sN-1" value="Reset" style="aspect=fixed;perimeter=ellipsePerimeter;html=1;align=center;shadow=0;dashed=0;fontColor=#000000;labelBackgroundColor=#ffffff;fontSize=24;spacingTop=3;image;image=img/lib/ibm/management/push_notifications.svg;fillColor=#00BD00;imageBackground=default;" parent="1" vertex="1">
          <mxGeometry x="2380.19" y="1891" width="146" height="146" as="geometry" />
        </mxCell>
        <mxCell id="Hpg2Vx3gKNEG4ZOuF6sN-2" style="rounded=0;orthogonalLoop=1;jettySize=auto;html=1;exitX=1;exitY=0.5;exitDx=0;exitDy=0;exitPerimeter=0;entryX=0.5;entryY=1;entryDx=0;entryDy=0;entryPerimeter=0;fontSize=13;startArrow=blockThin;startFill=1;endArrow=blockThin;endFill=1;strokeColor=#828282;fontColor=#000000;strokeWidth=1;endSize=14;startSize=14;dashed=1;edgeStyle=orthogonalEdgeStyle;" parent="1" source="Hpg2Vx3gKNEG4ZOuF6sN-5" target="Hpg2Vx3gKNEG4ZOuF6sN-41" edge="1">
          <mxGeometry relative="1" as="geometry" />
        </mxCell>
        <object placeholders="1" c4Name="Update" c4Type="Component" c4Technology="C Library" c4Description="Provides update routines to manage transfer, storage, validation, and installation of the image." label="&lt;font size=&quot;1&quot; style=&quot;&quot;&gt;&lt;b style=&quot;font-size: 16px;&quot;&gt;%c4Name%&lt;/b&gt;&lt;/font&gt;&lt;div style=&quot;font-size: 12px;&quot;&gt;[%c4Type%: %c4Technology%]&lt;/div&gt;&lt;br style=&quot;font-size: 12px;&quot;&gt;&lt;div style=&quot;font-size: 12px;&quot;&gt;&lt;font style=&quot;font-size: 12px;&quot;&gt;&lt;font style=&quot;font-size: 12px;&quot;&gt;%c4Description%&lt;/font&gt;&lt;/font&gt;&lt;/div&gt;" id="Hpg2Vx3gKNEG4ZOuF6sN-3">
          <mxCell style="rounded=1;whiteSpace=wrap;html=1;fontSize=12;labelBackgroundColor=none;fillColor=#CCE5FF;fontColor=#000000;align=center;arcSize=6;strokeColor=#2086C9;metaEdit=0;resizable=1;points=[[0.25,0,0],[0.5,0,0],[0.75,0,0],[1,0.25,0],[1,0.5,0],[1,0.75,0],[0.75,1,0],[0.5,1,0],[0.25,1,0],[0,0.75,0],[0,0.5,0],[0,0.25,0]];strokeWidth=1;fontStyle=0;fixedWidth=1;" parent="1" vertex="1">
            <mxGeometry x="1958" y="1545.83" width="210" height="111.17" as="geometry" />
          </mxCell>
        </object>
        <mxCell id="Hpg2Vx3gKNEG4ZOuF6sN-4" style="edgeStyle=orthogonalEdgeStyle;rounded=0;orthogonalLoop=1;jettySize=auto;html=1;startArrow=none;startFill=0;endArrow=blockThin;fontSize=13;strokeColor=#828282;fontColor=#000000;strokeWidth=1;endFill=1;endSize=14;startSize=14;dashed=1;entryX=0.5;entryY=0;entryDx=0;entryDy=0;entryPerimeter=0;exitX=0.5;exitY=1;exitDx=0;exitDy=0;exitPerimeter=0;" parent="1" source="Hpg2Vx3gKNEG4ZOuF6sN-5" target="Hpg2Vx3gKNEG4ZOuF6sN-19" edge="1">
          <mxGeometry relative="1" as="geometry">
            <Array as="points">
              <mxPoint x="2060" y="1849" />
              <mxPoint x="2060" y="1880" />
              <mxPoint x="1755" y="1880" />
            </Array>
          </mxGeometry>
        </mxCell>
        <object placeholders="1" c4Name="Storage Memory" c4Type="Component" c4Technology="C Library" c4Description="Simple file system with standard POSIX API (open(), close(), read(), write(), lseek(), etc.)" label="&lt;font size=&quot;1&quot; style=&quot;&quot;&gt;&lt;b style=&quot;font-size: 16px;&quot;&gt;%c4Name%&lt;/b&gt;&lt;/font&gt;&lt;div style=&quot;font-size: 12px;&quot;&gt;[%c4Type%: %c4Technology%]&lt;/div&gt;&lt;br style=&quot;font-size: 12px;&quot;&gt;&lt;div style=&quot;font-size: 12px;&quot;&gt;&lt;font style=&quot;font-size: 12px;&quot;&gt;&lt;font style=&quot;font-size: 12px;&quot;&gt;%c4Description%&lt;/font&gt;&lt;/font&gt;&lt;/div&gt;" id="Hpg2Vx3gKNEG4ZOuF6sN-5">
          <mxCell style="rounded=1;whiteSpace=wrap;html=1;fontSize=12;labelBackgroundColor=none;fillColor=#CCE5FF;fontColor=#000000;align=center;arcSize=6;strokeColor=#2086C9;metaEdit=0;resizable=1;points=[[0.25,0,0],[0.5,0,0],[0.75,0,0],[1,0.25,0],[1,0.5,0],[1,0.75,0],[0.75,1,0],[0.5,1,0],[0.25,1,0],[0,0.75,0],[0,0.5,0],[0,0.25,0]];strokeWidth=1;fontStyle=0;spacingTop=2;spacingRight=2;spacingBottom=2;spacingLeft=2;fixedWidth=1;" parent="1" vertex="1">
            <mxGeometry x="1953" y="1729" width="220" height="120" as="geometry" />
          </mxCell>
        </object>
        <object placeholders="1" c4Name="CANopen Stack" c4Type="Component" c4Technology="RTOS Task\C Library" c4Description="Protocol stack" label="&lt;font size=&quot;1&quot; style=&quot;&quot;&gt;&lt;b style=&quot;font-size: 16px;&quot;&gt;%c4Name%&lt;/b&gt;&lt;/font&gt;&lt;div style=&quot;font-size: 12px;&quot;&gt;[%c4Type%: %c4Technology%]&lt;/div&gt;&lt;br style=&quot;font-size: 12px;&quot;&gt;&lt;div style=&quot;font-size: 12px;&quot;&gt;&lt;font style=&quot;font-size: 12px;&quot;&gt;&lt;font style=&quot;font-size: 12px;&quot;&gt;%c4Description%&lt;/font&gt;&lt;/font&gt;&lt;/div&gt;" id="Hpg2Vx3gKNEG4ZOuF6sN-6">
          <mxCell style="rounded=1;whiteSpace=wrap;html=1;fontSize=12;labelBackgroundColor=none;fillColor=#CCE5FF;fontColor=#000000;align=center;arcSize=6;strokeColor=#2086C9;metaEdit=0;resizable=1;points=[[0.25,0,0],[0.5,0,0],[0.75,0,0],[1,0.25,0],[1,0.5,0],[1,0.75,0],[0.75,1,0],[0.5,1,0],[0.25,1,0],[0,0.75,0],[0,0.5,0],[0,0.25,0]];strokeWidth=1;fontStyle=0;fixedWidth=1;" parent="1" vertex="1">
            <mxGeometry x="1958" y="1399" width="210" height="89" as="geometry" />
          </mxCell>
        </object>
        <object placeholders="1" c4Type="Relationship" c4Description="Uses" label="&lt;div style=&quot;text-align: left; font-size: 13px;&quot;&gt;&lt;div style=&quot;text-align: center; font-size: 13px;&quot;&gt;&lt;b style=&quot;font-size: 13px;&quot;&gt;%c4Description%&lt;/b&gt;&lt;/div&gt;&lt;/div&gt;" id="Hpg2Vx3gKNEG4ZOuF6sN-7">
          <mxCell style="endArrow=blockThin;html=1;fontSize=13;fontColor=#000000;strokeWidth=1;endFill=1;strokeColor=#828282;elbow=vertical;metaEdit=1;endSize=14;startSize=14;jumpStyle=arc;jumpSize=16;rounded=0;dashed=1;exitX=0.5;exitY=1;exitDx=0;exitDy=0;exitPerimeter=0;startArrow=none;startFill=0;entryX=0.5;entryY=0;entryDx=0;entryDy=0;entryPerimeter=0;" parent="1" source="Hpg2Vx3gKNEG4ZOuF6sN-6" target="Hpg2Vx3gKNEG4ZOuF6sN-3" edge="1">
            <mxGeometry x="-0.4782" width="240" relative="1" as="geometry">
              <mxPoint x="2178" y="1461.5" as="sourcePoint" />
              <mxPoint x="2068" y="1527" as="targetPoint" />
              <Array as="points">
                <mxPoint x="2063" y="1519" />
              </Array>
              <mxPoint as="offset" />
            </mxGeometry>
          </mxCell>
        </object>
        <mxCell id="Hpg2Vx3gKNEG4ZOuF6sN-10" value="File Map" style="strokeColor=#dddddd;shadow=1;strokeWidth=1;rounded=1;absoluteArcSize=1;arcSize=2;labelPosition=center;verticalLabelPosition=middle;align=center;verticalAlign=bottom;spacingLeft=0;fontColor=#000000;fontSize=13;whiteSpace=wrap;spacingBottom=2;" parent="1" vertex="1">
          <mxGeometry x="1823" y="1744" width="70" height="90" as="geometry" />
        </mxCell>
        <mxCell id="Hpg2Vx3gKNEG4ZOuF6sN-11" value="" style="sketch=0;dashed=0;connectable=0;html=1;fillColor=#757575;strokeColor=none;shape=mxgraph.gcp2.list;part=1;fontSize=13;fontColor=#000000;" parent="Hpg2Vx3gKNEG4ZOuF6sN-10" vertex="1">
          <mxGeometry x="0.5" width="44.5" height="50" relative="1" as="geometry">
            <mxPoint x="-22.25" y="10" as="offset" />
          </mxGeometry>
        </mxCell>
        <object placeholders="1" c4Name="Flight Computer" c4Type="Host" c4Description="Provides command and control. Collects telemetry" label="&lt;font style=&quot;font-size: 16px&quot;&gt;&lt;b&gt;%c4Name%&lt;/b&gt;&lt;/font&gt;&lt;div&gt;[%c4Type%]&lt;/div&gt;&lt;br&gt;&lt;div&gt;&lt;font style=&quot;font-size: 11px&quot;&gt;&lt;font&gt;%c4Description%&lt;/font&gt;&lt;/font&gt;&lt;/div&gt;" id="Hpg2Vx3gKNEG4ZOuF6sN-12">
          <mxCell style="rounded=1;whiteSpace=wrap;html=1;labelBackgroundColor=none;fillColor=#8C8496;fontColor=#FFFFFF;align=center;arcSize=10;strokeColor=#736782;metaEdit=1;resizable=1;points=[[0.25,0,0],[0.5,0,0],[0.75,0,0],[1,0.25,0],[1,0.5,0],[1,0.75,0],[0.75,1,0],[0.5,1,0],[0.25,1,0],[0,0.75,0],[0,0.5,0],[0,0.25,0]];" parent="1" vertex="1">
            <mxGeometry x="1958" y="1130" width="210" height="90" as="geometry" />
          </mxCell>
        </object>
        <object placeholders="1" c4Type="Relationship" c4Technology="CANopen" c4Description="C&amp;C - Telemetry " label="&lt;div style=&quot;text-align: left&quot;&gt;&lt;div style=&quot;text-align: center&quot;&gt;&lt;b&gt;%c4Description%&lt;/b&gt;&lt;/div&gt;&lt;div style=&quot;text-align: center&quot;&gt;[%c4Technology%]&lt;/div&gt;&lt;/div&gt;" id="Hpg2Vx3gKNEG4ZOuF6sN-13">
          <mxCell style="endArrow=blockThin;html=1;fontSize=10;fontColor=#000000;strokeWidth=1;endFill=1;strokeColor=#828282;elbow=vertical;metaEdit=1;endSize=14;startSize=14;jumpStyle=arc;jumpSize=16;rounded=0;dashed=1;entryX=0.5;entryY=1;entryDx=0;entryDy=0;entryPerimeter=0;startArrow=blockThin;startFill=1;" parent="1" source="Hpg2Vx3gKNEG4ZOuF6sN-6" target="Hpg2Vx3gKNEG4ZOuF6sN-12" edge="1">
            <mxGeometry x="0.5084" width="240" relative="1" as="geometry">
              <mxPoint x="2028" y="1240" as="sourcePoint" />
              <mxPoint x="2233" y="1109" as="targetPoint" />
              <mxPoint as="offset" />
            </mxGeometry>
          </mxCell>
        </object>
        <mxCell id="Hpg2Vx3gKNEG4ZOuF6sN-14" value="" style="group;fontColor=#000000;fillColor=none;fontSize=13;" parent="1" vertex="1" connectable="0">
          <mxGeometry x="1793" y="1418" width="100" height="70" as="geometry" />
        </mxCell>
        <mxCell id="Hpg2Vx3gKNEG4ZOuF6sN-15" value="" style="sketch=0;aspect=fixed;pointerEvents=1;shadow=0;dashed=0;html=1;strokeColor=#2086C9;labelPosition=center;verticalLabelPosition=bottom;verticalAlign=middle;align=center;fillColor=#63BEF2;shape=mxgraph.azure.code_file;fontSize=13;fontColor=#000000;rounded=1;labelBackgroundColor=none;arcSize=6;strokeWidth=1;fontStyle=0;" parent="Hpg2Vx3gKNEG4ZOuF6sN-14" vertex="1">
          <mxGeometry x="20" width="47" height="50" as="geometry" />
        </mxCell>
        <mxCell id="Hpg2Vx3gKNEG4ZOuF6sN-16" value="Object Dictionary" style="text;html=1;align=center;verticalAlign=middle;resizable=0;points=[];autosize=1;strokeColor=none;fillColor=none;strokeWidth=0;spacingTop=-3;spacingBottom=-3;spacingLeft=-3;spacingRight=-3;labelBackgroundColor=none;rounded=1;fontSize=13;fontColor=#000000;" parent="Hpg2Vx3gKNEG4ZOuF6sN-14" vertex="1">
          <mxGeometry x="-10" y="50" width="110" height="20" as="geometry" />
        </mxCell>
        <mxCell id="Hpg2Vx3gKNEG4ZOuF6sN-17" value="" style="edgeStyle=orthogonalEdgeStyle;rounded=0;orthogonalLoop=1;jettySize=auto;html=1;fontSize=13;endArrow=blockThin;strokeColor=#828282;fontColor=#000000;strokeWidth=1;endFill=1;endSize=14;startSize=14;" parent="1" source="Hpg2Vx3gKNEG4ZOuF6sN-15" target="Hpg2Vx3gKNEG4ZOuF6sN-6" edge="1">
          <mxGeometry relative="1" as="geometry" />
        </mxCell>
        <object placeholders="1" c4Type="Relationship" c4Description="Uses" label="&lt;div style=&quot;text-align: left; font-size: 13px;&quot;&gt;&lt;div style=&quot;text-align: center; font-size: 13px;&quot;&gt;&lt;b style=&quot;font-size: 13px;&quot;&gt;%c4Description%&lt;/b&gt;&lt;/div&gt;&lt;/div&gt;" id="Hpg2Vx3gKNEG4ZOuF6sN-18">
          <mxCell style="endArrow=blockThin;html=1;fontSize=13;fontColor=#000000;strokeWidth=1;endFill=1;strokeColor=#828282;elbow=vertical;metaEdit=1;endSize=14;startSize=14;jumpStyle=arc;jumpSize=16;rounded=0;dashed=1;exitX=0.5;exitY=1;exitDx=0;exitDy=0;exitPerimeter=0;startArrow=none;startFill=0;entryX=0.5;entryY=0;entryDx=0;entryDy=0;entryPerimeter=0;" parent="1" source="Hpg2Vx3gKNEG4ZOuF6sN-3" target="Hpg2Vx3gKNEG4ZOuF6sN-5" edge="1">
            <mxGeometry width="240" relative="1" as="geometry">
              <mxPoint x="1998" y="1649" as="sourcePoint" />
              <mxPoint x="2098" y="1649.5" as="targetPoint" />
            </mxGeometry>
          </mxCell>
        </object>
        <object c4Name="FRAM" c4Type="Component" c4Technology="Peripheral" c4Description="Stores application.  Contents copied to FRAM by the processor on boot." label="&lt;font size=&quot;1&quot; style=&quot;&quot;&gt;&lt;b style=&quot;font-size: 16px;&quot;&gt;%c4Name%&lt;/b&gt;&lt;/font&gt;&lt;div style=&quot;font-size: 13px;&quot;&gt;[%c4Type%: %c4Technology%]&lt;/div&gt;&lt;br style=&quot;font-size: 13px;&quot;&gt;&lt;div style=&quot;font-size: 13px;&quot;&gt;&lt;font style=&quot;font-size: 13px;&quot;&gt;&lt;font style=&quot;font-size: 13px;&quot;&gt;%c4Description%&lt;/font&gt;&lt;/font&gt;&lt;/div&gt;" placeholders="1" id="Hpg2Vx3gKNEG4ZOuF6sN-19">
          <mxCell style="shape=cylinder3;whiteSpace=wrap;html=1;boundedLbl=1;backgroundOutline=1;size=15;fontSize=13;fillColor=#CCE5FF;strokeColor=#2086C9;fontColor=#000000;rounded=1;labelBackgroundColor=none;arcSize=6;strokeWidth=1;fontStyle=0;spacingTop=2;spacingRight=2;spacingBottom=2;spacingLeft=2;fixedWidth=1;" parent="1" vertex="1">
            <mxGeometry x="1650" y="1921" width="210" height="140" as="geometry" />
          </mxCell>
        </object>
        <object placeholders="1" c4Name="Thruster Control Task" c4Type="ContainerScopeBoundary" c4Application="Container" label="&lt;font style=&quot;font-size: 16px&quot;&gt;&lt;b&gt;&lt;div style=&quot;text-align: left&quot;&gt;%c4Name%&lt;/div&gt;&lt;/b&gt;&lt;/font&gt;&lt;div style=&quot;text-align: left&quot;&gt;[%c4Application%]&lt;/div&gt;" id="Hpg2Vx3gKNEG4ZOuF6sN-21">
          <mxCell style="rounded=1;fontSize=11;whiteSpace=wrap;html=1;dashed=1;arcSize=20;fillColor=none;strokeColor=#666666;fontColor=#000000;labelBackgroundColor=none;align=left;verticalAlign=bottom;labelBorderColor=none;spacingTop=0;spacing=10;dashPattern=8 4;metaEdit=1;rotatable=0;perimeter=rectanglePerimeter;labelPadding=0;allowArrows=0;connectable=0;expand=0;recursiveResize=0;editable=1;pointerEvents=0;absoluteArcSize=1;points=[[0.25,0,0],[0.5,0,0],[0.75,0,0],[1,0.25,0],[1,0.5,0],[1,0.75,0],[0.75,1,0],[0.5,1,0],[0.25,1,0],[0,0.75,0],[0,0.5,0],[0,0.25,0]];" parent="1" vertex="1">
            <mxGeometry x="1620" y="1332" width="1004" height="856" as="geometry" />
          </mxCell>
        </object>
        <mxCell id="Hpg2Vx3gKNEG4ZOuF6sN-22" value="1" style="ellipse;whiteSpace=wrap;html=1;aspect=fixed;fontSize=24;direction=south;fillColor=#d5e8d4;strokeColor=#82b366;" parent="1" vertex="1">
          <mxGeometry x="2221" y="1154" width="42" height="42" as="geometry" />
        </mxCell>
        <mxCell id="Hpg2Vx3gKNEG4ZOuF6sN-23" value="" style="shape=flexArrow;endArrow=classic;html=1;rounded=0;fontSize=24;exitX=1;exitY=0.5;exitDx=0;exitDy=0;fillColor=#d5e8d4;strokeColor=#82b366;entryX=0.699;entryY=0.196;entryDx=0;entryDy=0;entryPerimeter=0;" parent="1" source="Hpg2Vx3gKNEG4ZOuF6sN-22" edge="1">
          <mxGeometry width="50" height="50" relative="1" as="geometry">
            <mxPoint x="2250.02" y="1475" as="sourcePoint" />
            <mxPoint x="2249.79" y="1948.44" as="targetPoint" />
          </mxGeometry>
        </mxCell>
        <mxCell id="Hpg2Vx3gKNEG4ZOuF6sN-24" value="Transfer" style="edgeLabel;html=1;align=center;verticalAlign=middle;resizable=0;points=[];fontSize=24;labelBackgroundColor=none;" parent="Hpg2Vx3gKNEG4ZOuF6sN-23" vertex="1" connectable="0">
          <mxGeometry x="-0.1249" y="-1" relative="1" as="geometry">
            <mxPoint x="72" y="-350" as="offset" />
          </mxGeometry>
        </mxCell>
        <mxCell id="Hpg2Vx3gKNEG4ZOuF6sN-25" value="2" style="ellipse;whiteSpace=wrap;html=1;aspect=fixed;fontSize=24;direction=south;fillColor=#d5e8d4;strokeColor=#82b366;" parent="1" vertex="1">
          <mxGeometry x="2271" y="1580.42" width="42" height="42" as="geometry" />
        </mxCell>
        <mxCell id="Hpg2Vx3gKNEG4ZOuF6sN-26" value="" style="shape=flexArrow;endArrow=classic;html=1;rounded=0;fontSize=24;fillColor=#d5e8d4;strokeColor=#82b366;exitX=0.912;exitY=0.167;exitDx=0;exitDy=0;exitPerimeter=0;" parent="1" target="Hpg2Vx3gKNEG4ZOuF6sN-25" edge="1">
          <mxGeometry width="50" height="50" relative="1" as="geometry">
            <mxPoint x="2294.5200000000004" y="1944.38" as="sourcePoint" />
            <mxPoint x="2527.64" y="1966" as="targetPoint" />
          </mxGeometry>
        </mxCell>
        <mxCell id="Hpg2Vx3gKNEG4ZOuF6sN-27" value="Validate" style="edgeLabel;html=1;align=center;verticalAlign=middle;resizable=0;points=[];fontSize=24;" parent="Hpg2Vx3gKNEG4ZOuF6sN-26" vertex="1" connectable="0">
          <mxGeometry x="0.1072" y="1" relative="1" as="geometry">
            <mxPoint x="57" y="-96" as="offset" />
          </mxGeometry>
        </mxCell>
        <mxCell id="Hpg2Vx3gKNEG4ZOuF6sN-28" value="3" style="ellipse;whiteSpace=wrap;html=1;aspect=fixed;fontSize=24;direction=south;fillColor=#d5e8d4;strokeColor=#82b366;" parent="1" vertex="1">
          <mxGeometry x="2179" y="2089.45" width="42" height="42" as="geometry" />
        </mxCell>
        <mxCell id="Hpg2Vx3gKNEG4ZOuF6sN-29" value="" style="shape=flexArrow;endArrow=classic;html=1;rounded=0;fontSize=24;fillColor=#d5e8d4;strokeColor=#82b366;exitX=0.5;exitY=1;exitDx=0;exitDy=0;" parent="1" source="Hpg2Vx3gKNEG4ZOuF6sN-28" edge="1">
          <mxGeometry width="50" height="50" relative="1" as="geometry">
            <mxPoint x="2167.33" y="2111.41" as="sourcePoint" />
            <mxPoint x="1740" y="2111" as="targetPoint" />
          </mxGeometry>
        </mxCell>
        <mxCell id="Hpg2Vx3gKNEG4ZOuF6sN-30" value="Install" style="edgeLabel;html=1;align=center;verticalAlign=middle;resizable=0;points=[];fontSize=24;" parent="Hpg2Vx3gKNEG4ZOuF6sN-29" vertex="1" connectable="0">
          <mxGeometry x="0.1072" y="1" relative="1" as="geometry">
            <mxPoint x="33" y="28" as="offset" />
          </mxGeometry>
        </mxCell>
        <object placeholders="1" c4Name="ECPK" c4Type="ContainerScopeBoundary" c4Application="VA41630" label="&lt;font style=&quot;font-size: 16px&quot;&gt;&lt;b&gt;&lt;div style=&quot;text-align: left&quot;&gt;%c4Name%&lt;/div&gt;&lt;/b&gt;&lt;/font&gt;&lt;div style=&quot;text-align: left&quot;&gt;[%c4Application%]&lt;/div&gt;" id="Hpg2Vx3gKNEG4ZOuF6sN-31">
          <mxCell style="rounded=1;fontSize=11;whiteSpace=wrap;html=1;dashed=1;arcSize=20;fillColor=none;strokeColor=#666666;fontColor=#000000;labelBackgroundColor=none;align=left;verticalAlign=bottom;labelBorderColor=none;spacingTop=0;spacing=10;dashPattern=8 4;metaEdit=1;rotatable=0;perimeter=rectanglePerimeter;labelPadding=0;allowArrows=0;connectable=0;expand=0;recursiveResize=0;editable=1;pointerEvents=0;absoluteArcSize=1;points=[[0.25,0,0],[0.5,0,0],[0.75,0,0],[1,0.25,0],[1,0.5,0],[1,0.75,0],[0.75,1,0],[0.5,1,0],[0.25,1,0],[0,0.75,0],[0,0.5,0],[0,0.25,0]];" parent="1" vertex="1">
            <mxGeometry x="1550" y="1291" width="1119" height="948" as="geometry" />
          </mxCell>
        </object>
        <mxCell id="Hpg2Vx3gKNEG4ZOuF6sN-32" style="edgeStyle=orthogonalEdgeStyle;rounded=0;orthogonalLoop=1;jettySize=auto;html=1;entryX=0.5;entryY=0;entryDx=0;entryDy=0;entryPerimeter=0;endArrow=blockThin;fontSize=13;strokeColor=#999999;fontColor=#000000;startArrow=none;startFill=0;endFill=1;startSize=14;endSize=14;dashed=1;" parent="1" source="Hpg2Vx3gKNEG4ZOuF6sN-33" target="Hpg2Vx3gKNEG4ZOuF6sN-37" edge="1">
          <mxGeometry relative="1" as="geometry">
            <Array as="points">
              <mxPoint x="3104" y="1623.17" />
              <mxPoint x="3104" y="1623.17" />
            </Array>
          </mxGeometry>
        </mxCell>
        <object placeholders="1" c4Name="Message Handler" c4Type="Component" c4Technology="RTOS Task\C" c4Description="Provides messaging services to client components (i.e. Keeper, Anode, Magnets, Valves)." label="&lt;font size=&quot;1&quot; style=&quot;&quot;&gt;&lt;b style=&quot;font-size: 16px;&quot;&gt;%c4Name%&lt;/b&gt;&lt;/font&gt;&lt;div style=&quot;font-size: 12px;&quot;&gt;[%c4Type%: %c4Technology%]&lt;/div&gt;&lt;br style=&quot;font-size: 12px;&quot;&gt;&lt;div style=&quot;&quot;&gt;&lt;font style=&quot;&quot;&gt;&lt;font style=&quot;font-size: 11px;&quot;&gt;%c4Description%&lt;/font&gt;&lt;/font&gt;&lt;/div&gt;" id="Hpg2Vx3gKNEG4ZOuF6sN-33">
          <mxCell style="rounded=1;whiteSpace=wrap;html=1;fontSize=12;labelBackgroundColor=none;fillColor=#CCE5FF;fontColor=#000000;align=center;arcSize=6;strokeColor=#2086C9;metaEdit=0;resizable=1;points=[[0.25,0,0],[0.5,0,0],[0.75,0,0],[1,0.25,0],[1,0.5,0],[1,0.75,0],[0.75,1,0],[0.5,1,0],[0.25,1,0],[0,0.75,0],[0,0.5,0],[0,0.25,0]];strokeWidth=1;fontStyle=0;spacingTop=2;spacingBottom=3;spacingRight=2;spacingLeft=2;fixedWidth=1;" parent="1" vertex="1">
            <mxGeometry x="2997.75" y="1536.17" width="212.5" height="100" as="geometry" />
          </mxCell>
        </object>
        <object placeholders="1" c4Name="Hardware Control Application" c4Type="ContainerScopeBoundary" c4Application="Container: C" label="&lt;font style=&quot;font-size: 16px&quot;&gt;&lt;b&gt;&lt;div style=&quot;text-align: left&quot;&gt;%c4Name%&lt;/div&gt;&lt;/b&gt;&lt;/font&gt;&lt;div style=&quot;text-align: left&quot;&gt;[%c4Application%]&lt;/div&gt;" id="Hpg2Vx3gKNEG4ZOuF6sN-34">
          <mxCell style="rounded=1;fontSize=11;whiteSpace=wrap;html=1;dashed=1;arcSize=20;fillColor=none;strokeColor=#FF3333;fontColor=#333333;labelBackgroundColor=none;align=left;verticalAlign=bottom;labelBorderColor=none;spacingTop=0;spacing=10;dashPattern=8 4;metaEdit=1;rotatable=0;perimeter=rectanglePerimeter;noLabel=0;labelPadding=0;allowArrows=0;connectable=0;expand=0;recursiveResize=0;editable=1;pointerEvents=0;absoluteArcSize=1;points=[[0.25,0,0],[0.5,0,0],[0.75,0,0],[1,0.25,0],[1,0.5,0],[1,0.75,0],[0.75,1,0],[0.5,1,0],[0.25,1,0],[0,0.75,0],[0,0.5,0],[0,0.25,0]];" parent="1" vertex="1">
            <mxGeometry x="2779" y="1395.17" width="668" height="1084.83" as="geometry" />
          </mxCell>
        </object>
        <mxCell id="mc9FZDUa1jqajacQamcD-3" style="edgeStyle=orthogonalEdgeStyle;rounded=0;orthogonalLoop=1;jettySize=auto;html=1;" parent="1" source="Hpg2Vx3gKNEG4ZOuF6sN-37" target="mc9FZDUa1jqajacQamcD-2" edge="1">
          <mxGeometry relative="1" as="geometry" />
        </mxCell>
        <object placeholders="1" c4Name="Update Client" c4Type="Component" c4Technology="RTOS Task\C Library" c4Description="Reports status and version to System Control.  Performs updates." label="&lt;font style=&quot;font-size: 16px&quot;&gt;&lt;b&gt;%c4Name%&lt;/b&gt;&lt;/font&gt;&lt;div style=&quot;&quot;&gt;&lt;font style=&quot;font-size: 12px;&quot;&gt;[%c4Type%: %c4Technology%]&lt;/font&gt;&lt;/div&gt;&lt;font style=&quot;font-size: 12px;&quot;&gt;&lt;br&gt;&lt;/font&gt;&lt;div style=&quot;&quot;&gt;&lt;font style=&quot;font-size: 12px;&quot;&gt;&lt;font style=&quot;font-size: 12px;&quot;&gt;%c4Description%&lt;/font&gt;&lt;/font&gt;&lt;/div&gt;" id="Hpg2Vx3gKNEG4ZOuF6sN-37">
          <mxCell style="rounded=1;whiteSpace=wrap;html=1;fontSize=12;labelBackgroundColor=none;fillColor=#CCE5FF;fontColor=#000000;align=center;arcSize=6;strokeColor=#2086C9;metaEdit=0;resizable=1;points=[[0.25,0,0],[0.5,0,0],[0.75,0,0],[1,0.25,0],[1,0.5,0],[1,0.75,0],[0.75,1,0],[0.5,1,0],[0.25,1,0],[0,0.75,0],[0,0.5,0],[0,0.25,0]];autosize=1;fixedWidth=1;strokeWidth=1;fontStyle=0;spacingTop=2;spacingBottom=3;spacingRight=2;spacingLeft=2;" parent="1" vertex="1">
            <mxGeometry x="2979.9991485973146" y="1717.17" width="251.62340458324388" height="110" as="geometry" />
          </mxCell>
        </object>
        <object c4Name="SRAM" c4Type="Component" c4Technology="Peripheral" c4Description="Volatile memory for runtime variables." label="&lt;font size=&quot;1&quot; style=&quot;&quot;&gt;&lt;b style=&quot;font-size: 16px;&quot;&gt;%c4Name%&lt;/b&gt;&lt;/font&gt;&lt;div style=&quot;font-size: 13px;&quot;&gt;[%c4Type%: %c4Technology%]&lt;/div&gt;&lt;br style=&quot;font-size: 13px;&quot;&gt;&lt;div style=&quot;font-size: 13px;&quot;&gt;&lt;font style=&quot;font-size: 13px;&quot;&gt;&lt;font style=&quot;font-size: 13px;&quot;&gt;%c4Description%&lt;/font&gt;&lt;/font&gt;&lt;/div&gt;" placeholders="1" id="Hpg2Vx3gKNEG4ZOuF6sN-38">
          <mxCell style="shape=cylinder3;whiteSpace=wrap;html=1;boundedLbl=1;backgroundOutline=1;size=15;fontSize=13;fillColor=#CCE5FF;strokeColor=#2086C9;fontColor=#000000;rounded=1;labelBackgroundColor=none;arcSize=6;strokeWidth=1;fontStyle=0;spacingTop=2;spacingRight=2;spacingBottom=2;spacingLeft=2;fixedWidth=1;" parent="1" vertex="1">
            <mxGeometry x="3154" y="2200" width="210" height="140" as="geometry" />
          </mxCell>
        </object>
        <object c4Name="FRAM" c4Type="Component" c4Technology="Peripheral" c4Description="Non-Volatile Memory. Boot disk.  Store binary executable that gets copied into SRAM on power up." label="&lt;font size=&quot;1&quot; style=&quot;&quot;&gt;&lt;b style=&quot;font-size: 16px;&quot;&gt;%c4Name%&lt;/b&gt;&lt;/font&gt;&lt;div style=&quot;font-size: 13px;&quot;&gt;[%c4Type%: %c4Technology%]&lt;/div&gt;&lt;br style=&quot;font-size: 13px;&quot;&gt;&lt;div style=&quot;font-size: 13px;&quot;&gt;&lt;font style=&quot;font-size: 13px;&quot;&gt;&lt;font style=&quot;font-size: 13px;&quot;&gt;%c4Description%&lt;/font&gt;&lt;/font&gt;&lt;/div&gt;" placeholders="1" id="Hpg2Vx3gKNEG4ZOuF6sN-39">
          <mxCell style="shape=cylinder3;whiteSpace=wrap;html=1;boundedLbl=1;backgroundOutline=1;size=15;fontSize=13;fillColor=#CCE5FF;strokeColor=#2086C9;fontColor=#000000;rounded=1;labelBackgroundColor=none;arcSize=6;strokeWidth=1;fontStyle=0;spacingTop=2;spacingRight=2;spacingBottom=2;spacingLeft=2;fixedWidth=1;" parent="1" vertex="1">
            <mxGeometry x="2839" y="2200" width="210" height="140" as="geometry" />
          </mxCell>
        </object>
        <object placeholders="1" c4Name="MVCP/ACP" c4Type="ContainerScopeBoundary" c4Application="VA41630" label="&lt;font style=&quot;font-size: 16px&quot;&gt;&lt;b&gt;&lt;div style=&quot;text-align: left&quot;&gt;%c4Name%&lt;/div&gt;&lt;/b&gt;&lt;/font&gt;&lt;div style=&quot;text-align: left&quot;&gt;[%c4Application%]&lt;/div&gt;" id="Hpg2Vx3gKNEG4ZOuF6sN-40">
          <mxCell style="rounded=1;fontSize=11;whiteSpace=wrap;html=1;dashed=1;arcSize=20;fillColor=none;strokeColor=#666666;fontColor=#000000;labelBackgroundColor=none;align=left;verticalAlign=bottom;labelBorderColor=none;spacingTop=0;spacing=10;dashPattern=8 4;metaEdit=1;rotatable=0;perimeter=rectanglePerimeter;labelPadding=0;allowArrows=0;connectable=0;expand=0;recursiveResize=0;editable=1;pointerEvents=0;absoluteArcSize=1;points=[[0.25,0,0],[0.5,0,0],[0.75,0,0],[1,0.25,0],[1,0.5,0],[1,0.75,0],[0.75,1,0],[0.5,1,0],[0.25,1,0],[0,0.75,0],[0,0.5,0],[0,0.25,0]];" parent="1" vertex="1">
            <mxGeometry x="2757" y="1368" width="733" height="1182" as="geometry" />
          </mxCell>
        </object>
        <object placeholders="1" c4Name="Bootloader Server" c4Type="Component" c4Technology="RTOS Task\C Library" c4Description="Provides update service to client components (i.e. Anode Processor and Magnets/Valves Processor)." label="&lt;font size=&quot;1&quot; style=&quot;&quot;&gt;&lt;b style=&quot;font-size: 16px;&quot;&gt;%c4Name%&lt;/b&gt;&lt;/font&gt;&lt;div style=&quot;&quot;&gt;&lt;font style=&quot;font-size: 12px;&quot;&gt;[%c4Type%: %c4Technology%]&lt;/font&gt;&lt;/div&gt;&lt;br style=&quot;font-size: 13px;&quot;&gt;&lt;div style=&quot;&quot;&gt;&lt;font style=&quot;&quot;&gt;&lt;font style=&quot;font-size: 12px;&quot;&gt;%c4Description%&lt;/font&gt;&lt;/font&gt;&lt;/div&gt;" id="Hpg2Vx3gKNEG4ZOuF6sN-41">
          <mxCell style="rounded=1;whiteSpace=wrap;html=1;fontSize=12;labelBackgroundColor=none;fillColor=#CCE5FF;fontColor=#000000;align=center;arcSize=6;strokeColor=#2086C9;metaEdit=0;resizable=1;points=[[0.25,0,0],[0.5,0,0],[0.75,0,0],[1,0.25,0],[1,0.5,0],[1,0.75,0],[0.75,1,0],[0.5,1,0],[0.25,1,0],[0,0.75,0],[0,0.5,0],[0,0.25,0]];strokeWidth=1;fontStyle=0;spacingTop=2;spacingRight=2;spacingBottom=2;spacingLeft=2;fixedWidth=1;" parent="1" vertex="1">
            <mxGeometry x="2361" y="1502.9999999999998" width="220" height="120" as="geometry" />
          </mxCell>
        </object>
        <object placeholders="1" c4Type="Relationship" c4Technology="CANbus" c4Description="C&amp;C - Telemetry " label="&lt;div style=&quot;text-align: left&quot;&gt;&lt;div style=&quot;text-align: center&quot;&gt;&lt;b&gt;%c4Description%&lt;/b&gt;&lt;/div&gt;&lt;div style=&quot;text-align: center&quot;&gt;[%c4Technology%]&lt;/div&gt;&lt;/div&gt;" id="Hpg2Vx3gKNEG4ZOuF6sN-42">
          <mxCell style="endArrow=blockThin;html=1;fontSize=10;fontColor=#000000;strokeWidth=1;endFill=1;strokeColor=#828282;elbow=vertical;metaEdit=1;endSize=14;startSize=14;jumpStyle=arc;jumpSize=16;rounded=0;dashed=1;entryX=1;entryY=0.5;entryDx=0;entryDy=0;entryPerimeter=0;startArrow=blockThin;startFill=1;exitX=0;exitY=0.25;exitDx=0;exitDy=0;exitPerimeter=0;" parent="1" source="Hpg2Vx3gKNEG4ZOuF6sN-33" target="Hpg2Vx3gKNEG4ZOuF6sN-41" edge="1">
            <mxGeometry x="0.3761" y="1" width="240" relative="1" as="geometry">
              <mxPoint x="3284" y="1101" as="sourcePoint" />
              <mxPoint x="3284" y="870" as="targetPoint" />
              <mxPoint as="offset" />
            </mxGeometry>
          </mxCell>
        </object>
        <mxCell id="Hpg2Vx3gKNEG4ZOuF6sN-43" value="6" style="ellipse;whiteSpace=wrap;html=1;aspect=fixed;fontSize=24;direction=south;fillColor=#d5e8d4;strokeColor=#82b366;" parent="1" vertex="1">
          <mxGeometry x="2509.19" y="1452" width="42" height="42" as="geometry" />
        </mxCell>
        <mxCell id="Hpg2Vx3gKNEG4ZOuF6sN-44" value="" style="shape=flexArrow;endArrow=classic;html=1;rounded=0;fontSize=24;fillColor=#d5e8d4;strokeColor=#82b366;exitX=0.5;exitY=0;exitDx=0;exitDy=0;entryX=0.5;entryY=1;entryDx=0;entryDy=0;" parent="1" source="Hpg2Vx3gKNEG4ZOuF6sN-43" target="Hpg2Vx3gKNEG4ZOuF6sN-46" edge="1">
          <mxGeometry width="50" height="50" relative="1" as="geometry">
            <mxPoint x="4008.33" y="1716.96" as="sourcePoint" />
            <mxPoint x="3358" y="1475" as="targetPoint" />
          </mxGeometry>
        </mxCell>
        <mxCell id="Hpg2Vx3gKNEG4ZOuF6sN-45" value="Transfer" style="edgeLabel;html=1;align=center;verticalAlign=middle;resizable=0;points=[];fontSize=24;" parent="Hpg2Vx3gKNEG4ZOuF6sN-44" vertex="1" connectable="0">
          <mxGeometry x="0.1072" y="1" relative="1" as="geometry">
            <mxPoint x="-339" y="-27" as="offset" />
          </mxGeometry>
        </mxCell>
        <mxCell id="Hpg2Vx3gKNEG4ZOuF6sN-46" value="7" style="ellipse;whiteSpace=wrap;html=1;aspect=fixed;fontSize=24;direction=south;fillColor=#d5e8d4;strokeColor=#82b366;" parent="1" vertex="1">
          <mxGeometry x="3238" y="1453" width="42" height="42" as="geometry" />
        </mxCell>
        <mxCell id="Hpg2Vx3gKNEG4ZOuF6sN-47" value="" style="shape=flexArrow;endArrow=classic;html=1;rounded=0;fontSize=24;exitX=1;exitY=0.5;exitDx=0;exitDy=0;fillColor=#d5e8d4;strokeColor=#82b366;" parent="1" source="Hpg2Vx3gKNEG4ZOuF6sN-46" target="Hpg2Vx3gKNEG4ZOuF6sN-38" edge="1">
          <mxGeometry width="50" height="50" relative="1" as="geometry">
            <mxPoint x="3272.8300000000004" y="1774" as="sourcePoint" />
            <mxPoint x="3272.6" y="2247.4399999999996" as="targetPoint" />
          </mxGeometry>
        </mxCell>
        <mxCell id="Hpg2Vx3gKNEG4ZOuF6sN-48" value="Store" style="edgeLabel;html=1;align=center;verticalAlign=middle;resizable=0;points=[];fontSize=24;labelBackgroundColor=none;" parent="Hpg2Vx3gKNEG4ZOuF6sN-47" vertex="1" connectable="0">
          <mxGeometry x="-0.1249" y="-1" relative="1" as="geometry">
            <mxPoint x="65" y="-205" as="offset" />
          </mxGeometry>
        </mxCell>
        <mxCell id="Hpg2Vx3gKNEG4ZOuF6sN-49" value="9" style="ellipse;whiteSpace=wrap;html=1;aspect=fixed;fontSize=24;direction=south;fillColor=#d5e8d4;strokeColor=#82b366;" parent="1" vertex="1">
          <mxGeometry x="3196" y="2360" width="42" height="42" as="geometry" />
        </mxCell>
        <mxCell id="Hpg2Vx3gKNEG4ZOuF6sN-50" value="" style="shape=flexArrow;endArrow=classic;html=1;rounded=0;fontSize=24;fillColor=#d5e8d4;strokeColor=#82b366;exitX=0.5;exitY=1;exitDx=0;exitDy=0;" parent="1" edge="1">
          <mxGeometry width="50" height="50" relative="1" as="geometry">
            <mxPoint x="3196" y="2380" as="sourcePoint" />
            <mxPoint x="2948" y="2381" as="targetPoint" />
          </mxGeometry>
        </mxCell>
        <mxCell id="Hpg2Vx3gKNEG4ZOuF6sN-51" value="Install" style="edgeLabel;html=1;align=center;verticalAlign=middle;resizable=0;points=[];fontSize=24;" parent="Hpg2Vx3gKNEG4ZOuF6sN-50" vertex="1" connectable="0">
          <mxGeometry x="0.1072" y="1" relative="1" as="geometry">
            <mxPoint x="33" y="28" as="offset" />
          </mxGeometry>
        </mxCell>
        <mxCell id="Hpg2Vx3gKNEG4ZOuF6sN-52" value="&lt;div align=&quot;center&quot;&gt;8&lt;/div&gt;" style="ellipse;whiteSpace=wrap;html=1;aspect=fixed;fontSize=24;direction=south;fillColor=#d5e8d4;strokeColor=#82b366;align=center;" parent="1" vertex="1">
          <mxGeometry x="3294" y="1879" width="42" height="42" as="geometry" />
        </mxCell>
        <mxCell id="Hpg2Vx3gKNEG4ZOuF6sN-55" value="4" style="ellipse;whiteSpace=wrap;html=1;aspect=fixed;fontSize=24;direction=south;fillColor=#d5e8d4;strokeColor=#82b366;" parent="1" vertex="1">
          <mxGeometry x="2432.19" y="1943" width="42" height="42" as="geometry" />
        </mxCell>
        <mxCell id="Hpg2Vx3gKNEG4ZOuF6sN-56" value="5" style="ellipse;whiteSpace=wrap;html=1;aspect=fixed;fontSize=24;direction=south;fillColor=#d5e8d4;strokeColor=#82b366;" parent="1" vertex="1">
          <mxGeometry x="2509.19" y="1630.17" width="42" height="42" as="geometry" />
        </mxCell>
        <mxCell id="Hpg2Vx3gKNEG4ZOuF6sN-57" value="Power Clients" style="text;html=1;strokeColor=none;fillColor=none;align=center;verticalAlign=middle;whiteSpace=wrap;rounded=0;labelBackgroundColor=none;fontSize=24;fontColor=#000000;" parent="1" vertex="1">
          <mxGeometry x="2506" y="1688.17" width="60" height="30" as="geometry" />
        </mxCell>
        <mxCell id="Hpg2Vx3gKNEG4ZOuF6sN-58" value="Reset" style="aspect=fixed;perimeter=ellipsePerimeter;html=1;align=center;shadow=0;dashed=0;fontColor=#000000;labelBackgroundColor=#ffffff;fontSize=24;spacingTop=3;image;image=img/lib/ibm/management/push_notifications.svg;fillColor=#00BD00;imageBackground=default;" parent="1" vertex="1">
          <mxGeometry x="2809" y="1696" width="146" height="146" as="geometry" />
        </mxCell>
        <mxCell id="Hpg2Vx3gKNEG4ZOuF6sN-59" value="10" style="ellipse;whiteSpace=wrap;html=1;aspect=fixed;fontSize=24;direction=south;fillColor=#d5e8d4;strokeColor=#82b366;" parent="1" vertex="1">
          <mxGeometry x="2861" y="1751.17" width="42" height="42" as="geometry" />
        </mxCell>
        <mxCell id="mc9FZDUa1jqajacQamcD-8" style="edgeStyle=orthogonalEdgeStyle;rounded=0;orthogonalLoop=1;jettySize=auto;html=1;entryX=0.5;entryY=0;entryDx=0;entryDy=0;entryPerimeter=0;" parent="1" source="mc9FZDUa1jqajacQamcD-2" target="mc9FZDUa1jqajacQamcD-4" edge="1">
          <mxGeometry relative="1" as="geometry" />
        </mxCell>
        <object placeholders="1" c4Name="Update" c4Type="Component" c4Technology="C Library" c4Description="Provides update routines to manage transfer, storage, validation, and installation of the image." label="&lt;font size=&quot;1&quot; style=&quot;&quot;&gt;&lt;b style=&quot;font-size: 16px;&quot;&gt;%c4Name%&lt;/b&gt;&lt;/font&gt;&lt;div style=&quot;font-size: 12px;&quot;&gt;[%c4Type%: %c4Technology%]&lt;/div&gt;&lt;br style=&quot;font-size: 12px;&quot;&gt;&lt;div style=&quot;font-size: 12px;&quot;&gt;&lt;font style=&quot;font-size: 12px;&quot;&gt;&lt;font style=&quot;font-size: 12px;&quot;&gt;%c4Description%&lt;/font&gt;&lt;/font&gt;&lt;/div&gt;" id="mc9FZDUa1jqajacQamcD-2">
          <mxCell style="rounded=1;whiteSpace=wrap;html=1;fontSize=12;labelBackgroundColor=none;fillColor=#CCE5FF;fontColor=#000000;align=center;arcSize=6;strokeColor=#2086C9;metaEdit=0;resizable=1;points=[[0.25,0,0],[0.5,0,0],[0.75,0,0],[1,0.25,0],[1,0.5,0],[1,0.75,0],[0.75,1,0],[0.5,1,0],[0.25,1,0],[0,0.75,0],[0,0.5,0],[0,0.25,0]];strokeWidth=1;fontStyle=0;fixedWidth=1;" parent="1" vertex="1">
            <mxGeometry x="3000.81" y="1860" width="210" height="111.17" as="geometry" />
          </mxCell>
        </object>
        <mxCell id="mc9FZDUa1jqajacQamcD-5" style="edgeStyle=orthogonalEdgeStyle;rounded=0;orthogonalLoop=1;jettySize=auto;html=1;entryX=1;entryY=0.5;entryDx=0;entryDy=0;entryPerimeter=0;" parent="1" source="mc9FZDUa1jqajacQamcD-4" target="Hpg2Vx3gKNEG4ZOuF6sN-39" edge="1">
          <mxGeometry relative="1" as="geometry" />
        </mxCell>
        <mxCell id="mc9FZDUa1jqajacQamcD-6" style="edgeStyle=orthogonalEdgeStyle;rounded=0;orthogonalLoop=1;jettySize=auto;html=1;entryX=0;entryY=0.5;entryDx=0;entryDy=0;entryPerimeter=0;" parent="1" source="mc9FZDUa1jqajacQamcD-4" target="Hpg2Vx3gKNEG4ZOuF6sN-38" edge="1">
          <mxGeometry relative="1" as="geometry" />
        </mxCell>
        <object placeholders="1" c4Name="Storage Memory" c4Type="Component" c4Technology="C Library" c4Description="Simple file system with standard POSIX API (open(), close(), read(), write(), lseek(), etc.)" label="&lt;font size=&quot;1&quot; style=&quot;&quot;&gt;&lt;b style=&quot;font-size: 16px;&quot;&gt;%c4Name%&lt;/b&gt;&lt;/font&gt;&lt;div style=&quot;font-size: 12px;&quot;&gt;[%c4Type%: %c4Technology%]&lt;/div&gt;&lt;br style=&quot;font-size: 12px;&quot;&gt;&lt;div style=&quot;font-size: 12px;&quot;&gt;&lt;font style=&quot;font-size: 12px;&quot;&gt;&lt;font style=&quot;font-size: 12px;&quot;&gt;%c4Description%&lt;/font&gt;&lt;/font&gt;&lt;/div&gt;" id="mc9FZDUa1jqajacQamcD-4">
          <mxCell style="rounded=1;whiteSpace=wrap;html=1;fontSize=12;labelBackgroundColor=none;fillColor=#CCE5FF;fontColor=#000000;align=center;arcSize=6;strokeColor=#2086C9;metaEdit=0;resizable=1;points=[[0.25,0,0],[0.5,0,0],[0.75,0,0],[1,0.25,0],[1,0.5,0],[1,0.75,0],[0.75,1,0],[0.5,1,0],[0.25,1,0],[0,0.75,0],[0,0.5,0],[0,0.25,0]];strokeWidth=1;fontStyle=0;spacingTop=2;spacingRight=2;spacingBottom=2;spacingLeft=2;fixedWidth=1;" parent="1" vertex="1">
            <mxGeometry x="2995.81" y="2020" width="220" height="120" as="geometry" />
          </mxCell>
        </object>
        <object c4Name="NOR Flash" c4Type="Component" c4Technology="Peripheral" c4Description="Stores user configurations, applications, and redundant copies" label="&lt;font size=&quot;1&quot; style=&quot;&quot;&gt;&lt;b style=&quot;font-size: 16px;&quot;&gt;%c4Name%&lt;/b&gt;&lt;/font&gt;&lt;div style=&quot;font-size: 13px;&quot;&gt;[%c4Type%: %c4Technology%]&lt;/div&gt;&lt;br style=&quot;font-size: 13px;&quot;&gt;&lt;div style=&quot;font-size: 13px;&quot;&gt;&lt;font style=&quot;font-size: 13px;&quot;&gt;&lt;font style=&quot;font-size: 13px;&quot;&gt;%c4Description%&lt;/font&gt;&lt;/font&gt;&lt;/div&gt;" placeholders="1" id="7SZ5nXAU_SMwXhyCbN0--1">
          <mxCell style="shape=cylinder3;whiteSpace=wrap;html=1;boundedLbl=1;backgroundOutline=1;size=15;fontSize=13;fillColor=#CCE5FF;strokeColor=#2086C9;fontColor=#000000;rounded=1;labelBackgroundColor=none;arcSize=6;strokeWidth=1;fontStyle=0;spacingTop=2;spacingRight=2;spacingBottom=2;spacingLeft=2;fixedWidth=1;" vertex="1" parent="1">
            <mxGeometry x="1880" y="1921" width="210" height="140" as="geometry" />
          </mxCell>
        </object>
        <object c4Name="SRAM" c4Type="Component" c4Technology="Peripheral" c4Description="Volatile memory for runtime variables." label="&lt;font size=&quot;1&quot; style=&quot;&quot;&gt;&lt;b style=&quot;font-size: 16px;&quot;&gt;%c4Name%&lt;/b&gt;&lt;/font&gt;&lt;div style=&quot;font-size: 13px;&quot;&gt;[%c4Type%: %c4Technology%]&lt;/div&gt;&lt;br style=&quot;font-size: 13px;&quot;&gt;&lt;div style=&quot;font-size: 13px;&quot;&gt;&lt;font style=&quot;font-size: 13px;&quot;&gt;&lt;font style=&quot;font-size: 13px;&quot;&gt;%c4Description%&lt;/font&gt;&lt;/font&gt;&lt;/div&gt;" placeholders="1" id="7SZ5nXAU_SMwXhyCbN0--2">
          <mxCell style="shape=cylinder3;whiteSpace=wrap;html=1;boundedLbl=1;backgroundOutline=1;size=15;fontSize=13;fillColor=#CCE5FF;strokeColor=#2086C9;fontColor=#000000;rounded=1;labelBackgroundColor=none;arcSize=6;strokeWidth=1;fontStyle=0;spacingTop=2;spacingRight=2;spacingBottom=2;spacingLeft=2;fixedWidth=1;" vertex="1" parent="1">
            <mxGeometry x="2110" y="1921" width="210" height="140" as="geometry" />
          </mxCell>
        </object>
        <mxCell id="7SZ5nXAU_SMwXhyCbN0--5" style="edgeStyle=orthogonalEdgeStyle;rounded=0;orthogonalLoop=1;jettySize=auto;html=1;startArrow=none;startFill=0;endArrow=blockThin;fontSize=13;strokeColor=#828282;fontColor=#000000;strokeWidth=1;endFill=1;endSize=14;startSize=14;dashed=1;entryX=0.5;entryY=0;entryDx=0;entryDy=0;entryPerimeter=0;exitX=0.486;exitY=0.994;exitDx=0;exitDy=0;exitPerimeter=0;" edge="1" parent="1" source="Hpg2Vx3gKNEG4ZOuF6sN-5" target="7SZ5nXAU_SMwXhyCbN0--1">
          <mxGeometry relative="1" as="geometry">
            <mxPoint x="2073" y="1859" as="sourcePoint" />
            <mxPoint x="1765" y="1931" as="targetPoint" />
            <Array as="points">
              <mxPoint x="2060" y="1880" />
              <mxPoint x="1985" y="1880" />
            </Array>
          </mxGeometry>
        </mxCell>
        <object placeholders="1" c4Type="Relationship" c4Technology="memmap/progam IO" c4Description="Read from write to" label="&lt;div style=&quot;text-align: left; font-size: 13px;&quot;&gt;&lt;div style=&quot;text-align: center; font-size: 13px;&quot;&gt;&lt;b style=&quot;font-size: 13px;&quot;&gt;%c4Description%&lt;/b&gt;&lt;/div&gt;&lt;div style=&quot;text-align: center; font-size: 13px;&quot;&gt;[%c4Technology%]&lt;/div&gt;&lt;/div&gt;" id="Hpg2Vx3gKNEG4ZOuF6sN-9">
          <mxCell style="endArrow=none;html=1;fontSize=13;fontColor=#000000;strokeWidth=1;endFill=0;strokeColor=#828282;elbow=vertical;metaEdit=1;endSize=14;startSize=14;jumpStyle=arc;jumpSize=16;rounded=0;dashed=1;startArrow=blockThin;startFill=1;edgeStyle=orthogonalEdgeStyle;entryX=0.5;entryY=1;entryDx=0;entryDy=0;entryPerimeter=0;exitX=0.5;exitY=0;exitDx=0;exitDy=0;exitPerimeter=0;" parent="1" source="7SZ5nXAU_SMwXhyCbN0--2" target="Hpg2Vx3gKNEG4ZOuF6sN-5" edge="1">
            <mxGeometry x="0.6789" width="240" relative="1" as="geometry">
              <mxPoint x="2240" y="2500" as="sourcePoint" />
              <mxPoint x="2080.1400000000003" y="2389.48" as="targetPoint" />
              <mxPoint as="offset" />
              <Array as="points">
                <mxPoint x="2215" y="1880" />
                <mxPoint x="2060" y="1880" />
                <mxPoint x="2060" y="1849" />
              </Array>
            </mxGeometry>
          </mxCell>
        </object>
        <mxCell id="7SZ5nXAU_SMwXhyCbN0--7" style="rounded=0;orthogonalLoop=1;jettySize=auto;html=1;entryX=0;entryY=0.5;entryDx=0;entryDy=0;entryPerimeter=0;endArrow=blockThin;fontSize=13;strokeColor=#828282;fontColor=#000000;strokeWidth=1;endFill=1;endSize=14;startSize=14;exitX=1.023;exitY=0.504;exitDx=0;exitDy=0;exitPerimeter=0;" edge="1" parent="1" source="Hpg2Vx3gKNEG4ZOuF6sN-10" target="Hpg2Vx3gKNEG4ZOuF6sN-5">
          <mxGeometry relative="1" as="geometry">
            <mxPoint x="1793.3699999999994" y="1660.346260936301" as="sourcePoint" />
          </mxGeometry>
        </mxCell>
      </root>
    </mxGraphModel>
  </diagram>
  <diagram id="OO-af6zGbe1Zg9bn-6uj" name="MemMap">
    <mxGraphModel dx="3162" dy="1098" grid="1" gridSize="10" guides="1" tooltips="1" connect="1" arrows="1" fold="1" page="1" pageScale="1" pageWidth="850" pageHeight="1100" math="0" shadow="0">
      <root>
        <mxCell id="0" />
        <mxCell id="1" parent="0" />
        <mxCell id="im_bpf7Kk3_-UFMZWJdJ-7" value="" style="endArrow=none;html=1;rounded=0;entryX=0;entryY=1;entryDx=0;entryDy=0;exitX=0.988;exitY=0.253;exitDx=0;exitDy=0;exitPerimeter=0;" edge="1" parent="1" source="im_bpf7Kk3_-UFMZWJdJ-5" target="im_bpf7Kk3_-UFMZWJdJ-3">
          <mxGeometry width="50" height="50" relative="1" as="geometry">
            <mxPoint x="-220" y="690" as="sourcePoint" />
            <mxPoint x="-105" y="610" as="targetPoint" />
          </mxGeometry>
        </mxCell>
        <mxCell id="im_bpf7Kk3_-UFMZWJdJ-3" value="" style="rounded=0;whiteSpace=wrap;html=1;fillColor=#d5e8d4;strokeColor=#1A081D;" vertex="1" parent="1">
          <mxGeometry x="-200" y="280" width="140" height="250" as="geometry" />
        </mxCell>
        <mxCell id="im_bpf7Kk3_-UFMZWJdJ-5" value="" style="shape=image;verticalLabelPosition=bottom;labelBackgroundColor=default;verticalAlign=top;aspect=fixed;imageAspect=0;image=data:image/png,iVBORw0KGgoAAAANSUhEUgAAAZUAAAJhCAIAAAAG0rr+AAAAA3NCSVQICAjb4U/gAAAgAElEQVR4XuydCVxN2R/Aj9H0UKae/tXQos2INhJDkQohlEhiZIqKEEMzDIZibBnJElmzbwllaIiSEEOWUoQ2bSqjJ4pezPife9/SW+6t99r08ruf+Yze7/zOb/mec3/3nPMutfn06ROq66qurpaXl69LC9qBABAAAs1K4Ktm9QbOgAAQAAKNRwDqV+OxBEtAAAg0LwGoX83LG7wBASDQeASgfjUeS7AEBIBA8xKA+tW8vMEbEAACjUcA6lfjsQRLQAAINC8BqF/Nyxu8AQEg0HgEoH41HkuwBASAQPMSgPrVvLzBGxAAAo1HAOpX47EES0AACDQvAahfzcsbvAEBINB4BCSqX23atGk8j2AJCAABINA4BCSqX5L8He/GCQesAAEgAAQkJiBR/ZLYGigCASAABJqPANSv5mMNnoAAEGhcAlC/GpcnWAMCQKD5CED9aj7W4AkIAIHGJQD1q3F5gjUgAASajwDUr+ZjDZ6AABBoXAJQvxqXJ1gDAkCg+QhA/Wo+1uAJCACBxiUA9atxeYI1IAAEmo8A1K/mYw2egAAQaFwCUL8alydYAwJAoPkIQP1qPtbgCQgAgcYlAPWrcXmCNSAABJqPANSv5mMNnoAAEGhcAlC/GpcnWAMCQKD5CED9aj7W4AkIAIHGJQD1q3F5gjUgAASajwDUr+ZjDZ6AABBoXAJykpiDf/++TkqbNm3KyMgoKSmpUxMUgAAQaCABXV1dbW3tn376SaL1F/z793XiTiGvOtVAAQgAgYYTePDgQUJCArYj0fqr4f6+BAvt2rU7c+bMl5Ap5AgEPi+BwMDAAwcO4BgkWn993ljBOxAAAkCAkgDUL0osIAQCQEAGCED9koFBghCBABCgJAD1ixILCIEAEJABAlC/ZGCQIEQgAAQoCUD9osQCQiAABGSAANQvGRgkCBEIAAFKAlC/KLGAEAgAARkgAPVLBgYJQgQCQICSANQvSiwgBAJAQAYIQP2SgUGCEIEAEKAkAPWLEgsIgQAQkAECUL9kYJAgRCAABCgJQP2ixAJCIAAEZIAA1C8ZGCQIEQgAAUoCUL8osYAQCAABGSAA9UsGBglCBAJAgJIA1C9KLCAEAkBABghIVL/g93fIwEhCiEDgyyMgUf2C39/x5U0MyBgIyAABieqXDOQBIQIBIPDlEYD69eWNOWQMBFoLAahfrWUkIQ8g8OURgPr15Y05ZAwEWgsBqF+tZSQhDykJJO/xWXk+X8pOdahXsljsOlRQE/htApN1ZdFC2htYv9ipO52/U26HX7BQ1HNef72k1qxiF+gIXg47nhDqJZf8B6gpYgvtlC18Tz2rGX66Bql8IlptOvPSB1Rr0q2okTN+zuHZIjmlhw7D48odTm4bK8ZXs107Zb9YsfyfhFop+4qLRfTYrMLCukuBmHFpBIWJu0+nvxHpITBHjYf4R2RUSmMxfb1Vp86zY+roQum3jj51NDeByTo8tpTmBtUvVszsofMKPOJfffpUkehVsHyo73FWLYm9/+e54pSDibzrgHt3hNJDRo851C0so+pTVebenqdcRq69y7FA1yCdT1ptOvPSB1RLwq2sCY/ff3Jyf605yB0iTnrsS9uW58jJPS9685GfLzs+wONSn+EG5eXvxRh8fFdZXikuFtG7ME9Tc94Fsc5NLqiZo2eW656f2mvy4dqfyUIBGUzeHXctcEiTBwkOagjgd7vqvNhsNpVO2SFHpLXkJq8pzo+JJkZW4Y/ZN06eu1vMkVc9vcr7EOWOzILShCzdXKKFHA+VcWV5O2yR0eoU4hNdA61PqgA/0WrTmaf1S9/Acezh4WFjY0MZRKsREuO3OtSXyfSNJUaZc5Udc2ZYhYYKDm1VymozVb+4lCAz5B4lln2agLgs5cKFlLKq/NsRQUHbzt3O55rF82ehFUJWC0+ePInbuSYqcpLObVu+fNu5pJwKUsTpXXw3Ytu2CHK60ZjDLVVlD+NOEp1Pxj3mdP70iWI6CgurIicigQwIG/uClgfti3tYxgkUx3kjG0/wbdu2XX3Knfj8ePnBnNsWhPvw3XL9VjyOE5ETKdWdI0eHjKMGmHAq2PQ+zFMgVS7B1vNHQEAAXvLjfBqy/srPy0KW5r15tVBDVx9lZGXijx1eRLpb+pBPrvTtkx2CnjLUqR8Z7MKsfKPvTZncVi0tPUZ6Rg7+RNtA65PSAZ02rXnpGyj9tl6h3CBnNxQedoa3zs4+GhrjMGeypkDG2ft/WtN141K7tnVTKLqwyPsnt77W/mcyHxyfMcjAlZwzrJybsfeKESq+Fxsb+3d+BWGnJNqru7HnwQpd3YqDnoa6XjE4ANzbf9l0W7vfL17ceDgFK1GbQ+hJqJ3u5M1JFbrqWcFuPXTnxtd5RiUWOjs1xE7LbulDRRPFh0vtOg8MSccqqTsmrPSf1Hfy8YuntsblcgSLLhRxOnODMffd9SAzYZ1DL5v1qXy3eeHjTVw3P8i8sdGxh9nSW1y5RDnG+moMXHQkR1EX/eU/yGDkTtHNPCvGS9cax6mHHm6evS5RLJFWJpBrQD45GelIXo7Bs9Bdrwf3R/Xxm7cc7Dp33imL0QcXf1hye5YRTydjzXCd7aRPRfeDab+rZGUgOfOaid71O0OURrRm0jXQ+qTMg06b1rz0DZR+W7Gw7bDpczUtjp1nuU3Bj527B0MeTQtzZr7jH/qUHJ7vj4JTp6gj4g6v+8rP0997c/sw/IC7tVR7wMlLrClTmHb+u96m7L6M5uza5cSxcDfM/3C/PS9OuGGfHtYKA/U3RAQ4DMSPx2vykU9Sx9c8HqnMoe6esYVzFBQIU5PUC9vNj7u/xa5/HaFV5satWRfFdD9hTSiyzgQuLvn5RmZgH/xhTLf3nSfujJ+/Bf98MdsiJWuJKf8mELKan6a+9eFFJxwdy25cZ48NF+YddOJodvGL+ms27sWyduq05M/7q/vjcCTLcfCGwiwFBcLKLPOPxmYxSawZerznP+E86++Erzz2B8/CcFxmCUXTKj80pH7VAkR9Ssjm8J4/9IrS9E+IEBhdgzlHY3x0iI5tO+JhJRZrcMkYgT5T51ut2HE0e8psjUt7t6C5l4YxUDQ3B3b86gXPl1z20JM8J8vhRPHCV29zS3S+CK9eBG9Hjp0nieezOnw6tcgnnvycU4zyXpSSP46eJFC8CAGlOVy7Xt6Pv5pVhtCdApQvX+uZVsoi4zaLEFJQ7e9+5O9NTmQ0Ny/HsNHbnT4+pFPWPcTSLn2L2iNkNtmJpngRiiPGE8ULX0yT/obso0/wfCcf5dojbDi9mKbfG+VnkOFImCNDQY6VdfPy/cL36EXaG/RcFJjJYCc5hxGmb7fuXOQ6QIes2a35akj90jU0Qn+/xQt5zoR7kv0Yfd2bZ1Dhf2odEHonwk7uGxVtbW2+0EDfEJWVv+V/fv40gyH/Nf5I21CrT7GBotPWkdovbUBiPlu/QG/kJKs5IQfvTjYMC+85/xGxJOFe+ftXbW2n/GOoH3Gfs+7lodehPj4vfXZ5WUhAhSEnT6f18cMHpNjT2t6+M0fD3l7NzBhVx9HpE3IBc9nHxvX3zhy+fIGTnmJtXTht+Iz2wUL+joEj+1DNRt+a29v35fn30BvUEd2q21hdGm3leDeMZDmybwWYDd2rNmPJ3AFqlLYZdsFZmW5HQ/wnGPp1XZsUP7+W8kppQLaEDalf3Y3MGRuSktlT8AMYT9c7Ccn6o3bg7xSJDzFLfeOn/Hm5o++gmcET/6ZbYDMMzc3yz97NRv3JB/atG7HIYf0A/BNtQy0+KcDTakvtlzYgCq+tXqQ3eY6z/6wA956XHebsFVxqqdkFnlThLIwQelFxITIP3/M9VeoB5Gt5Bqrm9zMytmBUyBuOcSFnGu+SbIOKVzbRG8+Yby0+5Emshb4+W49okGFvC5Stbe7iIsXCEvspLcNLK8Iruyg3j2Ha3aAW35LlGLcn6PWsyxnr8fYQpWevQo8oLDI0+3oGJ062dGvnvefG/C12FCqtRtSQ+sUY4eEjN+SHSbrHfxn46mLggou2v4eQD2NWzC8ep+3CHg8bqLzLb7fD9O1Od+ZzHmhlD+IjIx9z6HX8bshwUxdf2+XzJs5X2+Kqcn/vrOAqnxhncjVnRNNA65NyRGi16czT+qVvoHTcyoVMZ99ps+zDkp2PDRfa7DG6Wbt04+VO3F5yli4ulvWBYdLXEi078EfkB33N78f11xri5d9pADHTlk00QJnxl0687b/TT9K6qNZZi3E76sTNAfYoPnB2BEKuUkfUffI8x8VexDyd8T2T9TA+MlHtpyCXOs0k+PYZ/nyVt/HLo7PC5HziRlAfk3HNSJSjuqZmSdSxc5O0NQq3zlmZggwmiwQRu8w56fvl00xR3JF4Rt91/NGoM1YZVZDkO1Wa9yeI76XzE0LnO/bvamTnE/QX+RUyvoourPFeF8t9f6I4dp33rH33CHna0fneAteKc3mEtOLxieWT7Iy69ndcHs576YI0Q9dA6ZPsQXXRatOZp/VL34D9fgnvT9zZ7c0dM5ww/jD/QArvPQqhJu4w5J1b4b37jtiYCIqFVYSMVD2NXGBn1N9xQxz3/QneeBnZTZrPmWtiDmjNFV8L9bEzwpM0NOFu1Ir5R8mXeKhiphaSOfAmEp6o3tyZKmZBUEC+J3Li8QmcBemY93KIsAvhkCXIEXNZjm84fLeceHxttzcHj4Df4rvhvNvpRM07G2KjIOMC/vsTbXAidVbe6upqeXnaw4k6u38JCp6enrm5uVeuXPkSkoUcJSCQvr6XcdqKTwe536BK0ANUJCYQGBh44MCBnJychuwfJfbW9Ir551f+Hl0g5qefhEfHYh1BAASAgAwQaCX1S81y+m8m/4rxbi/pEYlYTxAAgYYRMPA+//yjcsNsQO+6CLSS+sVgamiLvzZUV/KN2P7ff//hXfalS5ca0SaYkn0C5D9RAFdjE8jOzsa3G7YqUf2C399RJ398jFheXm5vb1+nJigAASDQcAIMBvFtrkT1S5Iz/oYHJNMW8PpLSUkJ1l8yPYgQvKwQOHTwYCy515GofslKVp8xTk6JNzYSeW/7M0YEroFAqyWgqqb29dfEX9RpyL8/0WrpQGJAAAjIBAGoXzIxTBAkEAACFASgflFAAREQAAIyQQDql0wMEwQJBIAABQGoXxRQQAQEgIBMEID6JRPDBEECASBAQQDqFwUUEAEBICATBKB+ycQwQZBAAAhQEID6RQEFREAACMgEAahfMjFMECQQAAIUBKB+UUABERAAAjJBAOqXTAwTBAkEgAAFAahfFFBABASAgEwQgPolE8MEQQIBIEBBAOoXBRQQAQEgIBMEoH7JxDBBkEAACFAQgPpFAQVEQAAIyAQBqF+NM0zwKwIahyNYAQLSEJCofsHNWSfSr76SiGSddkABCAAByQlIdNfB7++oE+i//4r/9sk6O4ECEAACDSIgUf1qkAfoDASAABBoGgJQv5qGK1gFAkCg6QlA/Wp6xuABCACBpiEA9atpuILVL5LAu1eFr959kZl/pqQb8vtr2QV3zh49dimzovMAb+/JfTWJ3+dd21WZEX/g2PEHL5CiwTjfeSO61eizC67u2ZjcY5m/HVPAAE9f0cDRZ/ZoQwVek3R+abXpzCPpG2rLGtoanUDenXOpJVyrygaD+hkqyTe6j3oZfLJvou2ZcVcuz+per+7QSWoC9V9/lUR7mw9a9tTA3r5XYdAgg4Eh6bU6L4meqttrakwbS3t7y2+zziflcrVx6Vo/Wt9wuH/IoeQiAQvs1PU2vdyisb7lN3HTeuh6xbA4rdL5pdOmNS99Q61pQ2MTEHh80OeXrWevJly9GhnqNdzMadvj6ibwAiZlgEC911/xqz0jBux5vmeKOkIug9oXfOu/M37+FjualNmXVnheGHHi4UEnrI47ePD1Lqz2y5l6OdHarc9Rwb75+39axPK/eT2wP16ljTF4123QhogAhxlaSDq/dNq05qVvoMkYxE1KQMPR/4/ZxCpnzj6nAYF7rs0OHsL3V13+6n17FaE12bvycjklIQmFEjZQ/e4d6tCh9tUcZU+OgyZNGYxTEKjv+is9OZFl6TCYrEYIqfezM2PdTHmCf0z0V2vXl7MWY99aatBuxL4CLI07Ea7oPYtTvISjcApLDXM1FNt63rtxhekwhChe+GIMtLJBSXce4h9p/Qpb5X6i1aYzj6RvoHQMwuYi0Fmtc42r6pxTc/ob9Bg40qqnwffTDj3Cy7Lqx4emmuub29qYGvT+Na4c62Ilv/76PQeOGNhTv/+0Q+Ta7cn2oUPXndow8jt9g+/84x5tHtzFcd9zrt3qxF979PjtOtEz+5Tf9wY9rUYO7GHQ35PTE1U/2jW+u46BYY/vek899BDeAmyugef4qW/9ev40A2l+q8UL1kDfEH348BF/tP5t/5Tni/12ZqP0zTODtTdv99TEVSctmd3tq4cBTgN08DXAfdt13vEFTbZPsh8jbU1udcQ6uoZG7OoP+Adav5SG6LRpzUvfQOkXhE1N4N+3rMLCwrTr230XXTBb6DWI9Je65Qf/4pmXHj+8nfboz8l5i3498rz60uaF5X7xGffuZzyKmWeqhJW2/rAAKz16eOchobQQK5Gdn+1Y/cjjclbm3SUDeo716HsnKp4jr771VxQaO6wf2dO/2PfSo7TbDx//OTmfMI/QrbWugeU+f2a+KHp00DbrOvEIh6v5CNS3fn2oZgsGyZDjr7mZDqvDxj6YN9HKY+XXa7fO0OOpPbycofPrvsTEC3vtMvyH+h7nHmdRp/rxA1Gsaq62ctyNLr1fKkN02rTmpW+gcguyJieQs2+W89gxLj+syph06tTsHuTsuxtzLNfG2Vb+Ja5sL7/5flj3O/cz5JX+p/Q0Jurmi2ok37mzKkfJ1tmWQSop9SOUHpPRVtssDZlo0KGDikoH1NVubN87R84Rxaj6Ji5f40cNlhcx329o9zv3MtCj2wmv7H29TDog1MHEM9C3Z5NnDg4ECdT3/KujMhO9rjHEekuszLmX+viF8xb3CUweHn7OqEY6YPZvngOIrxe1V//mumZsTCJycxKMROjnb5Q6CX1+W17G+VybX3FrdNq05qVvEHcKkmYgYDD32OXZ3asfbXEY4rFm8N1VA3EF+6eoCF1fO8F5E89/dyeF6oFLzgWtnO05YIuy3YItQbP7/VNYhK6tnTBWQEmRc/r/jSJenXGvrnbOfZceiXsyW7fkrygFj8MDsfwlad5FwPxYheq8zCdIsGMzpA4uBAjUd/3VzagXupeeyrN0//Y1hml3A87HksMr1nbw9bNNWLQ6nrNK69KlK8rKyxfwy5D/urZx0OpmzEy5l8Fb4+Wn3Mw3MybM1+ZX3CCdNq156RvEnYKk2QjI95z5i8vbw+F/kU/P/3XpgoYGXb995zb3v4SluKx1MHBcdzHj0UW//7a6/n6h+n8aXdCwddf5OneuEEpiV9fhLlbpp+Me4c0jc5JDH6JdlTC/7gbP+J3bRE9CWP0Rvv4UA9hMgvrWL61h463SN22IJs6x2AURuw6jae4jyNP2klPz5t702Rjyx6blXbb6rLxF1CCmpX2N9rPtmyOYrmMG1Jqh1Rg3ZtS6zalE78p74WFXrLxdiMUcvV8qc7TadOaR9A1UfkHWXATkbV0mtf8r/DRxVmUycKTKha17eC9TvMvPfVFd/vhBJvFCaQftbgYK1W8q35sMHKHyV+ge4mifuEglqmC7OLoNf3R45rJjzPHDTEkFoueF0N1C5pGJ5TAlrvBd5on1YY+obIGsyQjUt34hPa/tO/rFT/xWUVlZycCneO7ZgGFE+WJF/+IdP27/CjsGw9R/o9+bNTM3E++FcbW7KqspK5ms6bDy7B9O3DdVo6fif52njfGiFJSyyBj/ZBWaTSTLGBZwYjZ7pZmSsrKiovUBk0P7vDgnaTR+aQDRadOal76BxjOIm4eA/OBJXjp3Ii5mISQ/cN7ehap7RnYzNO9rbtjVdMLuR+8rH24ZZWrYu5+5yeTTPYMWjVHiKX1HCLvrmLpgJcpIlYaOHVn07JmZjwunfBHmwwnz33U379fbUMeEMI/krRdsGl+yfkjP7oamE87beDtS2gJhUxFoI8m/jVNdXS0vT7HIxkFVvsx7LaeuwRR7AYIqYDarsOSjsrYq/016KiUhGW0PqfzSRklrXuqGH374ITc391RkZJ0pgUJTE8B/iYeFmBr4HJ57YcEbOdVvhd8IE1WSOCox8/iQv7y4DHUSdiCxPVCUnsCG4OCIiIi8vLz6nt/zXCqoaktejRhMDW3pYqXtIeKXqDdvxd+9aa/CKZZ0UdKal75BurxAuwkJdFDR4Jcu0o2YgEYmWUwU1uSVvv1Wss6g1bgEGlq/GjeaelsrTdq7Kpp4UVb46uezy8tCVAifgQAQaCUEWkn90hq1fNeoVjIkkAYQAAISEpCofsG/f18nTfzv35eXl493calTExSAABBoIIH8/Hx8u2EjEtUvSc74GxiQrHfHJb5Dhw74L0fJeiIQPxBo+QTevn0rRf1q+fl89gjbtm2roKBw5MiRzx4JBAAEWj2BwMDAAwcO4DTr/f5Xq0cECQIBINDSCUD9aukjBPEBASBARwDqFx0ZkAMBINDSCUD9aukjBPEBASBARwDqFx0ZkAMBINDSCUD9aukjBPEBASBARwDqFx0ZkAMBINDSCUD9aukjBPEBASBARwDqFx0ZkAMBINDSCUD9aukjBPEBASBARwDqFx0ZkAMBINDSCUD9aukjBPEBASBARwDqFx0ZkAMBINDSCUD9aukjBPEBASBARwDqFx0ZkAMBINDSCUD9aukjBPEBASBARwDqFx0ZkAMBINDSCUD9aukjBPEBASBAR0Ci+gW/v4MOH8iBABD4jAQkql/w+zs+4wiBayAABOgISFS/6DqDHAgAASDwGQlA/fqM8ME1EAACDSIA9atB+KAzEAACn5EA1K/PCB9cAwEg0CACUL8ahA86txQCyXt8Vp7PbynRyFAcsQt0fKLKZShgoVAbUL/YqTudv1Nuh1+uUNRzXn+9pA4E7GenfAeoKWL1Nu2UnQ/wp1rJJX+OuJ2yhe+pZ2y+GboG6fzSatOZR9I31JF5y2x+ssNBR/BaEIvjxJOZfw1w31YzqLG+ylahT4QzobRAmSybVVjIqhlZSp0GCgsTd59OfyNihBOh8a/xIr5ZMX7GOE8y5RZxsQuurh+t2a5viAhiupuGG7RE+QkOk/EQ/5pbLDt8Br7hOrT/r+rft1cDfUPTWwQKKYPA70bUebHZbDGdsvPTVRkWq+9WfPpUcXe1BYPhfKxMTKlGwFFfkpBf9elTVVnmw6dc5bSNFgxV90gsrsqPdFdF+gHJnE50DdL5pdWmM/9J+gYyXg8PDxsbm1oAtLimtCAz5LLvOe8qKMMj8ynKHRktvUrIHl9eIjiouMEsKE04CUoLlHni3sg9irKpsYRUAX4iItTX1xedm1mhVgx9fa2mDknS1NL2jtJQMhllqyWKmO6m4RuWKD+BYboX7ixwi1U8/jNgbDddVX2NbkZ2C048JGeAbFwBAQH4+YNjRZLES1G/yg45Iq0lN3m94/yYaGIkkX/2jZPn7hZz5FVPr3I/4BmDhodzxQIuby7RQo6HeIUvb4ctMlqdQrTTNdD6pcyDVpvOPK1f+gaOY9msX2I1RbAKEPD4NYuqPBA3hogFqtHHsoVWCFktPHny5IUU3lhX5CSd27Z8+bZzSTn4EUhcWO9GNp4y27Ztu/oUT6WylAtYvSr/dkRQ0LZzt4knH+8iOu8LWh60r0ZMFSBZv9xD8dyzCs2q6Z0coM/0DV0tEDxNMJ8qHsdtCwqKIH3jQM7h0IQDIaWcSPh5iKZSju+CmrzJPAU/fvp0J+rE4woyVuFHBN1NU5OJRPkJDRMx8XljVnw3fMGgbroa+hq6Gn1mhgsRrvHRIn/i16/67h/z87KQpXlv3mJPQ1cfZWRl4o8dXkS6W/ocJnaT6dsnOwQ9ZagjxEqKvWEx3FK98mUevl5W8rqxC7Pyjb43ZXI/a2npMdIzcvAn2gZav5TLTjptWvPSN1D6bQ3CylsJ1xh62l2kyoVi9Fk5N2PvFSNUfC82Nvbv/ArCXkm0V3djz4MVuroVBz0Ndb1iWFiYumPCSv9JfScfv3hqa1wuQkUXFnn/5NbX2v9M5oPjMwYZuJKTCl+xvhoDFx3JUdRFf/kPMhi5M5sjpvu/5shJVjdCDt7ltrMv7d2C5k63kePp0wUza+ZwE9fNDx6cm499Lw20M5++68F1HIj5bDJcfOGe+obOQbGZLzLPLB6mqzs1mhuhUCov3sT/OmLWUV6U8SGjfaJLOghEa+HkaqggHj3dTSOqWVd+Avrsp7eu5uvraXJF+S/Vf48/+GO1XcjdTbppD8sZoqZl4LMk5ZVi/SW6IxB4/BUfcmQwJ0Y+xn+YrU4hn5rEI0BVV1dJSaNrVw0lBkNjehS5FhN95vAfFbQNtfilyIROm9a89A1cr7K5/lJQ7cq9XPbnEZlgYAxikLp2VVVAGhOPZfIWPVTLGwKWmAWK0SfNCq7U8AKoZktHrDJsd2DvhBJvwvAmh75vLGfRLrhgrqqo4IWVstqIu36nCpCz/or6VHbMmcHbLBA/E6sx/lSjDYZpG8qZvYRv5sQT5AKwKtaXyUsF9xRY2BEGeacfIqkQKfJWgHinwvSNFVhL8qat6NSjvWkE5jk3iVrzI+1whgnfeh37BFwVPue5s9Zu/oXXFDdPSxbx11/8p1DjlVr1KSGbw3v+0CtK0z8hwpRf081/jj81Swc/Z9ipa7438w/zdQrs03hOwVJ9CIxcnxhsR3Zsr6LFNWAw52iMjw56Vxi3wdPDaGT5o/gZevS2xSzQjL6ghSeJ57M6fDq1yCeelOYUo7wXpeSPZpOdaiYMIbAcPgwv3/HV2+4VDNAAACAASURBVNwSnS8qQgiv1RkKcqysm5fvF75HL9LeoOdcMalHeTGdfafNmnjw0vL+wwqPhsY4zNmrh7Ap8qIPRnuEDSeYjkqdkLa5kSYxlRlddLRRGr+n2QQbHhyjEa5GizIKEOLMasFU9PAKcM7uyPTZCw0uRR5GUyKHSbrSkeymqS0/TpbcYXqVGv7rtMHdy+Lyt9jxQrD4Nc6Cy0IG/6hv/dI1NEJ/v8XraM7e70n2Y/R1b54xhf+p4fXxO2Ecr9hsziKZYWpkirKyiZE20DdEZeVv+YrPn2Yw5L/GH2kbavUrxp9OW0dqv7QBifmUJUF7pra2tkjAct+okEJtzz37M2MH7Il+MmN+d9qkKCxQjr6ggY8fPiDFntb29p05Unt7NTNjhPCEoL8YcvK8RvatALOhe9VmLJk7QI2+g1ALw9rZDY0JO7O6U0bIo2lhznjS8upXfYLh2CZ6Cl5t5eRQ9Uf8Tad4cdKbPNNxTuDJu/OszhxX9I3hPDIkiZ3qpqHoV0t+HG3uMGlrBx7feL+T19G4LXYOFHZkT1Tf86/uRuaMa0nJ3O+lWXcSkvVHWXOmOStmqW/8lD8v+6M1M4NTSQ0jYwtG1rM8rnZJWSnS0iKeqwxDc7P8q3d5RwO3bsQih6EDamuoxS8FfDpt6f3S9qDw2lpE7I/4Bu3YQfCopu7UKEYfoa/lBe9pYjZUKBuOceFf1t3E73laV3F7gl7POp4YPAt3t+vViVZPsIExbPpczTOh7gHE0ZfQ6qf+wRh0N2Xk5RbxXs0ouR2fom+oQ50Ic9Qk54LDpzefOd5p2rj+EoVMe9NQ9abPT1S7+gMbdejQTlQsq5/ru/5ijPDwkRvywyTd478MfHUxcMFF299DyIUzK+YXj9N2YY+HDVTe5bfbYfp2pzvzjdCQyaS2cfSy3gVHf/ZLsA3eTo6ikYuv7fJ5E+erbXFVub93VnCVTwzxcKRvoPVLOQC02lL7pY+U0rGMCLOTIiN5i4gufVwsdXHcZQ/iIyMfo4rsSzs37Kqaft6Vt7GkzEnEQo/HVKOPTPpaomUH/oj8oK/5/bj+WkO8/DsNIObOsokGKDP+0om3/Xf6WVPapxCqa2qWRB07N0lbo3DrnJUpyGAyhZKYqM/U+VYr5pzXD1ghcmpR72C4k8tRLXydm8qDDZ6+99xPHKA7EmE6/+jqMXZRGD4hE1PJSYq8W4RePCjjslczG0MWdLqbRiw3QkCbH6nNHabSh+FbghIs1nIPDSgNyZawbWBgYJ0R//vvv23bthVWk9O1m2T7zeMTm1YdSFF33nB4q5sBUQtfJEZe1Zu33ttUEcnpmvf6+nFSueaoXp052sk7lq8+V2D4Q+ixjeO7cion08LF5bvSmJ1Bmy6WDZp3aN8SSyWOH7oGGr80OdBq05lH0jeQrqOjo1+/fo1P8WkCaXnir9mVZSUFWfxLvucY8y7/Vr15VUQK88s6jw3av3t232/I0CteFcnp2Q/+jjs6pEzcgkVFEtXoIyUTS5N/Tm2KyNCxdrXUbS+nOWS6W9fMEyGrV+5Keqlo4DZpvIGKnKgL9uvSCpU+OCiRALoMGGnyMjJo8YE7quO3BgyvVjEah22K9iY7CZpgdlb/qsJ05sIJ+opCTXUHQ+Sp0JObvIBJOd2RUx3/9+L4psXBF1/38t6+P3B4F86spghGTrdd7uYj/83fttJKdNebdXFTRGJWqbxBHwP5UoyerW2DE0L4BiJuMYqbhsxN0vwEh6kYmfuFHV3tpF3fZQvf82f+ISEhISUl5aeffmqDv2WoM5bq6mp5ef75Q53qX6KCp6dnbm7ulStXvsTkIWcJCKSv72V81jvr+uxavg2RwAyoEATwquvAgQM5OTmyXoi5w5l/fuXv0eIHwP18dnnJ8JcrMFdbD4G7J3el2P7iCMWrcYe0ldQvNcvpv5n8K4amvYqYCARA4DMQYOt5xxfMU9f4DK5btctWUr8YTA1t3lv8n2u8Pn78iLfln8s7+JUBAtnPZCBIWQgRn9XgQy0cqUT1C35/hyRjWlFRYWtrK4km6AABINBAAu3aES+BSFS/JDnjb2A0raC7srIyPlBsBYlACkCghRPYtGnTqVOnJK1fLTyZlhMe/jc9Wk4wEAkQaK0E8FpBDv91B4Tq+/59awUDeQEBICA7BKB+yc5YQaRAAAgIE4D6BTMCCAABWSUA9UtWRw7iBgJAAOoXzAEgAARklQDUL1kdOYgbCAABqF8wB4AAEJBVAlC/ZHXkIG4gAASgfsEcAAJAQFYJQP2S1ZGDuIEAEID6BXMACAABWSUA9UtWRw7iBgJAAOoXzAEgAARklQDUL1kdOYgbCAABqF8wB4AAEJBVAlC/ZHXkIG4gAASgfsEcAAJAQFYJSFS/4N+/l9XhhbiBQKsmIFH9atUEIDkgAARklYBE9Qt+f4esDi/EDQRaNQGJ6lerJgDJAQEgIKsEoH7J6shB3EAACED9gjkABICArBKA+iWrIwdxNwKBypd5hSx2fQ01rDe1V2zzZSV1k5CUzSqUTFECWzKsItHv36bJj11w5+zRY5cyKzoP8Pae3FeTQaMnIGY/O7Xmj9Ruc36aYsrkiisz4g8cO/7ghaKB4zTvYcbMGisCLT6zRxsq8OxI55dWm848kr6h7sSl0KjMvRkTcZLA2stt0o92lHl7eroO0OED4RpnpV6Me/q2vd6gUebqQv5K7p2/lv2+Sx8XS12EcpIi7xZxmzsZDrESJE6KBRTaa1jY1PgR7In1On43ZLgpk84c69bO3SX2C52wx9pMRq+PVfee0Z83GXCvTSlmP3EEUvnjZpQTHbD2nvniFRy/hFAoEK4W/4/L/l0DjNMeLDQSacg/7+exp/eWM9NEG4T06HqLepHic/q2YcZHJ1NEJGojc/co47QVnw464QbJohW10LDPn8MnRcT1X3+VRHubD1r21MDevldh0CCDgSHpFOaFRezU4Am+YVErN1zg3UAo1lfd4qeLLxCqSN7iYtJ9dgyL24Wdut6ml1t0G0t7y2/ipvXQ9eK1SOeXTpvWvPQNdaYtlUJ++LheM84iU3vLLrcCh/QaszOb2/1JqJ2h89YHFQiVnPGzNLQR5110YdGEKVPGu4bdFfLIvrRi6PgpUybsSCXFqTsm+Kw7EYuv01umWnQWH7cahUOLh+mqW4XyBramgegdm/aPsLlD68Zhc+tTOcuZosSwRac4HgV9ipo8tSgskT8ZEMK9VvIFUvkjc2Nf+sMz6GCQ5x+XatZUQoEIgantw/u372qaE5cZGy9LrE39M7cJRdtMsXwOnxSp4Xcj6rzYbLaYTpwfk+F4qJgjLw4fjph+cWJKwoKsHbaqEyPD3ZFZUBqvpaKsrIr7c8pqI8SYfp7zKW+HLdJfcpPTVnXtFy1kuyOPaJLOL502rXnpGzjxenh42NjY1AFAkuaqsrIKrl5V5ESEJkZy+Yg2WGzMELGXFmSGJvr6Mpm+sTymWKPsmDPDytfXDLlHkfpRAvyJHgKDwbEnqJAValUzJoINfNd02oRprkdhn7WaFApIKn9EQFWxvkz9JUHCBIQC4YfN/YHvQoCuqA4Zfk0uAs119K4oLeUNpZBNgTkvIOdIKUeEoyVsrta0MIqyUv6NxXNC7ZdrvEIoVKru4lzEJHQZE/Hwp7VYr3oIAgICdHR0cMf6rr/SkxNZlg6DufsU9X52ZqybKU9wfUz0V2vXl7M2YN9aatBuxL4CTtUsOTzfH/2+ZnwnoSKqwORvGBnt29c03btxhekwpD9nM8kYaGWDku48xM20filKcy3adOaR9A2UjusvZDCZvH3hu/fvEVONx0eggdFekW6vLj/cZQoKDzvDW8ai7KOhMQ5zpupQRtReQRF9/XUtZwh6mnqIXf2BsrO4UONbTXGhqEQ6k6K9hT6L+GNfOBSu7TN5nrMbCj90QdJTrY/Fl/xNFdt16qTYTtMruoTrIHpqm17riYXni/DhbcYeQujQWPy3UDgiwRgoe7NuhTjrKbbT6G2k3kbR1P8Sxyg26bb7L+xLsVOndoqmv8bXbDVCbJTbYamS5uid9z6KpUxtTlCNHy0W5kT7Wii3U+neW1epHbZHLofZqTtHaypqmJioK2r68rc4hAXcc+r24+PUFBUV+4YQ9y/72WF3PUWV7n27qyjqOQt2V9bUVG6HIbRpo+gbS/aswYHPhXxNFdsoqqnh//G6YWvp63v1WhGxbbSmEsl3dHjdmzSx9GsV1Ld+PX+agTS/1eLZNtA3RB8+EOitf9s/5fliP7ztSd88M1h783ZPck6zYpYueL5kk4cebTQldxIeMhyGDiAVnmQ/RtqaNac4uoZGnNuI1i+lXTptWvPSN1D6bZCQ/SwxEl/bfQcveDhz31I7MWPsWzcS2PqjrLuLtRACux/nap7ZFZHPabx7MOTRNF/njkKqZQ/iOR7GrnizYM1kajtED/at20lIX6+mKnF74t7n7/FudfTxzau8vLz78X9M8o2yWDl3CGVYPKGYybyIQB/+FRiRRxWpRP5YZw5EGE4eZcQY5jKlQ8SBmhJeazwoffsRlf0leIWQsrLz4Ym+x/mVn9Ot87SLNesv8YMy6t7vVCfFlFS9Lih9lbLkq41LjhKFgbhO+C0nfVVcm/UuaNF+jjhxydAFr+cn4fXPq7Mjn8RT3OF05igTe4f6BaeVV5QWvH5+ZGDSvC1xeBjPrZn5enHq64KC169uLe3DO2zkdo9YuLXHyfyKshgPHYTurh3pVfjz/VeluaWvkrxyZs7ak43y9/80s2BWUklBQUlqiBXDfu/jMHth17iXy83xicQSrio/cuTDmePW8s8wUgLn/O15qxw3hPW5PCskhjLoegvrW78+VAs93xhy8rwQmA6rw8Y+mDfRymPl12u3ziALFvvWhrln3Tb6m9ItG1BJ9C8LLpqs/d2NA/fjB+Fnfls57iKB3i8VAjptWvPSN1C5bZjsXf4d4nDqVFxedcWDxFR+meBaZadu9gt+M33LvD40bvpMnW915dBZ4tyMfWnvFjR3+jAR7BVPE4kDrOtPK949PbE5intiJWCOU1OcLNRtNquvOizgidsTd457Qh5/EVdm6GRra0tbh4Vp064kLKQZY1qTAm7Ff5TCH+tiRIyFtwtx4G432VctJuKiSCUSt05KjJbvXWKOl7wM03m/jmXHXL5Jo0ctpuzNtJviyvnahWFqZIqS72dwO5ut3E/6Uhg4woHJFadev/jS8ee5pNh89safzcQc0ZoT0yTzcfIczPkqTd3QXJudnJaOGHgV/+jU8asFbMTQFFgVcPqrzQtePVhTgamKV/q3TodnDZ88glGCH0glygNHG934+yF6U16GcB54EjG+09Vjl/zzRsQx0YubAnYw4tdfbLOi4vh12H33wfE4IIbmUAdLMpzGvGrZO9TqpqMyE72u0WC9La/5oD5+4bzFfQKTh4ef43x9k71/SZjRmkQDTAWvxN6TD+xClroGb2uEz8xHT7ww4sTD+byve75REt5mvsUIyas2v+IB02nTmpe+QdxpQyVMO/9d5KKLnbrme7Mxvn1fnOZWdSzD30cMXY5W3t7mIPIUFfCq5+huO+ePg3dnz3sWFt5z/iNc6IQnjbZr4C7OV24lh526egWecRXwQBhS/M7a3r4zcvPd831vVd52lmio6Sngz3DJRbwwIaN1Wmyfv8WO6iklmcn09bcjjwqYltwf6/yxM/JvPq3zSSG658izL+M1qNsM/g5BwKjwj3JybbkC4iEs+WaZ04myN7vgryUTftz7WF5ZWe4dLvPjxJ2ra2pz75+cjHSk1JF+NPE8qNucgIPKe9umuC298lpZucPH18VIh2iyW5u04+cpTgZrOo1cfnDHwoFCX093UqpZnZfk56O4JXbWq3gGjdw6sg0s7bWWr5o/puMY9OeqCFVrDwORfIheAilo4WOEisr3YkkT8sa+6rv+6mbUC91L532/hO7fvsYw7c7Nq+TwirUdfP1sExatjidXaQUFpd+krBptTV4L/yIf2N4ncjm5sFND7Cw3aO25sdupBqtWN2Nmyr0M3hovP+VmvpkxYb42v+Js6LRpzUvfIO600SQM09GuRuzsPP73cyXRXn1+eOx9+RzdIofrWsvVx7lgy959B4ijr8n0W3aE1HtbGQp64Bro1MvOBV92wsWr9sQYpv4r3N/sCqXZt9XHZK0Ohf3lR4SfVTUyVuV20e3dh8ldg9ZqRKiR/bEaMZWFt9r16c06M9c5etDpwtcFubm5uymKl5BRdS0tVP1RaDcj7FQ6c3f/cPX/b3FaSSn2fXGJIdeUgqFrWPLrV8mL/1s39JdoemdEMKPDnuC+3CttnR0j7fLpTtM9O988fvzSN7OSHoo/n4hlgkAK+cUFDeAoOXFCs771S2vYeKv0TRvI8052QcSuw2ia+wjyuVtyat7cmz4bQ/7YtLzLVp+VtzAs69/TaojgAcUP7NyYmeSxC7GeWIZ+v3xsSjehp7bVGDdm1LrN5Nam8l542BUrztaA3i9hTfSi1aYzj6RvEPXZsM/sWwe3xeVWEkbYBac2bEpXtbbgPBaIReoPF0YcObda+PFJ5Y/p7DsNhfv+muz6ozP9k53NyooI2pCiP3YIb9lLZUtyGWOE+7QOZ0KP8t74kLxn/TQF/GWfPXTF7Oc9R3fxrpM75+rfOPaXBKGkbFiw7R4Gjvfl66KYbmOsxIPBp6+otAxPdfxFvEgrVe/SF/lsxf+RX8OUXL/Bf8aL2yUlvW1G82Z6Zca+ZRvI9aPgJZ05fEqFlDqp4puJ/ez2Dc5pIiv1TgYxpRR0e3RXZJcLvhoi4qv3kLGqvNsON1XmZuE9Z3lZWVFmqZqlvb29ScfXL8Xf9+XcNMEERWLWLl2WZOvlRN7eTX9J8uUl1fsT+LxzxygNBlJQUmIwlAYHXOO8SlEW5c5UnX6+jDBbFeenWvvX858yNlqIpGi/t4gTUnHsAhMFxFBSUsDcpxx6ynslgNovXRq02nTmP0nfQPhutPcn0vaO1eXt2BR0x+5I4eV9frrItkx1wVXhrIW+Ur+5RAup+sVxews0CdpR0LVbEMkny7VG+doC0SYSAefFC2Ht5AB9xHmxg/b9CaGYRX0Rvfgvhkjuj3jrxSo0S8g0EQoRosgU47/TQSpj/xNXk/MYXwomC2K5LwQJvWXy6VPaVktyTETeWaHrXRw1XQPfFBoaqrqjpjtqcV8KEspVEA+pTtxIChqjdqyeKHbLUJqj41uVshHHqqDaVVXVZKa7FRly3v6xSgpKGl01SA/8GcUFIPwCTfG1IIwDB4+1GQq6c/CtXBwzXUu1/yRv4po0SENBYwExrYTSKb4WMJioAxr4tEEQo/BbHqKjLTReUn3gvz+BJOlGWb84HStKnxeIvWgiiU3JdKrKCp5TvkQjnV86bVrzUjc0Wv0iuRDumxKrZPC/IC08QSinWQ0CPCS0GlS9sb40I1iXel3twmNFFRDdPUA5yliZDwQ/CTtOj+G/UUhfhJpx1vLrV33P73mrJgVVbcHz3cZeLzKYGtqUNkX84r8NVvL2XzHN9ira5PEzXZS05qVvEPPdEAHhnn7f1xDL0JeSAN0EqVHGQ8I7XBOzQNUb62uIKdIL6lKvq13YMlVAVDLaeASV1bpov929e0v8txMNUOa5bYtO93CbJXqCTxr6HLO2ofWLlkDzNpQm7V0VXSDms5/PLi/RDaqYEgiAABCgJ6A3++Ljrtt2HQ9bhXU6m29P3mxnSPUNM72FJmxpJfVLa9TyXaOaEBOYBgJfLgEFw9ELN45ukflLVL/g93fUOXYfP378559/TExM6tQEBSAABBpIoLS09N074m/YS1S/8BFfA/19Cd0Z8vLmfeheiv8SAECOQKCZCNy9ezc7m3g5RqL61UxBybKb//77j9Gu3coVK2Q5CYgdCMgGgQ3BwS9fvsSx1vf9VdlIE6IEAkCgNROA+tWaRxdyAwKtmwDUr9Y9vpAdEGjNBKB+tebRhdyAQOsmAPWrdY8vZAcEWjMBqF+teXQhNyDQuglA/Wrd4wvZAYHWTADqV2seXcgNCLRuAlC/Wvf4QnZAoDUTgPrVmkcXcgMCrZsA1K/WPb6QHRBozQSgfrXm0YXcgEDrJgD1q3WPL2QHBFozAahfrXl0ITcg0LoJQP1q3eML2QGB1kwA6ldrHl3IDQi0bgJQv1r3+EJ2QKA1E4D61ZpHF3IDAq2bgET1C35/R52TABDViQgUgECjE5CofsHv76iTOyCqExEoAIFGJyBR/Wp0r2AQCAABINBwAlC/Gs4QLAABIPB5CED9+jzcwSsQAAINJwD1q+EMwQIQAAKfh0AD6xebVZiXl/eyUvLgK19SqGNhXl4hiy1mhqZBSre06jTmEZK+QSx0EHxZBIoivPv5RBR9WUl/9mwbUL9Kor00lbR6W1tb6Kpojt6ZKl59xLJjx8/VVeuqZrU+nd/ETg2xUlTpZmltadRZxdT/UgmvhaYBi22UVXS/t7Y01VJUtAqpyy1dlDTmEZK+QSxNEDQdgYtzO3fpwv3PoL/nocfVTedLKstv/8kpyH75Vqo+oNxQAvWuX9k7J008a3ciqzQ3tzTrhN3tmbP2ZNcRDPvWSp/jbn4TBdTY8b8MXVy9/HZJQW5Bye3ljG0TV1wi6yBtQ2l+h1m3Sl6T+qsNkhZviavNK12UtOalb6jNPbQ1BYGevyUUFb0oyry9vtfNRdO3pDaFD7ApGwTqW7/yL524YvDTz07qRJrqTrO8tW7EJrHwz8l7fBYc5C6KWPHBPr9F8cpa+na/3Za7VwyRFyBzI+rwy7G/zjNlYBnD1HvecNa5hPtEO22D1qgZroYKhArD1MgUscve1PLIo42S1rz0DQLZwI/NSaCD1jjnYSj3+Quu0+qcK9sCPUaP8QjYfinzHSmsfnFzX6CHq+uswH23X3LUXj48sWGW65gJszYcf/CCXLulHPnlaMrLxFAPD48d18uzzq365eBd/qLu+cUg3Ep2xT3/mOU62nXWHye4PbGD7CvbAzxcJyzcd7PsI8cB/L85CdS3fhXmZSJzXD+4l4a2AXpeRGz+TYxVz/44NRhXMHZ8gNvqN70H6JE6JYeXLOv4e6ATUzA7VtFzlpm5IVG9iIvZpSszP5/YQdI21PSuzNgdfk51utfwjoIWhX+mi5LWvPQN9M6hpYkJvLx4/oq8VT9D0s2TXY7D/B/q+G0K8dO9u2DIj4eeI3Rrrb3nVa05a9ZM61P2ILUcofI4f7uxR947L98R4Px2/1j7lddxoSq+dSTcf+pPf5vY9EVVlVrfVJxbvv8Kt4A9Of/Hptx/Vcmets5Ez53LiZ7DyJ4vL/7s6Hmswmbqjz3TfnHf+KyJ8wXz4gTkxEUSSUry8wX1tL7V5H5k9F++y2+3w/TN3Z2P7hqw5fl4coXGiv5l7vPl12bgWvZQoF9REZ5lVjUCdU1t9Jr4SNuA27JDrfT9kgitPjOjVg8WKogCtokf6aKkNS99g4hH+Nj0BDK3uPXbL/e+rAD1/S1iu3tXwuP1QyG5E3ae9eiDV/cGGwMTeuy5mOWslvfqOytbUwM9eQN/C6xUdCjsmN5vN5cNw12MV6yeeX7cmWurBuKGTE2vO/vH4zJFXKPHt/8h4q9Vw52U0JPLpx8N93XsgnvuOKa39OZysufKVTPPj8c99Yr2RHb0uxDsgR/jo+17MgeMTeBYgP83G4H61q9aAmTYrdjtqj/WZalVaNYUsnqxb23wT/I9vNuoll6SN+nNufFpDmKzsq5vcBtlYbP27p35jWNY8hBA83MS0PUMOzzlfzmH5kw5kkEcWeDrScqt8vcFP1nFcebz+zLU0ahCcaLn7C0edt/HeC4K8BnXq7P8wzs3UHrGhH7byT4f3/xTbfX2DWqPK15fY27xwvKBI8a3n3L2SrnT2OK4M5kj5wxVwiu522TPvmE1Pd+8efzgDrLw4u5B5JU61fYkJfvB1egE6lu/DIzN0IVivAbTIkNKTb+HOll9ww2vKPtxtaoq89G1+yWz9XAFi9sTXPDP/9y6HyHa3/2D3pwdrpPw28WYmUbdTVFeAd4wcgoQO+NeClON2A/SNvABMJj6Q1Zv9T804MD59PlGNAWMLkotqf3WHRA/MvihiQm07cjU0DDQ+HXzwss2Kw56D/c3RXJff410PbcfmcKZjjiAdkwN1AEtjU+dmvzntoUuA/YvvHhB/2t5ZLfsTACx5CKvtoqq36ArouEOdPb43/izCeU9Ck8/G+Jni8sXkpPHPX87EyjUM/m6aE/43NwE6nv+ZWRhzUyKucp92yH7Wky61fhhnMmTvdNv8YflV26t7RXluzSGeEAO+SPraWpSIudaPxIZzDmauHuiDm4xt7JlxcTd4rx6wU6Mi2W6jSH3k7QNlaya18RKMtNKUSclXtkUZ0cbJa156RvEvYKkeQh0H/VD39w9RxPxSZR+zz5KOY8L5TX4l0oHThAdtCwmrgtbYJByLul5j159UVpOsSpf6VslwS+T+FH3cZjUJe7sliOHMx1dRxLlC1H2JITJ97ln/S8zUwuaJ23wIkCgvusvZDdjmUkfr8EOz6bZFJ/bciR3ZsRk8qA+e6fXvDz/hHlGeoytK8OMPQIm52+xY2po8xfXzPZI7hsVbQ1SoOX68/Rloxxt/vnZ+dsbh4Pjeqz7exh5mk/X8PaCr9b0zCGu5uqoIiPm9G2ToNse/Geu+MjSRUlnntYvfYO4U5A0E4Gu46aNXDHvwF+LrZ0GegcMGOLvPCXHy80QZcScP68258qkNMdZj0f4jFApOByWaeZn2bWL7k8zQn7wGP/Kd8pglVd3/jqbabfzyFSKYE2Hje8SHLxb6cfjtpwC12XivBkbp3iMK/N1t1b5J5nouevwVMeZk4LcPcaxfUf+c2pLpnwt85DCB4gag0AbSf7hl+rqanm8fYIBOgAAIABJREFUgBa92AV3Lp89F52pMGyCq8MAHfKlBlbqxbjXemOsuxFViP0s8c8UuT4ulroCXXOSIp8qDhluyi9olRnxJ8+eS6o0cJswycqYyfsyEr8ET9nAZqXdiI45l1T8reVoByehDqIBkp+poiQbqM3XqwGhH374ITc391RkJGUMIGw0AnnJ57IVBtn0IJdFqDrnVuxzJe7Hd5nX/4y9lFyqZjHwe0tLC60O7/LvJsVduZDbYfBY5+H4/Ivs8eJB4sXLF9OQkU3//oP6GSrJ590hLfbkWOQG+vLh5b+fK5uOttDmR87peSEdGQ/m9iStXTwddRf1GTtueKeCWHE7jZY3GBIksCE4OCIi4tGT7IbUL0BaQwDqF8wGINBsBDj1a9Xu6/XePzZbqBI5erLDYfi6R2Kq43blbrQXk4IACAABWSfw1dcdYpNLW0n96j4zJnemrI8IxA8EgICkBBQ1LCrf/9tK6pekSTeZHv7379lVVRcuXGgyD2AYCAABLoHMzExlAxczfSWJ6hf8coo6J85XX31VxWZ7TptWpyYoAAEg0EACqgaDzBx1nQd1lqh+SfIdZQMDkvXubdu2VVVVffXqlawnAvEDgZZPICgoKPry72bBFySqXy0/nxYSYadOnVpIJBAGEGjFBNq3b88ue4ITrO/7962YDaQGBICAjBCA+iUjAwVhAgEgIEYA6pcYEhAAASAgIwSgfsnIQEGYQAAIiBGA+iWGBARAAAjICAGoXzIyUBAmEAACYgSgfokhAQEQAAIyQgDql4wMFIQJBICAGAGoX2JIQAAEgICMEID6JSMDBWECASAgRgDqlxgSEAABICAjBKB+ychAQZhAAAiIEYD6JYYEBEAACMgIAahfMjJQECYQAAJiBKB+iSEBARAAAjJCAOqXjAwUhAkEgIAYAahfYkhAAASAgIwQkKh+wb9/LyOjCWECgS+LgET168tCAtkCASAgIwQkql/w+ztkZDQhTCDwZRGQqH59WUggWyAABGSEANQvGRkoCBMIAAExAlC/xJCAAAgAARkhAPVLRgYKwmwKApUv8wpZ7Ea13AQmGzW+1mWsIb+/ll1w5+zRY5cyKzoP8Pae3FeTUTca9rNTa/5I7TbnpymmTJ52ZUb8gWPHH7xQNHD0mT3aUIFvha5BOr+02nTmkfQNdScOGtITyEmKvFvE6dZew8JmgE7N1KjbWPLWIYsKl0aus+PPM6o+l/27BhinPVhoRNVYP1kTmKxfIF9Er/qvv0qivc0HLXtqYG/fqzBokMHAkPQ6gbFTgyf4hkWt3HCBOy0RYqeut+nlFt3G0t7ym7hpPXS9YlgcM7QN0vml06Y1L31DnWmDQv0IpO6Y4LPuRCy+Di0epqtuFVr3DBNwVPnuXf3cQi9ZIoDfjajzYrPZYjpxfkyG46Fijrw4fDhi+sWJKQkLsnbYqk6MDHdHZkFp3Ja8HbZIf8nNKvJj1bVftJDtjjziZ9oG6fzSadOal76Bk4mHh4eNjY1wvvCpYQSiBGZKVqgVYkw/L2iwqqy0jDNxBKUVFRW1eK0qKxNq5ruoKKOw9elTRWmpuLmqigpBvyJxCEZNRiLqs5bwoElCAgEBATo6Oli5vuuv9ORElqXDYHVOqVbvZ2fGupnyBH9K9Fdr15ezFmPfWmrQbsS+Ao5OyeH5/uj3NeM7CVb3ezeuMB2G9OfsPBkDrWxQ0p2HhAJdA61fymcGrTadeVq/9A2UjkHYyAT0NPUQu/oDxyr72WF3PUWV7n27qyjqOe9MJQ6woqe2mbr9+Dg1RUXFviF4Iqav79VmajQ3Ctzotvsvf1PFdp06KbbT9IouqQnvY/El3KDYqVM7RdNf47mrf4RKrgfaKCtq9O6toahs4X+J6IBN9lp6OLCvkqKiklcMFuRE+1oot1Pp3ltXqZ3maE4cQnmXEKaJdkVFKVePjYyv1Zqrb/16/jQDaX6rxeNioG+IPnz4iD9a/7Z/yvPFfjuzUfrmmcHam7d7ahJKrJilC54v2eShJ0TySfZjpK3JLYK4RdfQiDNJaRto/VKOEJ02rXnpGyj9grCRCbBv3U5C+nrkVEJ31470Kvz5/qvS3NJXSV45M2ftySblEQu39jiZX1EW46Ej7v6E33KV3flVn6qebvzu8ETf4/xClb79iMr+ErzUujbrXdCi/cQzGE/X475DDxtFZr0uKHidtddg38QVl8hT/ozgX1NnPaioyF87GH96h/oFp5VXlBa8fn5kYNK8LXEiblP3zt838AwRZ0XJibFdxIMCSUMJ1Ld+fagW+taGISfPi4TpsDps7IN5E608Vn69dusMsmCxb22Ye9Zto7+pyBH/xw/cJyq3c1s57vcJtA30fqlI0GnTmpe+gcotyBqLQF5EoI+Pj5OFus1m9VWH5/Uh7N46HZ41fPIIRkleXl6J8sDRRjf+JpfsSG1e8OrBmgpMVSbFN0lGy/cu+R43MLpNnz2WHXP5Ji9Es5X7l5jjbwYUBo5wYCbfzyDkrPPHzmiPH/8dG7vIY/cdMYSVdD+TaGAPX7fX01BBQVWV+C7ByMlzMOdbK3VDc212cprIAR1TRY0Veyg6oxJb19Ss9YsEXjTwp3QE6vv9Y0dlJnpd44r1trzmg/r4hfMW9wlMHh5+jvO9Tvb+JWFGaxIN8IzDc+M9+vjmFf7aWl2D+Y2S0G4SvS0v45ihbajNr3jmdNq05qVvEHcKksYjoPidtb19Z+Tmu+f73mTJwFdJfj6KW2JnvYrnxsitIxu9RaiTUkd6z3JybbmNxLOWvxUV7KCuqc2d00VFz1He1anWJ3i3R9feI9uTqkodBcpQ5b1tU9yWXnmtrNzh4+tipCPqXcvjYEK5n6eFio+h595jm8Z3o6iron3gs1QE6rv+6mbUC91LT+X5un/7GsO0uwHnY8nhFWs7+PrZJixaHU+u0goKSr9JWTXamrwW/oUyQydbe5/IRUirmzEz5V4GbymXn3Iz38yYsELbUJtf8cTptGnNS98g7hQkjUegUy87F3zZ8YsXNq2upYVGhz3J5V9p6+ykKQzsj9WIqVxLqUOoS5euyGBhTI2L3DPThE8+iBTv/uHq/9/itJJSrHdxiSFF1gzNwQvPZL/KjLa76TJhs1Rfn1JYA5E4gfrWL61h463SN20gD0LZBRG7DqNp7iPIWVRyat7cmz4bQ/7YtLzLVp+Vt3Bxsv49rWYq7B6HDJdczI2Z2R0rW41xY0at20yewFbeCw+7YuXtQq7Z6Bro/YrnhssgXZR05mn90jdQ+QVZExLoPWSsKm/OENMmN6tA6CyD2nXKhgXb7uGNHDt187ooptsYK2o1jpRp6WCbyZ3dWMJmZeUKnPjzepYUFCClTqp41rOf3b6BtxaiV869O0RoDE3DHt+isnK8RISrsQlI8oUl1fsTn6pSdozSYCAFJSUGQ2lwwDXOqxRlUe5M1enny8gvjuP8VAXeleB6Evl+uTh2gYkCYigpKSAF3SmHnvK/maZroPZLlwatNp35T9I3EL7h/Qm6Eai/XOxNBJ6p4mtBeOoxlDS6aigxFHTnENNNVDktyAy5R9XMOaOJfsR0xZeCyYJY7ns/wr0Eu1Q9jZyJ56WCateuqgp4fm/Fb/wImcSWq1I2WpIqqqomM92tkMXGDCwVCOTqb7r4qIywIOiz/kCgJ48A//2JNlhSZ0msrq6Wl+cf0Aup478t8VoOn2RJs4AX98dmFZZ8VNbmnXDUKNA2SOeXTpvWvNQNnp6eeIl55coV8eRA0jQE8KC+QioUk0bcHX5/gnzNXudl3rsOEvXg2CCmwbsOtU5vHEWtJmlnkniUIJGYQGBg4IEDB3Jycup7fs/zpKCqLc3f6qAJkMHU0KZsom0Q8UvMkrf/iploz53edFHSmpe+Qcw3CJqYAN2g1uJW2i7ENKjja8O6TNLOpFrChCaJCTS0fknsqGkVS5P2roouEPPRz2eXl4WYFARfGgENa+9xnb/50rL+EvJtJfVLa9TyXaO+hPGCHOtDwMJrFzzG6gOuxfeRqH7B7++QZBxfv36tq6sriSboAAEg0BAC+F778OFDSma5RPVLkjP+hkTTOvq2a9fuxx9/bB25QBZAoCUTSEhISEtL++PEM4nqV0vOpOXEhusX/lqk5cQDkQCB1koA32jPnz+3Mlap7/urrRUM5AUEgICMEHC314L6JSNjBWECASAgTECxvRzUL5gUQAAIyCoBqF+yOnIQNxAAAlC/YA4AASAgqwSgfsnqyEHcQAAIQP2COQAEgICsEoD6JasjB3EDASAA9QvmABAAArJKAOqXrI4cxA0EgADUL5gDQAAIyCoBqF+yOnIQNxAAAlC/YA4AASAgqwSgfsnqyEHcQAAIQP2COQAEgICsEoD6JasjB3EDASAA9QvmABAAArJKAOqXrI4cxA0EgIBE9Qt+fwdMFCAABFogAYnqF/z+jhY4chASEAACEtUvwAQEgAAQaIEEoH61wEGBkIAAEJCIANQviTCBEhAAAi2QANSvFjgoEBIQAAISEWhg/WKzCvPy8l5WSuSr8iXWLWSxxZRpGxBdi1R+Ea02nXlav/QNYkl9HgFtqrQNjRwnLVI6PzgwqjlBpy4qj12g47DjiagUocrcmzcz6pyXdL3F7UksyT8wQWfCgfy69Z/scNBZEMvRY7PSbt4pEL8z6rZSf43P4bP+0dL0bED9Kon20lTS6m1tbaGrojl6Z2pt9HOifU0VFdW6du2q2UlFzze6hBcObQNip4ZYKap0s7S2NOqsYup/id9FGr8I0WnTmpe+gQZtc4tx4DbKKrrfW1uaaikqWoXwB4R1K2S0plInTUxfTUXZpqaBH2H6+l74HZl2446zhIPO3mnXDjdMjSbF0VPxz9xLUc9ZbMS5AVgQI6ak6R7JuYdr78W+NF9fU1N//qWa2SNZMLxA3//zvOjNR3HWl5dbWrrv4hY29rPEyMRnFBOUrre4PYklb0qePX9W8qZu/Y9vip7/856jl7l7iuWgwLi6OzWixufw2Yjhc03hdyPqvNhstphO1g5bhqp7VDHRUBzlroqsQrPElPiCO0eD/nxcgT9W5Z+YyERaS25ym+gaquL8VBkWQSlVRJ+UIAsG0zeW+PmTdH7ptGnNS9/AScTDw8PGxoYeQDO05J3bcYJkjIGtNkOM6ee5TnFD+O18gl7F3UAzhBwPlYmEkxZkhqysrETHMDlAn2llZYTco0j9KHdkFpRGOiBH0XZHnqCdvB22SH/JTXKUqvIT/rrJ8VLTqyLnMO6lH5Bc06sqyp1hZmvLZLhHkf2IS7JgeNo15muskj9VlJaSMIiLMMkNnSfi/EnbW1hNmk+0vkSNEIpcshhYWWkZn4CoZhN9/hw+GymVgIAAHR0dbKy+66/8SyeuGPz0s5M6UQbVnWZ5a92ITSKe3sl7fBYc5D76WfHBPr9FZWOpxaSFow0V8A8Mzb7WPVF+Pm81RddwI+rwy7G/zjNlEH1MvecNZ51LuI9/pvXLLcfCf9Bq05lH0jdQOv4cQq1RM1xJxhiYkSlil715ywkDN3j21SRIKphbWXVEz4uKKOLTmznT8UbIwbv8JvalvVvQ3DmOcuLKDM1R44agsnKhVUbpizxkYKBL+MHDPHhEf6ZIRwWdHyaNRlnZBXw568yBCAvvPb9N6RBx4Izg2k+aYLA1dkZEwOQhQ5wWbLvOm1j5CWFLjyUTnrKjlwVG5KG8iEAfH589pEj4ouiN2AV39gX4OA0Y4OQTEMHdh+afX7nyfHbB1W0zSFdXBfZ77GcX1i9wGjJkxrar/1AsBlFlxrn1CyYPGTBksnA/fiAPTy3depm36aTSZmO/hAdsgJ8j2RvfcHuSSy4FOTk5BcdzGJbc24dxYGcB+3ib0kpMCKfPu0hNIZ94x02ocDLmd8M3HH3Sohw/x+f61q/CvExkju8S7qWhbcC9LUyMVc/+ODUYVzB2fIDb6je9B+gJ51VSmIfMjA3EkxVsYBU9Z5mZG5L3Ar6YXboyOTWP1q+4PSyh06Y1L30Dpd/PK6zM2B1+TnW61/COYnGwigveMky7U9BHqOOoSc4FW/bydnKsM2HhPedPNRGzgQWVGXt3/KlqbSFkx9jaQfWi72CviDSKI07SSkn0qQsMWyu+SdbFiBiLSSP17Cb7qsVEXBQsYFIEgzJW2rnGqo/zdde75j90dEg66etN+undiYXETwpa/a2/U0SK31nb29v3VCFbBS7K3k+2T5l+W93p133bvRVipvZyJzfW2OSmGdbWa14O8HXvnb7CZvRmjiucl7fV2PA3w319ze7PGLUyQ9QFivnZYcc7U68N+1YNzF1hY7O25iHBUy1M3H06nfs4oNJOXGLuHKvz67ZtfgNe3rkrSAr3DPUa7Xmt93Ar9L4CIVaMl4n1nneTN5zYMPnN9kHmv8SzUfbOMb3mPBzg+5vv0Kr43Qn/9umr1QHfHQI+cS/dXssLe7n7+zt3ubtskPnsGI4T2qTFkvw8AkkWdBT7R7zwrln8YhsCC3HuFixytRnD8RC5vxS4ig85MijEeA8q1CC6COevtWvxS5EJnTateekbuF5bwP4R7623WnInUZ+ZUQ/5uyc+mKqbS/T5WzxBXFy8VbG+TP4+PdSK4XysjNx61ewfa+ao+vD1CeSeVODCu8agURoMxFDqMzPyKbcRjwFDSQOfvakqIFX7oGs1M6LskCNvx4p3qvxtrWTB8Nxi88yJkVyjWaFWvLMJod2Z6LDyY6brLZgVoeMXhyWEFavN3LxSVhvxNtDkxpm3K6669osW9V6VY5Mwwtl4C0UocP8I+uZpvznmjKxCnlDtMAm+AvcZEUzNUc7NJVrEOYKAdeHx5G2qhVL4RObAPR2gS1owyub/ucH7x1qKLcNuxW7XrEUuSxWDQ6aQ+0vexU5dP9rrpuuJXcJivP6na6jFDTSJEdCbcwNPpaqyzMvDkyda2HBXIjw1vEpwDGYGnV7en7esFTXAGDbVVzE8jNjJ3T0Y8miar7PoFpB3/lX2cG2HP8QWEnjXuPBcwavHBydVH3Kx4j3BETKYczQx8cKxeRZv7qe94jvNjwg/azGqnxz+UjpPte9I9bM7jhJHDbyr7mB4mtrmhtxppqepJ3A2IZoe9Wea3pUZ8ds5O67QJMR6zd2KI72u3Tj0TI3MeRvoh3eSkGXvPhzzDOb/Ook7wtvRk+sXELs3YisrsvEWUxfX7jh8zqI3v5nqW/sLbO34/QytevPvs3s3rqAHK+zw6RBxuWwrZZeVlzNVVfPuZRBb65KMe3lMZbGFOdGLnwJiDLSyQaWv+Ks8qqTFgv48gvruHw2MzVBBMf9b4tT0e6iT0jfcHIqyH1erqjIfXbvP/9IQ16hnhycNXSm/9vJuzqEZP1+qBqPupiivgN+bnXEvhUO9Vr9iCOm0ac1L3yDm87MLGEz9Iau3+qslHzjP3d8Q8/b60tE/xDueOLeQPFKku/qPm6Z5JvToU/Loa/owOlUG09gz8CejrKi4Gg98kwqGrmFXdzi+3Hs8kSuT+0ZFW9twyOr9K7sc8g/jbp6yzx66gpKX9MMrM3yNDi1BN479JVjAkITB0OXSEPnd1X0tZt3T8Vzw22+//dC7IZaIvqxTPxqO2vPOzhdb8xvRpQ5zlNpMu3WpJRknPd+F2BoMFHkwCdn7Wp6BRq5P5F5JqU8L9o5TUlHvUh3vq6+oqNh1evHcs0vt6giB/bEaycm1rUOrJTTXt34ZWVgzk2KucitM9rWYdKvxw7TIjLJ3+i3+sPzKrbW9onyXcnfR5BGBV/7PSfHzRe4fmgZzK1tWTNwtzlfe7MS4WKbbGCtsvBa/FDhptenMI+kbKNx+HlElq+bcqSQzrbTmgUIsb4fu7nHk7h6RR4d4oH2mzre6ETJ2HnH0xV1RiCsRkpJnqUUMPe2am5FdkFtzoF39gY3EH/NGLt5WWdwTtuy/jt0Q+soabyFv7I4UqocSBpN3L53jmX3rdhKytTIXi/gbJYo1EVeLqnd63MnHAxet9hxgqK2t3rGu+9ikryVKus2dq8QCR9R/YvQJRY9lgaN7a2trK+ODp9ovWm0FnQGeYceWGyZHXhGq80LmiGDuPytSx644lwaTkX7+aJnPyZwKfFW9TggcKLQpInvjaV+TAio5dzKWadmb8pS09tibvZXiyyXJYrCbscykj9dgh2fTbIrPbTmSOzNiMnlQn73Ta16ef8I8Iz3G1pVhxh4Bk/O32JWGT5146Ks+UzJD/Xw45ru7BfnbMVE+XYOW68/Tl41ytPnnZ+dvbxwOjuux7m/OaoDOL3XUdNq05qVvoHbc/NK3F3y1pmcOcTVXRxUZMadvmwTd9uA8UBKXDF30RG+U0fllPufJuBRt522cZEQdot7kOc7+k85YhI4U+d6FVCe+xMtkooqshJgbRUZrkwQ2mKWxM7rNfWblOFRfkfCf4X7igNhjnjTuEXZm9TCTyN03rLwPCvjoM8HHbMX/2zsXuJiyP4Bfu7ZBkckmelJRRFGxKlKRSCIlr/JKEWLJY5ddYr1CrGeESJ7JVijPsCH+FIoUeqlEHo2IbdKu/7n3znvurZlempnf/exnzT3nd36P77nz69xz75wTdjJ18Ri+Y9U7w5XTzdnYo88Rz37KD2OPffCJ9ySjFgxPx9LWIG3T9AnZna28jgbYCkVO1drQ0lZ9efDcDc2GYec2r41nYKOpYZGl3GumYqHb68NrsxidRIV72ti//31RYKdAg5yQTXvyseoTA5V0xgab8Q9HLhjZPn/vpizLX+2p+objzJTfFvzhjH9xZji2f50cE5U1LCrBbXYXCzuVLYQEmpycuv/Yn+6c+2BeCDP/GD24T8HyBVYl4Wt3ZrmceEg7+hYN71ueN0MTJjXar6ysVFJSEhNDt+mXT5+Ny1Z2HOPpbNWJeHTPSr+Q+F5/hC1BB702eCatuYWHtSb+4bWgAk1U2pkjQVWBy6IpiJOnzyZ/Mhw3ZrxNDybvZobKrphzvAJaaTr1tHbpKzBs6tSp+fn5V69epXekwWvQC9U34xLOJr/qYO3iPJJPrORe/PVczouShBOtuw5yMhWc2sJ7rbwr0SMiXUh0KKdKUI+a8SDBLiHUcu1/Mhw51NmOc0FgecnRT1V49vBLIrftIKfWmYKlRHMM18/q7GRelSyBM2QTDFf/suMI3bdH9+7N1xg3frID+QqJoN+Eb0V3j+499qaH1+QxKMHzDrrWuPzpo8duYVbjJ9gyMlKqeg031xCiJByXgLjrjwVnBAImTaFrLeLY8RLcwc6l5wrV8S+IkDohShTSVfm3riWcx79r4ye4ki/DcIIQ5ksUci75B1ivIQNtUT89XNp+1IvQzOPueOSf/l7QzenD7op9ziIt0S8WEqJOXsKvHtcxXIwiHCmM8WE24qegoKCIiIi8vLy65K9G9LfJm2oK+avJQwIHvwmBwj0OuhutbmWswR/csIuiJpvO0Yp9HSI8DP0mntXaKC9/1fr+sdamG6Qh+i2Z0/rHYqpHh+VvHiJWCgVAQJEI6Hiu3Xx+wmDVnW07qJS/LW/vuOb8KllOXoJ9Jyf5y2hmQv5MRbomIVYgIDEBZr/5MbnzJRaXJUE5yV/fHPl///33+fPnsD17vrkn4AAQkHsC91JT0dcNhSlR/oL9O2q8INBjkE+fPs2YCYPAGlGBABCoBwIMBv5AT6L8JckzynrwSJZV/Pvvv6qqqi8pfxkty3GB70CgCRLYFBISFRWFHKvt+6tNMCZwCQgAAQUjAPlLwTocwgUCckQA8pccdSaEAgQUjADkLwXrcAgXCMgRAchfctSZEAoQUDACkL8UrMMhXCAgRwQgf8lRZ0IoQEDBCED+UrAOh3CBgBwRgPwlR50JoQABBSMA+UvBOhzCBQJyRADylxx1JoQCBBSMAOQvBetwCBcIyBEByF9y1JkQChBQMAKQvxSswyFcICBHBCB/yVFnQihAQMEIQP5SsA6HcIGAHBGA/CVHnQmhAAEFIwD5S8E6HMIFAnJEQKL8Bevf19jj330nEcka9YAAEAACkhOAb53krEASCACBpkVAovwF+3fU2Glo/7QaZUAACACB+iUgUf6qX5OgDQgAASBQLwQgf9ULRlACBIDANyAA+esbQAeTQAAI1AsByF/1ghGUAAGcwOd3L97h29rD0UgEJNp/u5F8ATNAQCICBXfPppdwJNsaDuhrrKokUbsGF3pyYKx9zOirl2cZNbgpMEAQgPwFF4LMEcg85LfoqYtLT1Xs7cMzV+d0Xnwubna3JpLCZA6mbDsM94+y3X+K6r2Wa+DGTRs3Hjx/IcgsbcO+64IcKsvelVUKg/lcJlpCIYSaVH7+LNJSHDBlS3ED4g2hpP4JQP6qf6agsREJdGzfkW+tMu/UnH6G3foPs+lu+NO0yMcoF1VmRk4yNzC3tzM17P1LYhmSRUIB/Qy69x/av7tBv2mRmXjCerJr8OD1pzYN62pg2DUw8fHWgZquB55z9FYm/dKt22838Ja5pwJ+MuxuM6x/N8N+U8mWWOXjMHejTobG3br2nhT58N9GDB1MYRjkL7gKZJHAvx9ZL168eHRjl/+S82aLpw8gYkjfNjHw1cxLmQ/vPHp8ZkLBkl+OPK+8tHVxWcCVrHv3sx4nzDNVRULbJy5AQo8f3n2ICy1GQkTjZ7vXPJ5yOSc7dalV91FT+tyNvUKWV94+F4uNcuxLtAx85X/p8aM7DzPPTCjE1WPY7XWeQWV+Z7JfFj8+ZJ9z44kswpRhnyF/yXDnKbDreQdmuY0a4TFxddb4U6c4k1+pCcfy7dzsld6gzPamzU+ORnfvZymp/qj6NCH21stKTKljR3UMw4Xs3ewZhJBqX1wok+BYabdsy1jDVq3atWuF6TmM6nP3yFk8GVXeQunLffhAJaIlX33fwUZ372Vhj+9cezfEf3rPVhjWqufUIP+d48CHAAAgAElEQVTuCtwn3yJ0mL//FtTBZl0JGM49dnm2UeXjbc6DpqwdmLq6P5q+f1tcjN1YN8btT65yo5HKlf2Xng1eNXuq1ba2Dgu2Bc/u+/ZFMXZ93ZhRAkIq5JRXGxU0OuMceg5ufZYdSXwyu3PJuVjlKYf7o/I3hHoPAfWjlCsLsp9ggg3rGhe0l44A5C/peIF0UyKg1H3mIo/NM8LPLeo/UhX7UVMTG7zqxu7hwo8iDV3XX3Bdnn1klovnHwZPJ2tpYo4rRYXEbvv0nDxslkYkPu5RGMscH2WBB62Oq195U1h96g1NLL8KJUB4/PlNLgy4f/wm2MFoPRFQsvcY3/Jc+F/4XFXP/sPand++j5iQR8fnwvyXlWWZD7LxF0pb6XYxVK788Omfnv2Htju3Yx8+tc8TIj8K/1/TdZzT48Mzfz/GdHc0Jarwlud37BVSj/W0dlTlFH7OPrEh9DGVLihrMAKQvxoMLShuDAJKA8dP73Q36kIOGgL1n7d/sfq+YV2MzfuYG+uZjtn7+J9PD7cNNzXu3de854S/ugcvGaHKFeqKFxp1MvVAQpR+qg4eNaz42TMzPw8yfeHqw3H1XY3M+/Y27tQTV48p2S74071kw6DuRsamY+LtfF0pdUFhQxFoJsnaOJWVlUpKMECurg8mTpyYn59/Kjq6OiGoaxQC6Ec8LIyphebhOQcq+NBcvYPQW/piQhK7RtGysuxVKaYmbEBifSAoPYFNISFRUVEFBQUw/yU9PGjRtAm0aqfFS12Ep2IFNGWShUWhTUm1QwfJGoNU/RKA+8f65QnagAAQaDwCkL8ajzVYAgJAoH4JSHT/CPt31Agd7d9RVlZmZGxcoyQIAAEgUEcCbDab3DFHovwlyRx/HR2S9eaIZps2bZYtWybrgYD/QKDpE7h06dKDBw+QnxLlr6Yfzzf3EOUvBoOxePHib+4JOAAE5J7A58+fs7OzUZgw/yX3fQ0BAgG5JQD5S267FgIDAnJPAPKX3HcxBAgE5JYA5C+57VoIDAjIPQHIX3LfxY0f4JPdzp14h9XIFVFZn0SdYJ0ap9JMZdwpFqfi4gJ+C96nBRc5talrurdo0X1NqqgWzjk7/ZC3ZdsW6DUflfZW/nF5RLGgRivvnTe4G37QqyRbuIXnipjJ2OGIXHLezVuk4lNWlL+pSovpCVT+lFxaMagr15nASzyz7KK/N7hxKvQHreBXYBf929rs4CgviZuu3cJqO/o1Z80hUFlXtDLIX4rW440Qb9WH4ud9gpLw4/wxP82Yad06T4oTyh+FUTtPdDDocGJnVCHpj82vhHjSIS+V5ypeh8iTX23IyisRIeXa2rkhEVconU9dN3rywxEXXlZ8Lc+7ML9VAanyn7dcRTE7+mUFDh6/RzAvUalELf5r3vzc2kNCeZJ9aefyvObNnxd/qMKts678Yqo1+FDud5/YlV8o3HkSc+T1jL/yyr5WFEYMzdk8dg3X5/yzBx4ODr399Pnze9t7PVw1YlEcm9P8n09lnz4TykviFvke11u3x8+AqOKHcH6/AwrB/zg33VMYVswiyF+K2e8NHnVLpi5+GFtNDb2bvEYzcurKS9zvK4blno5Mdlt92M/sauRpMqsoqxPiuu3aNMeat2lHnqgr426yL0UfVpt2OMTz8+FoAR28CMqepueYeLr9xGRgyuq9PUMCbLlVHEW9Xdb/Mop99eZDXhNalWrT5k8r3bZfwAwrJjS8+/z51ty25Vif7Y9yzs7iLEohxtFo5sFQzx7IF4a2u/tQjFVUgq+5jw5UETl7kDGKrPdUf4/W7PQn+PN/gYOdvsFlYubC5CvzTRm8Yk4IxoMWznNi5xYUCzeBM8hfcA00NAGGqbe/Pev4mZtcQ7nnjqU4ezr18/C1uXnsnOjtmog77KSY42peI/oN9Z6GHY9J4idBrpxqV1ODjFU+y/4uEq8jZdhPnmRhBvra3BbVqGw+wG0cFh4awx3o5B7dkeA8ZwKvKabj4D5Qm59fqmH36cbNZIa900/8VV159j+UfsT00HKIAgcrznfwpm5Hzi4WSF4C1Z9uX7vO0NcValKNbYWpgvylMF39DQPV6aCNsd5/5HiQEb0XT19MTH/YeJube6MzqvOMfT4yHKUvC4xhi2eWyPPiScri13PRU9lb7XTamXrvFMxiBVFBfn5+I610bHdp7/7rV2IVVXRUq/J7R5+52jHH4skElnpoy+Np/m7M6jwUrSuMGIPP4LXXGHDFOSF8hr5oPZZ7cGcs03vacAGtxdvGjY11Dg8dqSEinbXWiVTmfH7IwY3SOSJmWA4LIH/JYac27ZBST4ZleU4mvor6rt72aWEn6eblkQQrJiLK2G8MnnoYjh5eraIi8KFRYfwqlJiIY/dtNsbo4h6aXpJ3ebnu1UA7c1/eVJtKV9shQ6x7t8Gq9AZZGXEHTdQq+cwsJs23Ob37KBoWsi/t34bN9XGUaLjFU6DjsQuf+Is7sKLd8UF9RSb+MHSXOHbeI88DG0cKJkXNWVuX60dMm5cgOsFlOOcoMRd4KXzogykmw4Tm8Jp2NzeOd5C/GoezYlvJeJKOmfUwJCCknjmcw44chT8tbNZMd+ZVLCf8r9t0eFgXohLYaUt6EMLNBm1nsYmhkYrOT0M4h6kGJ7sodxq0+GzOGf+qyNVHOQ/z1Ho5eHhMCTp9fNqzBbP2ce5TaVQKeEAMC7ccSiWnviZxh210PoqVE3N5xlZjgk4fEfQGybGLTvkOXo6turxXdKDV3DjwULDe4SnzhJ9zcOcC0TTivoOB7a/ui+M9BBUzq5AFkL8UstsbNeiSU3+sz7L39zDBrd7+K7zINSzzOfdI3WBTGHqU+sEixoo/FqO96DJP+PkpH+bp8KhCpqmTB+ew7ozWIuCFw9DQFp8iYjhMnmWAJyRcjE6lIBH9CXPcirat8CamvsTv/2oLryTO1xxN0N+5QTnHxTBdfHafVdRYlw3p4rfIyCS7Cj3ubN1KeGXG2roiN+3g99ty05VNK5Dc5OjoL9jrh3+dijx9s3LciVRyIujK0dDXzrs8jHW5d0+602e6Lp4bfWmjg/htWmFU+GkDr5RBurrc2HSn++tYoWeWM2bz00ribI05eT4L/a3aY6/P/7bqtfeJCUYiLPBbwpW/77/0q4VxNSr5jZhu/tNmDQlNcTuGZumED1b6hcSnH7G7+GgOD7Gl/oDh5vxZq7JjY01CtZfORc6UP9q7OLS5dyzHm4wtLmNjdf026j89E/0U1ynSEpVoeIWduNhzrM/WobwUV/rgSnR0Jlaee2nPprAKn3hPHRF/FPz0+6CgoBoR/Pvvv99//32NYoosEBcX9/79+ylTpigyBG7sP7A/lZYU5aDjFdbdZWHw3k3Te5FP4Qof331rPWnBAG3+382WOhqtiwsY3RxNfkTt2e9fl7c1GzKwKy7/7MFNDbfZE40Fcoh2hw4fcss1bX/Sa8G11mXQKIPS1KjwrTFpX3+aFRa2zEET117+rri5PkcRxuzSqXVxKdNyIJZLr7LdJ16L5gYa7YpVRi2e00+D8JSv7G3K0QMJ93Mq1C0s1CtQhC9amzr1bM/r9RZdrQY0fxQVHro/PqfVkMBwrjdo+8j8rAqVdlUvcSzE8V7jJwciNAFPVYydnXSfnU9tbjnAsDX2b8WHd8UEx8LSjqOCD+6d3acNz5JCf7h27VpaWtrPP/8M+3fUz3UwdepUtH/H1atX60cdaAECQICeABp1RURE5OXlwfwXPSSoAQJAoGkTgPzVtPsHvAMCQICeAOQvejZQAwSAQNMmIFH+Qq/eNO0owDsgAAQUkYBE+Qv271DESwNiBgJNnoBE+avJRwEOAgEgoIgEIH8pYq9DzEBAPghA/pKPfoQogIAiEoD8pYi9DjEDAfkgUMf8xWa9KCgoeCO2vDklnE9vkOwLFsWvU2lr6CqksovRStOpx6SvoIwYCoEAEGhIAnXIX/hWA6o6vW1tLTu303bZQ/2reY7veXFowwOV9np6etpq7fT9BRYJYadvsVFp18Xa1tqkYztTwf0O6CqksYsvKU7tpfR2aVs0ZP+AbiAABKohgN6NqPFAK5SIyeTstmeoe8e+witexXqrYzY7csSEeAV3jwafySxHpxWFJ8YyMZ2lt8iqisQAdYZlcFoFXpUWbMlg+l/EP3+lrZDOLp00rXrpK8hA0C+37ezs6AFADRAAAvVGYMWKFWhZWqQOk0QlRf4q2G2PmaxJ47a+tVQHc40sRad39/rOjyDy0devpYmbfJfFiKS13J1oVxnvWLJlYgATGxtNSiP5SFduaqOroLVLGQetNJ36r9JXkIYhf1F2ABQCgYYgwMtftb1/fFGQjZmb8DZh0dI1xJ4X47uj9OyhfnrypBB0N8m+smLcmg+9rfSFR38lLwp4a3Gyip+zzMyNuevzMjX1mIWF+EZbtBW0dimHmHTStOqlr6C0C4VAAAg0BoHa5q+SQs7GfaST+AYN5MHotzwsoHiVz9ZTIQvCrLZtdRfekaDk8LqQ164LJxNrcWLFxc+FgtTQ5qxUR1tBa5cSFp00rXrpKyjtQiEQAAKNQaAB1l9lOKzc62kwymMZmhHzEspe+A530295nngoXNwYcYINIAAE5I9Abcdfhj3MsKJXvDFYesY9TE2VuzhkcW5mpbo68/H1+wKbLrOfHR4/eJXSOsG9C0yMTLGCIv4W61n30phtWyPKtBXV2hXrHjppWvXSV4jZhAIgAAQai0Bt85eJpS0zOeFvTurJvZ6QYePuSK7Nnbsn4Ncvy6/eXtcr1n8Zd0MotHeBzfRCkc2FMczcxp6VkIi2wMIPdlLiRea4EcSm8XQV1dilQEYrTaee1i59BYVZKAICQKBxCEjydIDi+ePXr482WzIYRsOWBwf7DdBS1poZjz99/PoVf2PBYOkt/JHio2AzTD0gEX0s2D+EgWlYe/nyjk2JpHhpvI86pt7PLzh4uWtPZWXr7Y84DtFW0NiliYNOmla99BWEZXj+SNMBUAwE6p8A7/ljXda/ZxfdvXz6bFy2suMYT2erTsp4wsW3Z3mvP8K2C/5Mkf0s6UxacwsPa038w2vBhKyJSjuTBZ+yrpw8fTb5k+G4MeNtejD5m4XSVVDZpU/2tNJ06jHpKzAM1r+n7wGoAQL1TIC3/n1d8lc9+yTT6iB/yXT3gfOyRYCXvxrg+eO3IPFkt7PT+sdilkeH5W8eIlYKBUAACMgHATnJX0YzE/JnykePQBRAAAhISkBO8pek4TakXEVFxZ9//tmQFkA3EAACOIHbt29/+oSveiNR/oL9OyS5aqqqqlauXCmJJMgAASBQFwJorPDff/9Jmr/Q88+6GFOQtioqKiwWS0GChTCBwDckQM7fIwdq+/7qN/QdTAMBIAAECAKQv+BCAAJAQFYJQP6S1Z4Dv4EAEID8BdcAEAACskpAouePshoc+P1tCKD9Uko+/sux3bKdrjrx0zLhA/1I61yx5jAHY7IObZjy7h9RGV5T/DdgaZjZ4D7a/F+XiajLv3Ut5cU/agYDf+pNmhPUSOEDhUqyBYUsUfF9aw0t8sdtbFbOveT7yJjxIKHfu3E94tXznSGraBp+yrr1WMWcExvuV27bwcQP8GoIQRSXQp5L8ttKyt9vS9JQcWTg99sCfY3/cF9ZHW3WoqenpcrAlHvOjH7KXSOcI5aywgB93QxWpHDOL8wnxAl5hqoWeTL/AllbeswNfZsZbsfI3/yLXlXExgnKnR3G+7r2U1dWnkm2ivXmKkL5jKHlQ27VwG1LpRK1QAd3BwaeFVIUMwsmlhYgjfV09fVF6w2IqUVroKMFCQhfxg/QYmDqPpxlDdAaBie9tJSJyPD8yt06AleJ7HKUE9s+YOr+F/GtIogKDguEhcIWz0WF+1Dn9e8VjlgNAUP+EgCE5y/uDgdfyzPD3dB3kv9FxgXRfglMbx83Bm8jF25rvCn3y8wtw7dFsPfxMeDssCDWE/E+vG1fvn4tz8sj9pQRygq3lhpgzIBEfktKlXgecXMzEMmTOTtsGG5urhyv8Lxrtobc36EibY2ZQAomtZem3SE2qkHHq3An/k4PX1HFw1IyixMV9rsLOP7w8he+D466WyQv1wsmtuuLdDDLzVn8EBT6U53Xv1fIsSoEXQsCysZTjx3xr9q/KYq/4viVo6GY/6yNns6vQ49eqUlnYVT4addpG/29DE6HC+jgNWP/U87GSj+8JwuUO3USXrEcFTP69bXGWO8/8prQq+w32c84ZsfRXJ5o6qEtj6f5T1QlC54kxedYTnY3JW5jGaYuniY5SSlCK6kzTftwbomxtm3aYkiQs98pquAurqKhrd8aKy37wDOCf8AXJ56YufDyMS9i7RaRg2Fi2hv78qVKtFzRz2H+XtGvgEaIn2E7aAh29eY9jin2pejDKt4j+jHdJnt+Phx9iWJDYwGnck9HXnUdM5xpMcbP7GrkaX5m4cowHCb5ND8x0cIl6GwW1UbKn94kr10dpe4zzpbbojqVhh6+Nje3HEolZdmX9m/D5vo4cqeJX+TlYN30jbiKdHQNxPIQMW2FjvtRs5edtVy1cKh4Nsp9mv6RaWtJ7gFB6nob7zt4U7cjZxeTqZEXf9WHd6SyeUGJ1tOHCzYRYKS4HyF/KW7fN17kjOZKfGPspJjjatNG90MDmKHe07DjMUnVJbDcc8dS3MYPZ6I1xfHMcuyceAJjOu/Lyzw04tWfHt2EN1JOW9ID/fRNpb3NwX5x93Y6Ix3EUb1K/Qlz3IoOnyESGCsmNLz7/EkWPOc/vhf6gQWzNWdcxhNAHwqjZ9na2lrbT9pfZeVs0FKwivhccmrp7yn26352EKgpvXry/Ae9Hp3bikpn75iAlNmO8It61b79Z5bAeuyikop5DvlLMfu9caNmV1ViDKUfCKPs85HhVV2/y4tGx5m3LYxY4aEx9L+6yojee9NQ/XMiLn2voqMGOTTK2NALJSbiGH2sDClVNvYMTSnJvrbK5M7MwYuucBIiMZFWURjt/X7vbyezuSFTq+QDwYeFRdv2o2Fh7tEdCc5zJujz635QEhpN4XGJHTqTT+bn5xe9LysM7hjqYcPzhhAk7hKvuJw4NkNAK4apjdl/3O/5ktGrOEup85QaL72AlCFt75Im5y1xXVnDYFXMGXkvgPcn5L2Hm0B8rPNxFxnOu6xwV1gxEVHYdz+GL1xIOlalit2PusAaN447OhLyN/VkWJryh/erFl4gi/9Tfo6GRkFBix98XSwWGEN74OKNPx8yi0rJxhx4d1oMbfeNwXs7BO68NGuXI8o+NCot+IMsYlg4IjTG0xRNfYW6CTpmYNITO5r7BMPIW8j795IxPRdNMU+IAmR44c8mkQLesNP3uA7epLZVcAsbbtvvHTZeDr7V19W378NDI8Vm8FCGNveYYBZ09H425gg3kXzgMP6ivvigtJ4IsFmPDvj4RhmsCiISAetCVEL7wPNF+KCCOHJOTmsVcyyeegSWeuZwjuvuJzzh/NvBNjnhf90W8i3j8tlHLM6Iq+RZejFDX1cko2iMmuL2mTPMk0Qlw9FnrnbMrNHbKv0n4SmPfxjZDjdIiTiFdmdGB/v2mROvyXtbvkTevbtFHGfY6WejMvjeoC1sBs8rXXj59AyROS5OY4bp4oPr9KLGjt8jfouMD9ziT2YxrXsbCsWu8CeQvxT+EmgYAH/5dkJHe5UWav3++LrwMmdimhV/LEabmPviHgxHDy8m9YNF7PZf4UXC+UHf1du+UPSZZda6fmrt2hPmDCbeGH0iVGwsx3TzR1kyDD29lFClxaT5NiwWOUsnxMfCP8Tn7SprHatBg7pq2O012EqmZZ4MO++ImyHpjLZG31VvfXjeJCwbG/mhxctdrka4p+gwX3VLFL3J/LMnPB/NG7uBTJCoOmutEy6r3Va179qvs0+sEE6nou0V7xzWv6+fPof17wU58l8c57+1TtTjb+ZXtRV5IR+Xxjhv6eMCn1tx3nRHFe+bc9965+gXEuDaRIWP798qbtmjr6kx92V/kcacU6UP9CqF6oSbC51xrfW2NjcQ2G6GB+DTm6z0O49K1QS9IUPn/SgBl+WhETYlEKDg7xgofhbAM6h4H2D/jnruc8hf9QwU1AEBegK8/AX3j/SQoAYIAIGmTQDyV9PuH/AOCAABegIS5S9Y/54eINQAASDwzQhIlL/QT0W/mYNgGAgAASBAQ0Ci/EXTFoqBABAAAt+SAOSvb0kfbAMBIFAXApC/6kIP2gIBIPAtCUD++pb0wTYQAAJ1IQD5qy70oC0QAALfkkB95S/2s1MrRlqhX2r1GBQYRbmMnEiUn7Ki/K16/J4kWFwYv8pP4NiXglem7BMsWxVPrHZJWUjJkedYJ6uRK0494y81Reux9BWUhqEQCACBhiZQP+vnoJ/W20zM9I0/v13rxR7v4b1GsB5fEV7gSDAOlCB+dvc5U6r04sVQoXUHPmT8tfex08mf+5DSmu3wf18k7T1ftW3z6I5EYWsdFdpCQRucz+wri2wm3sId64I9Q57ZsJiF2xzQkgK0HktfQWEWioAAEGgUApJsA1DT/kP4pgs2O3I4qvAzcqeB8tfPizhbFqCNFXgnWQeXBF8rrMC3e+Ht8kC0Fdr3geuYwCYGfF8pCylCEdIosDcEnceEC1Sh0FeQVmH/Dgr6UAQEGoZA/e7fkf0oTWeghT4n35oYmWIp97PQWf5hdwMjcv3JklM+RpZrUoj9B4wmr188kHYnv3rN2pq6+oyorbvw20Z8AaVsy8nkEuJ0HmPSV9Srv6AMCAABKQjUx/1jxpN0TK1Ha55Vwx5m2CP8zGTW/uURZn6rJqQNOup/ZfTBJ44UG5mKOJubHB39hShr3XWQkymx+GXpgyvR0ZlEoaaFh3Vn4hNlIVEjcDDHhV4u8BnXW+NPTZX32rPOn51PLF5J67H0FaIW4RwIAIFGI1Af+YveWYZp4O6l4VaunfdWOYRm8jZQoG+AYa/uXbxIToppt/yJk7/KnyZdvEgu49u3Ezd/URaKaWZ/KMkrqNQf4WmWFnZy1/pYl1M0q1+KtYQCIAAEmjqB+shfmpp6WFUVd794NDdeVMALm9F72GidtRsLbQb0pljUm4KO9ZywsJEi5bqeQWGLRVf9piwUaUhM3xcHZ9+dim5X/5i/1s568KIuaAKf1mPpKyhCgCIgAAQah0B9vD/BNOyhk/G/dO6jxIyUJJa9jTnhPzs9ZM623jvDvR8Hzj/c+Js/ZackvRkx0ZOca1M2HznG+E0S2twBo/VY+orG6SawAgSAAAWB+shfWL/R0wxOL5gXlcNivbl/4PdNWW5+njpE9trqs/aHdWtnTd24zenC3HmnyAyGlsXF9+Rk/YNh/7DQhxfc3Rco/KtbET59f2bj1uQ3aF/TT/mJR09mGYwahA/k6DyuRUXdPITWQAAI1IGAJM83a3p/Am2y9zR6Zj8tVQamrN7PKzy1nNBaHDW5y+DNaRXEyaPtg/Us197BP2aFDtMTPEx++5sQISrmXyA/8/5/Yb7esNAsSQpFZIjTV9d3eBGOIc9MHBZEPyW9ofEYb0EZSrUVeCW8P0HghgMINAYB3vsTsH9HHXK/QFNY/75+OIIWICABAd769/Uxfy+BvYYWYaVfSHz6UcwK/20LsSooAAJAQOYJ1Mv8l8xTgACAABCQRQJyMv5imjp5mMoif/AZCACB2hOQKH/B/h01Av7333/fvHkDoGoEBQJAoF4IMBjooRwmUf5CTxTqxaQcK/nvv/+UlZVXrlwpxzFCaECgiRC4dvVq+sOHkuavJuJ0U3YDpfjmzZv7+fo2ZSfBNyAgHwQ+fPiQnZODYoH5e/noUIgCCCgiAchfitjrEDMQkA8CkL/kox8hCiCgiAQgfylir0PMQEA+CED+ko9+hCiAgCISgPyliL0OMQMB+SAA+Us++hGiAAKKSADylyL2OsQMBOSDAOQv+ehHiAIIKCIByF+K2OsQMxCQDwKQv+SjHyEKIKCIBCB/KWKvQ8xAQD4IQP6Sj36EKICAIhKA/KWIvQ4xAwH5IAD5Sz76EaIAAopIAPKXIvY6xAwE5IMA5C/56EeIAggoIgGJ1o9WRDC1ixkW2q4dN2gFBKQiwP2iSZS/YFuKGtlyEDVrVqMkCAABIFBXAtwvmkT3j7B/R424AVGNiEAACNQ7AYnyV71bBYVAAAgAgboTgPxVd4agAQgAgW9DAPLXt+EOVoEAEKg7AchfdWcIGoAAEPg2BOqYv9isFwUFBW8+Seo8kqcWpqn49Aapf8Fii+qXzi6tNJ16TPoKUQ/hXAEJFEf59fWNKlbAyL9VyHXIXyVx07VVdXrb2lp2bqftsiddLMkIx8Qu+nuDi0FHbcedGRJVsNO32Ki062Jta23SsZ1p4KUSbivp7NJJ06qXvuJb9Z3C2r0QoKnZkfOf4U/TIh9XNhEUH9/kFuW9/dhEvFEEN2qdv3L3jB972uFEzuv8/Nc5JxzuzJy1L7caYEm/GPQIyLN2NhSVoalgX1k0+NfK5XdKivKLSu4sZ+wcu/ISkSCls0snTate+grRgOC8MQh0/+1q8cvi4pz/beh9a4nP9vTGsAk2mh6B2uavwksnrhr+vHCkBh6SxshZvjo3Lyaz0OeUfX4LDnHGYqwrIX6/xRJpTWfK5RfpoSMNxd6Xpam4GXv4zahf5pkyUFuGqe88J9bZa/fRZ1q7lGhppenUY9JXUBqGwsYh0Epn9ChHLP/5S665Nw9PbJrlOWLMrE3HH7wkhmWVL28dWDHFc8ysoAN33pBiSGjjLE8Xz1kbT3CEii9v3nz5+eOTi6dMWRzzJOfs6kWHUnmDuufnNyw6kkY0ffPw+KZZY0Z4ztrEbYkM5F3dGTRljOfiA7dKqxonbLDCJVDb/PWiIBszNzHlqtHSNcSeF+M3/j17qJ+ePCkEZTD2lRXj1nzobaWPC2JssMwAACAASURBVHU2NlampE5dwSp+zjIzN8azF34wNfWYhYX4HSStXUrldNK06qWvoLQLhY1F4M2F+KtKNn2MCXtliYEOo47847Z89wq3jwdHDVl1oxK7vc5x2t86AWvX+Vi8e5BeRgjZu+FCe5bjQo64EPbxacKR9T4Td39nZ9f+c4VO609nf4+4yklgT+I3/Zn/nzqp3u3oP24rduMtRxLqsTcXAl2nHvtoN3lS90eLvTdnN1bgYIcgIDYekpBLSWGhoKROB23OKaPf8rCAvc4+W43cjoZZbXvuTozQpD2Ki59jmA2/lYa2LvYeP6W1S2mBTppWvfQVlHahsKEJZG8b3/dg839Ki7A+v0WFeuvh9opPhx7T/+3W747orMfKNTPjR8dc/8W24F1XG4eehvpKhgstcKHI3cf0l91aTgitWj0z3j3m+ur+6Oot/jz47LVfLJQIzz+6t/SKSvjDaZQq9iTxr4wh/q6aeMuj+stuc9Sv9ida6hfvi24dcCFkCvpT7jKke1vrUX83dOigX4BAbfNXNRAZDiv3ehqM8lhmsyPHq1bZqxrlUAUEcAKdp+467P1jXmSA1+EsfNoCPx7evYllZI3pu4s4q/rwttLm4392U+dsm2LfL2HqkhUz3Hp1VHp4hxDqE8oX+vCB+GzZm5O80Of+Qz1aep2+VjZq5KvLf2UPCxisimG3CPUefQVafvyQ+eAuZjmdcx+ipKrWllAFR2MRqG3+Muxhhp1/hcZgOoSn6Rn3MDWbNhyvi3MzK9XVmY+v3y+ZrV+rDGZiZIoVFKEbRhNCJTvrXhqzfWv0qVq7HPP8f+ikdejU09qlrRCzCQWNQeD71kwtLUOtX/5cfNl+ZcR0p4UohTT/QQlz+D1mRX+uA9+rqLdRVVqWmD4p9cyOxR79Di6+eM5ACQn9FhMkJITlifrc323yj6NRAjN+EZM9aI4dSl/YD7j632KF1adcF20J541JoLbzXyaWtszkhL85LzXkXk/IsHF3JHNZ7p6AX78sv3p7Xa9Y/2UJ3D+OUgZlbmPPSki8Tb6TwU5KvMgcNwK/n6zGLoUFWmk69Zj0FRRmoajRCBgNn9gnf9+xJHyuqluvPtijvFfqWtyjgyp5N9hKx2Js8K4FXdLO3nxOKyTisoXzeM3E01uPHn7m6umMpy9q9bi6lPucuf432Q9fNFrkYAgnUNvxF+Yw4/eeFtMHOj+bZvfq7LYj+TOjJhAT9bl7ps8rCLw2z0SfsX1VaI8pKyYUbnNg4I8lw+5grHsFWEFUkF8202hccKADE8nTVOh4LvT5fbir3duFbh1uHg5J7Lb+f47EbD6dXerupJOmVS99BbVhKG0kAnqjpw0LmheR8IvtKM2xP8/YMnGK+zt/r4Ht3t09dzrbYc/y8gD/zKEznNoVHgl9ZhZgo6fZed6MzV5TRpf6e9u2e5uCC4UdnkThrKmju2ZIyF7VycftySyoOXbejC1ek91L/b1sf3xHtNxzeJLrzAkbvCe7s/2HvT21LVuJOw1MoRCKGoBAM0kWfqmsrFRCw27Rg1109/Lps3HZyo5jPJ2tOhHPF1npFxLf64+w7YInG/azpDNpzS08rDtjecnRqYLvJbc348jQVmDYp6wrJ0+fTf5kOG7MeJseTO7DSIzKrqhv/HNaaTr1tHbpKzBs4sSJ+fn5p6Kj6R2BmvoiUHD3bK7yALvuxLAIvb9w++LzNpzTypcPki5cvvAIM7Hr129AX2PVqsKU5MSrF/Jb2Y4a7YTmv4gWhND5DKzHQFJIqSzz2vVP+i6WuoIuvnl4+X/P25oKlhItL13IwEwGWhHqkT5UdiEmNgWzcHNzUntxEfesG+lZfcULekQJbAoJiYqKQr/NqUv+ElWqyOeQvxS59yH2RibAy1+1vn9sZIdrMPdkt7PT+sdiQqPD8jcPESuFAiAABOSDgJzkL6OZCfkz5aNHIAogAAQkJSAn+UvScBtMDq1/z66oCAkJaTALoBgIAAEOgeTk5PLycnQiUf6C/TtqvHC+++67f//990RUVI2SIAAEgEAdCZSVlbHZ+MtVEuUvSZ5R1tEhWW/+/ffft2Uy7z94IOuBgP9AoOkTCAoKioiIQH7W9v3Vph8ieAgEgIC8E4D8Je89DPEBAfklAPlLfvsWIgMC8k4A8pe897CCxId2LKDYJ0FBgq9LmOgHMEnPalj7vS76G7atRPP3NC6gX+acPnrsUnZ5Rytf3wl9tHk/8KGRRz/8+Xvf5pRuv5O/fORKod/xRBxDq2WqGLr6zXYRWOaQrkI6u7TSdOrxnwlJ5xBdvE26HP+l11OBpdo18d95Cf6aS814EP9XW3lxGy5q+M7oh/9klXtQavhWMV8O1FvR49GDxeSCJRwvSA9b6g8Ybi68DErJvfjruf8QIX8rh0XsUn83iB/RERcjpmI42n/eUOJ3ebxDovgEu6mllqUd55d++M/7HuVp9sgN9zo+ouInLKtA11hYexMhU60btR9/lcT5mg/4/anhkCG9XgQPMOy/RWRbDmGz5O4dxk6BWyJTBH8HyU7fYNdrXFwz6yHWbRKndes8nbtgBW2FdHbppGnVS19RLd+mW1l8fsmYX/Zc5B7Jzz8jX9N3j/FbfwIv+2vbJMuO/E5NP7UkNEmw45AwpQbKgJN+79Hj9yTKqgYtxD308nL3DE0VMsO+tHKwu5fXmN1NY9l8uu8GWq0zblLnXpMS0LdjiHWHnPjkfBFaEsUn0E2Rvzp25n/FHsf59jNyOl9u88/FcQZ9PCP+h1anlbkDvRtR44FetRCTSQxgMlwjX5Hlr8KdMGZAopgQvyB2Zs+ZJzJTg80ws+BH/OKC3faYwdJbFURJxfVFOpj97gL8M22FdHbppGnVS19BBjNlyhQ7Ozt+YE3/0yPUF96xIn7GevP7BxfgdZZgBbcNpQbKwFFrcVtfv5a/fl0uLo9eTBQurCgtpRCrKH1dSl43hDSVg19xD8f6+zOZ/hcFREuPuTFs/P1Fwqd25mt5qYAVMdcI0yKeCDhPLS8cHXKd+rvxteKiP1PdO5bzHRNthZ9LFJ9gN1XEejMEeqI8O9avC0pZXbyOPqRATGWyaZStWLGiU6dOyJfajr8yUpJY1s4DOaNyjb4OZqxbaU8QiqTA9i36kGMx9u1lhi2GHijCc/rI0PRQT9569rwsf+/mVabzoH7koJjR38YOS777EK+lq6C1S/mHg1aaTj2tXfoKSsPyUNhSWQWt2SfdBANF778Md2o2KhLDIkeh16B7bSBH6SU3guzaqmj17q2l0taSszde3KRmk3YdH91eRUWlzxZ0KWVs6NVrZdROF21VNTWVFtou4dwBfl6cv2XbFu2MendWRcU1bdyn5OThhYWHxvAWoss9uiPBec6kTrw+onFm3N5zgaYqKmpqqsh2+rPD47RbINdaaE+P42/ld2ODi3aLFmrt1Vq04MWB9AqFcu/UuBZqs8jds1Bd7s7+zRz2CK6+TvPdwBJPhKv4ziK3yKG/oGqOT7BtK5VWDKUfyJJbv/QcuNd0dZC9zyKHuKFa3nEyuPFbbfPX86dZmHYHcsFCRMPQwBj78gXffcX2t4Nez38N2JOLZWydGaK7ddfUapZEepKbielq86cmOhubsCu/IC20FbR2KTuYTppWvfQVlHZlpTA3OZpz8KdwSx9cwct2+Y9a+WHB2glG1cciooGi9ztOu4APjsi/+uT8FOu4/+DDJtE574uK3ufsNzzA3RsPi1q8vdvJwvLShCmdCLNpQXP+N/V22deKwlCLy7O2JJC+fMb6hjwqK39d9P75kf7J87YlVu8i5jB5rnZMWBQnZaQe2vJ4mr8bvpgvcdA6cyJgebuDJRzbfe0jB5x+97XiyfpO+6euucJruV5lczY+tCt/sKrNzhH+x3lZkh+KiYvPNCw88jw5R5577thN+7HOvG8Ove8Zj1LYXb57uGKkFRpqdLLy3nmDlzeFG1UfHyFLdtPBIPcZ5623zh1EtrdamZlzdjYj52q52oTjOSX7RvKY0DvV1Gpqm7++VAo9smA05y0PxnReEzrqwbyxNlNW/bBu+wz96iKu+oInK/7xfXPOn3vaCnq7VHbopGnVS19BZVZmyl7d405/3S3Ep7/wo/xpEl5442n556cntsbWsC2xqAZJep8VfyxG1929Kxut31TA7jN0ECv5PrlvT/t5IWsGaisz1bmLvXnvPeSOngsxtAc7W7NTHpEjMJORUweSD4s0jM11ecX01C0mzbe5Gnka38iPfWn/NmyuD7kWJt6C3hmzVQeXmisj231tjNnGczfPxk+6Orqasd4TAxW8ZXv/nz0JV5SN5/7m1yomgTfJJxAKw9HDq1VUBDECxNOX6zRPCdIXEc7Dy1mdfjmQlHR+v0NW4GCB9EjUco/q4iNlyG5Kvv+qtPjazogkTiJkMJDrI0NLQ10QYvyz7B3S3R7w42vdlkluCEQWsT4KzP1puC+e96tFUIpT+Fmhp0HidNqoqgkVfiwrJc9pK6qzK66fTppWvfQV4kZlqMR6TljYSBF/dT2DwsineCWHR+pND4rx/Guc4FNHYXFxDTX3Pr7JU8Hfk2xPcC8+vd7DWhJq1VTphgD8Da7QI7l7O73GLbv6vm3bVlXvX2Gdagau7+ptP2fjodTZ856Fhnef/xhtRMS9GaV3pia1eEs1G77D+B5ZRZ/R94BYvFAoFHyEZBN1gTWuZ/TeFLdfhtPzFDFqNfu3qVa4tO6a3zzXjkLpcZxof+EtqomPVMjrpu23l5lY+YdOyA7CN2MiDmWmxO5wmzSdf2s7/upi0gu7l8F7fnP/znWGqZEhGVfJ4ZXrWvkH2F9bsuZK9S+W6HTpwUy7l8UVKky7VWjWA9dCW1GdXXGqdNK06qWvEDcqNyUavdHAI7dA5KljTeHV3PuamnqY4eIEtF4t94iZVu0wXdhk6kbPwP9+fVSCdn7Pv7CU3PmxJqd0PP3cirbtPxCBT32RC51zmtTeGfxvXVXVvzzTJUUFDDVVInmJHRYjvLRjjsXfjj+a5ezpJFm+wD3LKRCcKOPNXInpp49PRJTRr681lpNLzEnLw1Hb/KXj6G6T8ecmYiqTXRQVdhib5j2UGIGWnJo395bf5i0b/1yuud1vFWcLDhpWNiPGMWPXbyVuUj7dCw+9auPrQYzZ6Cro7VJZoJWmU09rl76Cyq4clLFZOVHBm9IMRg2qYQwtHCt176N5Tex1KbpWiEUDmNbO9tmcawe1RpbyaWZ2KDmWFBVhqmrq6GJjP7tzs4BSRqyQ6eaPJqH8f0nxnOwmlD5q7wzn4jpVRF68a5eENfebwJlaErOP3+KdXuC6KUvUvpgkr4BpPYT/FXu2a2sU03OEFZ04bXxCDT69SV67Oorh5mxLp0fmyiV5Hkr1/sTXirTdw7UYmLKqKoOhOnDFdfIxb2msN1PdJ74UV1uRGKDOfQKPz+AKHtbbc0jLry4u6InmFVRVlTHlzl6RT3nPuekqqO3ShUErTaf+q/QVuG3Ze38ia7OlUI8Q71LE+/BnQZQ7OyyI5vYH1esJ4hroev/ro+3WxPYIlpuziCvjafRM1OvK6np66sro6tmOv1IjakL49Qx+bUXaZqQMtVVX7znT24ajU7Q1cUEIqbi1VAdTD0jkXGD8qhqdwePkvUgi9DbC00ivzrgrWug7oDV8dxr34qVyJmcH2j9L+EUOwkcicOrvBnnxMlTVCfXBnK8Yp5XE8Ql2E0PVwmuHuB4BlbLxkff+BCaJv5T5i2xY/vp5keBrOJKoE5epKC16TvUqEHq1hqZCOrt00rTqpa6Qvfwl3gsNW4KQinQxDrm2Fw/qUcoLptYx1N4Z5IokvuBvnVGmrxpcpr0Ua2gn19W8/FXb+XvuHwxldV3iD2vdDgZTS2jnF5422goRu2zWi5KP/KkIbvuW7XTVcffovKRVL31F3QAoQGuEVF04TByyZFNB4njoelRcUsKS2jsjmSusC1EJ7f2v8R98SugXRnspSqpAruXqmr+aCJzXyftXx4lPSvb1C5sufJfURPwFNxSMQNnD1z/OCp7QT8HCbvBw5SR/6QxfHja8wWGBASBQSwKqtnPD5GfSvJYQGqCZRPkL1r+vkXxVVdW7t2/79+9foyQIAAEgUEcC6MVntAQ+UiJR/kJTgXW0pwjN0Rbl2trV/FhKERhAjECgMQi8f/9eivzVGB7JuI3//vuP0aLFn1u2yHgc4D4QkAEC5P7byNHavr8qAzGCi0AACMg5Achfct7BEB4QkGMCkL/kuHMhNCAg5wQgf8l5B0N4QECOCUD+kuPOhdCAgJwTgPwl5x0M4QEBOSYA+UuOOxdCAwJyTgDyl5x3MIQHBOSYAOQvOe5cCA0IyDkByF9y3sEQHhCQYwKQv+S4cyE0ICDnBCB/yXkHQ3hAQI4JQP6S486F0ICAnBOA/CXnHQzhAQE5JgD5S447F0IDAnJOAPKXnHcwhAcE5JgA5C857lwIDQjIOQHIX3LewRAeEJBjAhLlL9i/o8YrABDViAgEgEC9E5Aof8H+HTVyB0Q1IgIBIFDvBCTKX/VuFRQCASAABOpOAPJX3RmCBiAABL4NAchf34Y7WAUCQKDuBCB/1Z0haAACQODbEID89W24g1V5JFB2Y/ei3Tfwfe3haBwCdchf7PQ9bl3btkBvDqjou224UVK9wyWXAq3aqyDhFm0t/U89Y/Okpa8gmrIS/LVbtGgbcLF6sxitl9LbpW1RgwtQXc8E/l7Rt28fzn8j5hy486ae9dda3au06CPR6a9q3R4aSkug1vmLlTB78LyiKVfeff1anjS9aPlg/+MseuMZW1xGRHYJzar4WpG9v/spj2HrUklh6SuIduwrK6ZcsnAyLCv7h94oqqH1Unq7tC2qdQAqG4BARWmRsvu2mNiYmANrzLNXevpHPm8AK6BSBgjUNn+x4vfsbxG4fam5MoYpmy8N9msVE3sFH1TlJUfH3+OMxdjPksiT20e3pDht3uquzcAY2u5r/rDPib6QjtORvgJvxU4PWXB8XNgfNs1rIEzrpfR2aVvU4AJUNwiB71sztdDRw3FZwNDKm3ezuEYqy7JunNi1aeeJG1lllWRh5csHlw/u2nni8oOX3BJCaOMuvlBZ5rVrmWVvHp45ePDMwzdvHl4+e7eA53fZ42vcU0L9zk0CLZHU58KUywd37jrz4OV/DRIrKKUnUNv8VViQg1mb9+Yq1upsgGXlZKPTVi+jva39DuMZLGPXBOfgpwwNjP0ip9DkJ1MmR1pHR5+RkZWHzqSvwFXkHvx5rd7mZQ7f04fFqaHzUnq7tC1q9AEEGpJAZU52NtZJryNho/JxmIf5mODMVsbKWcEeZiPDnmDYkzDXAQEnP7f78d3FoOBYdFlWZoZ5WIxZn9WqW6us9WPMXHEh7NXV1UHBC9zH/HntWlj0Y6WcY3O8w25w/C4+vXzCn3fQOJ9o6RGcpWzcKjN4jCmhHhXudB8wdt21vLxTC+w9Q180ZLCgW4xATSMYsQacgrysDEypOYNbbaTfjfNRw33rtkN6c+edsnQ59OuXpXdmmaBElpOFNTfnpxu9rsbYI1w+W+oKDCs5PD8QC0n30sAy6JzjldN5Kb1d2hY1+gACDUHgxemQRXmqb7LO337RO/hIgCluo+zcprVv/U8nL8TPhnSuMJsReWOc5f/S+s6JnDVWHRs7lhCK3bT2jf/pW4GEkH6FKRLyW62OEt3/fth3PXE4+oSSUoXrvJ/j/17ef6ASVpx4+mafiSFGWFncpjVv/c8kc1vi6v0WlQSvzh9/PG0dkqxccHquw0z8jzgcjUWgtvmrGv80vLZsDe8+sVesduC1KFNeiqumhRRV7CtrFjxfenmKvhRtQFT+CCgb9Btop/yk6PwNnf6WhkpEgClJiZXYp8hFC4mzsodYmda773o7Dly4ZMikog1Lpw80VlXCUq4jofLIhYv4Qm/LMTxrObqRyQt9VLIf7vrPz+durxxo+xZPX6M26WFYIq6+/NAigZbvyh/e/x/m+CdKXnirjkY9tTDIXwTZRjpqm786G5tg//uIZuzJm8InuZnYD725ypR/bN8KTQvwQjA0MMZKyz7yzp8/zWIo/YBOpa4oPLh6e4u2k3cE+KHWrHsF2Psdfn5v/MKmW1LyovOyU705RGkWChucQFsTGxcXI5chWixzz1+OOMVNRQmm6kslpt5z4MBepPWBA8fq/aSip3483fLSwa3rXMwWj9xzMQSrJITsuEJ2nkgIKxVxWMneYzw249ztVYbP427ajNmKtGNfCPV2XPV2A/GWLxLhbYkG7+xqDNQ2fxmZmDM2JaewvRzxARbr7rUUg+G7jQhDrIRl/le8zlxu7T9gZsjY/y01ZTCMzc0KT6fmYv2IYdPtmxcx5w1W6JPUFa0cgk62e82J52X5+egC8yFDurfjFIj9Q+tlvTkkZhIKGpOAUn/PKZ3Cw6LTp6K7OsMeZthzrZ4uLni2EThaGTrO2u5o38Vu0L7zget7UgmJ5i9MyWrYKJTA/tJ/fHPIpP2auLYuVOpbocL4YvT4E7dZWVb6vjGjB1tYbfMXY+gUv+aDJo7vfHxR/3cXghZcsP9jiwXOk5WwaMpfDqGZjv3bhgXsdfbZNfLufBMTD3/75fPGzm+/zbPd/f2zQir8EtyIgZvUFV1sPbpwuy0jdzXW3NrDw5q2H2m9lNouvae0xqGiMQiYjvHtE7Lh2N8BpgMN3HyHrF0wc8WPq73NVcsyb5y9/aPv+NINYQxv3/6qL+PO5bXr10XTwGD6kDWBM5f/uHqSuep7QsjvNxdxT5Vsh3tgXkvWYMO2DlYlqg3cpjutDZxBqG/LUf+bi9MEm7W/z1ihvdq19OTiLfFsrIO4LihpMAK1zV8Yw2HjvWtGmzcvGx/RymnSoYfzhhJjq5d30r4LPLHVXQN9dlh2ZOXvsXfvYya99WececDcsGq37/jPBpOXJD+cas6ZF5O+go+ijcloXzWtatHQeIlh0tulbVGtA1DZAAQ69JvorNGao1hv9KIVj+98eYthmuruYbc0j+zZEzRhFdZ94MBhk4dr6pSP1I3Y/nPI85Z2k45fnNgPNXIPu615ZPeeoPF/YCYDBw6dNByNroq7Ok9sK5J5+nuvm1JxU3/8MDJ9YRhf/R+EeqIl5h0aVbVh09qFmX0mr47xzNv8d3uuZw0QOagUIdBMkoWrKisrlZTIOVIASE1g4sSJ+fn5p6KjqauhFAgAgfojsCkkJCoqqqCgoNbjr/rzpT40Fcav+iOuSExTX9qZfTFRKAACQEDmCMhJ/mpv7fNbz3/F6LekndkXE4UCIAAEZI6AnOQvBlNLl/t6/zfpA/TDdHZFxfnz57+JdTAKBBSKQHZ2NprUQiFLlL9gc4oaL47vvvuugs2eOm1ajZIgAASAQN0JMBj4I0CJ8pckc/x1d0imNXz//ffq6urv3r2T6SjAeSAgEwSCg4OPHz8uaf6SiZCagpNqampNwQ3wAQjIN4GWLVuiOx4UY23Xn5BvPBAdEAACskAA8pcs9BL4CASAABUByF9UVKAMCAABWSAA+UsWegl8BAJAgIoA5C8qKlAGBICALBCA/CULvQQ+AgEgQEUA8hcVFSgDAkBAFghA/pKFXgIfgQAQoCIA+YuKCpQBASAgCwQgf8lCL4GPQAAIUBGA/EVFBcqAABCQBQKQv2Shl8BHIAAEqAhA/qKiAmVAAAjIAgHIX7LQS+AjEAACVAQgf1FRgTIgAARkgQDkL1noJfARCAABKgKQv6ioQBkQAAKyQECi/AXr38tCV4KPQEDhCEiUvxSOCgQMBICALBCQKH/B/h2y0JXgIxBQOAIS5S+FowIBAwEgIAsEIH/JQi+Bj0AACFARgPxFRQXKgAAQkAUCkL9koZfARyAABKgISLT/NlVDVMYuunv66LFL2eUdrXx9J/TRxvfzpj8+ZV2JOHb8wUsVQ1e/2S7GyjxJqSuks0srLbVdjLYFfdQyXsO6vWdvyZDFIzs3pThStg9a8mJZ9HoHZt28YrMeXdobfhpdv73GjZ/sQFySecnRqcUctWrGg2x6MIWuasTjjyjM8/cZ/Xi2yRbtzUbYdhESZT9LOpP2unXXQU6mAn4KXI1Tp3padeJ+DUruxV/P/YcbT0v9AcPNNXjR8RphHa1mzppK1gh1DfvZqbWhn9zXTTJl1BRC3Zg1tda1H3+VxPmaD/j9qeGQIb1eBA8w7L8lo5rY2Okb7HqNi2tmPcS6TeK0bp2nJ7BIaekrpLKL0UlLb5e2RTVhy3xVcVLoklPp0oZRGDGm05iIQmmb0cmLqfv0+TOdrOTlrITZRpYLUztYD+mFXfjZ0j+OaJq+e4zf+hMX0RG5frRlx/4b0tkCKnOPLpy3a9fMhUdz+YWohZeX15AlMZwrmlOTu2/qEC+vMUvOc7MhXv5kh4Ox2/YH5RhWEhNgbWzH/87c/tOFYxe3nfjkLc8Auu76G9r/kYe+aMjT2ItpnBqBrmHfXjXMI/TDjzpEAuWH8Ne2SSiEar+Y/Dhk9BN6N6LGg81mi8kkBjAZrpGvyPJX4U4YMyBRTIhbULDbHjNYequCOK+4vkgHs99dgH+WvkIqu1/ppKW3S9uCjHHKlCl2dna0AGS14lGwGeYdK+J9RWlpuVhAgoV4K7PgR+Iy5eXkJSBWU20BnTrBRhWlr0tpdJeXUtVURI/FdJbe4uqoqCBbx3rzPc/ZYYMxfOL5ZlABwy14jQ1msyOHV4q38PcXLvv6NWWFAdPff6wIBgFIuH3McnMWR4+gXSEYuE3L4DTx2Hhd8yrWW13dO7qQKyKoShJ01bJvopUrVqzo1KkTcq6246+MlCSWtfNAzhhXo6+DGetW2hOUw5MC27foQ6Z89u1lhi2GHijCsHs3rzKdB/Ujx9eM/jZ2WPLdh3jCl7qC1i7lnw9aaant0ntKaVgeu2/NsQAACcZJREFUCzM29Oq1Mmqni7aqmppKC22XcO6Au+RSoKlKO6PenVVUbHZkoAugx5I0LG1JD/SzjUnEqAZvuexwUB9VFRXV6QloGLKlT7M+W/CrBT8SprdogZcSB6ELNWzWTEXfP66EuJ4o1HEUEy1ubHDRbtFCrb1aixZtLQMvoTbEETep2bi955A2FTW1Fiqmv1wRHh8xWqowXl9M4g6vGAzx2Q+tDtocXeQ/GdF7Uzwnzxs33ubm3mihu41OHt72N7ccSuWKsy/t34bN9XFSEmqPYQwmk3vDiNsXqaU6fRJ38KbTPF90W0h9oNGZy8TMhZf3ulNO37RUVsF++KEuk0TUZptMaW3z1/OnWZh2Bx1uHIYGxtiXL1Xo1Pa3g17Pfw3Yk4tlbJ0Zort111Rt7EluJqarzb+f72xswq78goSlr6C1S0mUTlp6u7QtKO3Ka2Fa0Jz/Tb1d9rWiMNTi8qwtZNJJ3z//QP+Yd6/zX5eXnBilaRvymv9X/9BIDoqskF/SZz0oLy9cNxDDqr584VwteO2XSjZ5NWBY7p7xIyJ7ReBDiYqsA53foRRHrY4HmHXcf/B6lc3Z+OCj/MGqNjtH+B/nJaoTAcvbHSxBFddnfQ5ecpCbMMnGg+aus8hc0tfANjDqEUvwJrHqw7uCgoL7VzaO94+1XDV3ENdW6smwLE/3oQx9V2/7tLCTvGSF12t4+rkVbYu4QsqyYkLDu8+fZMHzUvwD+/bNa2yD4bZG/KqstU5oTNFj0IQVUVmfuMVZ91O6MF/tnTGoB1EXeOqZoKuvT/kO3tTtyNnFIvmt9MGVaHTs8h+18sOCtRMEjIh7Itsltc1f6KITDJzRnPenhum8JnTUg3ljbaas+mHd9hn6SAy/XgWP75tz/iJIX0Fvl6of6KSlt0vbgsqs/JZ57z2E/6FnaA92tmanPCIGIcx27VkXI+Pw75yytjbNnDrbaf3+qcbKyurq/Ac3YpgKL524avjzQmIowdAeuHiarZiISAEr/lhMe/+fPYnBh7Lx3N/8WsUkJHGFzFYdXGqO7Cn3H+rMTLmfJdSYYTr/ZknmobHYiUk9OxpMx8d65JG9Y4KtrbW98+JH065e42eG1DOHS6d5D0WGdDynueYcPiOUwJhu/tOww9GX8G9F7tEdCc5zJuBXPs3BTt8aEPLBZ9s8XoobvDT56u3kpKSYbe6tTkzqJTAzhhXcvouN2JSA6gJVIz2GrROyi2EfMp+UCH0Xkc3yp0n4NNqNp+Wfn57YGis0h0fjkowW1zZ/tW4rdKGyPpbxAWi4L56nm5Kc0n/WBBOitI2qmhCej2Wl5Ln0FdXZFe8COmnp7dK2EDeqECU6/HsrnSmHrvl9/MWyXVtLf+HhgSAJ1dY0mU1A6AO6Lpo3/14KgMXFzzE11da8Fhraulj5Z4FrkVODl1McysaeIUk52dfm/rh/LG/cZrz0Qn5+UcmdNa2CR/56hZsabv8VnqPy+EiAHzqWxL1g5vBGW6RehqOHFxYeimbxUw9teTzN340+XPRMafBybNXlnc58GWVjKytjXV3d3g6z9kUtN0yJiOfdoLZ3n7/YpTdeN/WPhWY5sYn8W9f27lvR3c6SSSEiGUrXMygMHUcTc3P2WVyeFyTybIGChKwW1TZ/dTHphd3L4D2Zun/nOsPUyJCkUHJ45bpW/gH215asIbtfp0sPZtq9LO6lUJh2q9CsBy4sfUV1dsX7gE5aeru0LcSNKlwJPlSKyX2XHedwy2PM1uoeQ3PQiP4x4BLDy6uq/pUCoGiLkqIChpqqqhQaiJHe5Alm7NwCwSeFGMM0cKX3h7AdnK/+laOhr416dOXcZTDNLQxYnNEWz5bD5LnaMTsiDhBTX450E1YlcdMtJmb6Xha75+P7zLs9QUUaOjqFOS8Ex1fC01lM552Xg39YNdiXP34UCl6jt42xaGhS0WnqwpI8YKB6/og/nFH3jsUfQFYUnhjLZPpfJB+AvIoey1QPSKyoSFtjxn3oWHHRn8l9ilKeGmTGe4AjfQWtXcpA6KSlt0vbgrSrAM8fhZ9F8p9y5abeIZ994U+hiUd6xLO9RdcrvnKe6ok9xcQfC9vveIIECq8ttURfdc4zTvTUjn9RXVux/QIBtzp1ZAeTD9/KU9dYMvBLj2gl9ERPzIOvf29bEJ6cRzxHFWwn2ArvcvJKJTrfO1bgIWDpMTcGeckLtCAeWDIYvEevYg8VK9KCLZW1fIhvjeBR8fQOxxdEJNpbHTNYkULWC152ry7NMuA/0OSHhGtl8F8G4FutKM0+IahMxKoMn/KeP2KSBEGVv75WpO0ersXAlFVVGQzVgSuuk31SGuvNVPeJL8XVViQGqHN5v7q4oKcyxlBVVcaUO3tFPuVdClJXUNulC4NWWmq7X2lb4LYVOH/9/VtnNK+lp6eurNxzwUXiMiiNn4kuDTS0Id8+EM8eOUc9CQEMNdmxyIz3lgKnu4iazqP2c17BqE5dxdNIr87oolLXQteh1vDdvDcNashfqDctVDmDJGSK20445eD5FH/HAeVb3t9nzpWGJzAipQm2KI10xRj2u7kvV4jlr3gfkWGZ+oK/SV5zUAzkwVC1mBnN/35wLjti4lC5p0CNEFT8HQqG5WaCl6AR5c4OCwSVcZyX+X94+asZCqXGIWJlZaWSkuizYLLVpzcF75traAm/pUynkM16UVLVVld8Clf6CqnsYnTS0tulazF16tT8/PyrV6/SxS7f5RRYPr15UdmmugsDdcrnVhQXA0ahDENdWJ06pOsd1o5KWfXc6S6M6ls1UG01QTQpPxsofGnUBgUFRURE5OXl1fXVEGV13WoeKIm4xGBqUU6jovdipK0QsYtf8h/FJ05aci5pOi+lt0vbQhr68idLgQWNiKq/Mug6hfpqqF4dra4aUNe2XQ1qa1ddjTPVVNXOlry0qmv+aiIcXifvXx2HXpQVOfr6hU23FC2EcyAABOSEgJzkL53hy8OGy0mXQBhAAAhISECi/AX7d0hC8/37971795ZEEmSAABCoC4FXr14xmfjbcxLlL0nm+OvijRy0nTlzZm5u7p07d+QgFggBCDRxAqqqqm3btkVO1vX5YxOPE9wDAkBAjgnU9v17OUYCoQEBICAjBCB/yUhHgZtAAAiIEYD8JYYECoAAEJARApC/ZKSjwE0gAATECED+EkMCBUAACMgIAchfMtJR4CYQAAJiBCB/iSGBAiAABGSEAOQvGekocBMIAAExApC/xJBAARAAAjJCAPKXjHQUuAkEgIAYAchfYkigAAgAARkhAPlLRjoK3AQCQECMAOQvMSRQAASAgIwQgPwlIx0FbgIBICBG4P9jZu8VEr+PKgAAAABJRU5ErkJggg==;" vertex="1" parent="1">
          <mxGeometry x="-720" y="246" width="405" height="609" as="geometry" />
        </mxCell>
        <mxCell id="im_bpf7Kk3_-UFMZWJdJ-6" value="" style="endArrow=none;html=1;rounded=0;entryX=0;entryY=0;entryDx=0;entryDy=0;" edge="1" parent="1" target="im_bpf7Kk3_-UFMZWJdJ-3">
          <mxGeometry width="50" height="50" relative="1" as="geometry">
            <mxPoint x="-315" y="360" as="sourcePoint" />
            <mxPoint x="-265" y="310" as="targetPoint" />
          </mxGeometry>
        </mxCell>
        <mxCell id="im_bpf7Kk3_-UFMZWJdJ-8" value="" style="endArrow=none;html=1;rounded=0;entryX=1;entryY=0.75;entryDx=0;entryDy=0;exitX=0;exitY=0.75;exitDx=0;exitDy=0;" edge="1" parent="1">
          <mxGeometry width="50" height="50" relative="1" as="geometry">
            <mxPoint x="-200.00000000000045" y="449.9999999999998" as="sourcePoint" />
            <mxPoint x="-60.000000000000455" y="449.9999999999998" as="targetPoint" />
          </mxGeometry>
        </mxCell>
        <mxCell id="im_bpf7Kk3_-UFMZWJdJ-9" value="EBI NOR" style="text;html=1;align=center;verticalAlign=middle;resizable=0;points=[];autosize=1;strokeColor=none;fillColor=none;" vertex="1" parent="1">
          <mxGeometry x="-165" y="340" width="70" height="30" as="geometry" />
        </mxCell>
        <mxCell id="im_bpf7Kk3_-UFMZWJdJ-10" value="14MB" style="text;html=1;align=center;verticalAlign=middle;resizable=0;points=[];autosize=1;strokeColor=none;fillColor=none;" vertex="1" parent="1">
          <mxGeometry x="-155" y="360" width="50" height="30" as="geometry" />
        </mxCell>
        <mxCell id="im_bpf7Kk3_-UFMZWJdJ-11" value="EBI SRAM" style="text;html=1;align=center;verticalAlign=middle;resizable=0;points=[];autosize=1;strokeColor=none;fillColor=none;" vertex="1" parent="1">
          <mxGeometry x="-170" y="470" width="80" height="30" as="geometry" />
        </mxCell>
        <mxCell id="im_bpf7Kk3_-UFMZWJdJ-12" value="2MB" style="text;html=1;align=center;verticalAlign=middle;resizable=0;points=[];autosize=1;strokeColor=none;fillColor=none;" vertex="1" parent="1">
          <mxGeometry x="-155" y="490" width="50" height="30" as="geometry" />
        </mxCell>
        <mxCell id="im_bpf7Kk3_-UFMZWJdJ-13" value="" style="rounded=0;whiteSpace=wrap;html=1;" vertex="1" parent="1">
          <mxGeometry x="-10" y="450" width="140" height="150" as="geometry" />
        </mxCell>
        <mxCell id="im_bpf7Kk3_-UFMZWJdJ-14" value="" style="endArrow=none;html=1;rounded=0;entryX=1;entryY=0.75;entryDx=0;entryDy=0;exitX=0;exitY=0.75;exitDx=0;exitDy=0;" edge="1" parent="1">
          <mxGeometry width="50" height="50" relative="1" as="geometry">
            <mxPoint x="-10.000000000000455" y="549.5199999999998" as="sourcePoint" />
            <mxPoint x="129.99999999999955" y="549.5199999999998" as="targetPoint" />
          </mxGeometry>
        </mxCell>
        <mxCell id="im_bpf7Kk3_-UFMZWJdJ-16" value="Data" style="text;html=1;align=center;verticalAlign=middle;resizable=0;points=[];autosize=1;strokeColor=none;fillColor=none;" vertex="1" parent="1">
          <mxGeometry x="35" y="450" width="50" height="30" as="geometry" />
        </mxCell>
        <mxCell id="im_bpf7Kk3_-UFMZWJdJ-17" value="1488KB" style="text;html=1;align=center;verticalAlign=middle;resizable=0;points=[];autosize=1;strokeColor=none;fillColor=none;" vertex="1" parent="1">
          <mxGeometry x="25" y="470" width="70" height="30" as="geometry" />
        </mxCell>
        <mxCell id="im_bpf7Kk3_-UFMZWJdJ-18" value="" style="endArrow=none;html=1;rounded=0;exitX=1;exitY=0.68;exitDx=0;exitDy=0;exitPerimeter=0;entryX=0;entryY=0;entryDx=0;entryDy=0;" edge="1" parent="1" source="im_bpf7Kk3_-UFMZWJdJ-3" target="im_bpf7Kk3_-UFMZWJdJ-13">
          <mxGeometry width="50" height="50" relative="1" as="geometry">
            <mxPoint x="10" y="390" as="sourcePoint" />
            <mxPoint x="60" y="340" as="targetPoint" />
          </mxGeometry>
        </mxCell>
        <mxCell id="im_bpf7Kk3_-UFMZWJdJ-19" value="" style="endArrow=none;html=1;rounded=0;entryX=0;entryY=1;entryDx=0;entryDy=0;exitX=1;exitY=1;exitDx=0;exitDy=0;" edge="1" parent="1" source="im_bpf7Kk3_-UFMZWJdJ-3" target="im_bpf7Kk3_-UFMZWJdJ-13">
          <mxGeometry width="50" height="50" relative="1" as="geometry">
            <mxPoint x="-120" y="620" as="sourcePoint" />
            <mxPoint x="-70" y="570" as="targetPoint" />
          </mxGeometry>
        </mxCell>
        <mxCell id="im_bpf7Kk3_-UFMZWJdJ-20" value="Update Region" style="text;html=1;align=center;verticalAlign=middle;resizable=0;points=[];autosize=1;strokeColor=none;fillColor=none;" vertex="1" parent="1">
          <mxGeometry x="10" y="500" width="100" height="30" as="geometry" />
        </mxCell>
        <mxCell id="im_bpf7Kk3_-UFMZWJdJ-21" value="&lt;div&gt;256KB&lt;/div&gt;" style="text;html=1;align=center;verticalAlign=middle;resizable=0;points=[];autosize=1;strokeColor=none;fillColor=none;" vertex="1" parent="1">
          <mxGeometry x="30" y="520" width="60" height="30" as="geometry" />
        </mxCell>
        <mxCell id="im_bpf7Kk3_-UFMZWJdJ-22" value="" style="endArrow=none;html=1;rounded=0;entryX=1;entryY=0.75;entryDx=0;entryDy=0;exitX=0;exitY=0.75;exitDx=0;exitDy=0;" edge="1" parent="1">
          <mxGeometry width="50" height="50" relative="1" as="geometry">
            <mxPoint x="-10.000000000000455" y="499.9999999999998" as="sourcePoint" />
            <mxPoint x="129.99999999999955" y="499.9999999999998" as="targetPoint" />
          </mxGeometry>
        </mxCell>
        <mxCell id="im_bpf7Kk3_-UFMZWJdJ-24" value="Install Region 1" style="text;html=1;align=center;verticalAlign=middle;resizable=0;points=[];autosize=1;strokeColor=none;fillColor=none;" vertex="1" parent="1">
          <mxGeometry x="5" y="550" width="110" height="30" as="geometry" />
        </mxCell>
        <mxCell id="im_bpf7Kk3_-UFMZWJdJ-25" value="256KB" style="text;html=1;align=center;verticalAlign=middle;resizable=0;points=[];autosize=1;strokeColor=none;fillColor=none;" vertex="1" parent="1">
          <mxGeometry x="30" y="568" width="60" height="30" as="geometry" />
        </mxCell>
        <mxCell id="im_bpf7Kk3_-UFMZWJdJ-26" value="" style="rounded=0;whiteSpace=wrap;html=1;" vertex="1" parent="1">
          <mxGeometry x="-10" y="280" width="140" height="110" as="geometry" />
        </mxCell>
        <mxCell id="im_bpf7Kk3_-UFMZWJdJ-27" value="Install Region 2" style="text;html=1;align=center;verticalAlign=middle;resizable=0;points=[];autosize=1;strokeColor=none;fillColor=none;" vertex="1" parent="1">
          <mxGeometry x="5" y="280" width="110" height="30" as="geometry" />
        </mxCell>
        <mxCell id="im_bpf7Kk3_-UFMZWJdJ-28" value="256KB" style="text;html=1;align=center;verticalAlign=middle;resizable=0;points=[];autosize=1;strokeColor=none;fillColor=none;" vertex="1" parent="1">
          <mxGeometry x="30" y="300" width="60" height="30" as="geometry" />
        </mxCell>
        <mxCell id="im_bpf7Kk3_-UFMZWJdJ-29" value="" style="endArrow=none;html=1;rounded=0;exitX=1;exitY=0;exitDx=0;exitDy=0;entryX=0;entryY=0;entryDx=0;entryDy=0;" edge="1" parent="1" source="im_bpf7Kk3_-UFMZWJdJ-3" target="im_bpf7Kk3_-UFMZWJdJ-26">
          <mxGeometry width="50" height="50" relative="1" as="geometry">
            <mxPoint x="-40" y="240" as="sourcePoint" />
            <mxPoint x="10" y="190" as="targetPoint" />
          </mxGeometry>
        </mxCell>
        <mxCell id="im_bpf7Kk3_-UFMZWJdJ-30" value="" style="endArrow=none;html=1;rounded=0;entryX=0;entryY=1;entryDx=0;entryDy=0;" edge="1" parent="1" target="im_bpf7Kk3_-UFMZWJdJ-26">
          <mxGeometry width="50" height="50" relative="1" as="geometry">
            <mxPoint x="-60" y="450" as="sourcePoint" />
            <mxPoint x="-5" y="340" as="targetPoint" />
          </mxGeometry>
        </mxCell>
        <mxCell id="im_bpf7Kk3_-UFMZWJdJ-31" value="" style="endArrow=none;html=1;rounded=0;entryX=1;entryY=0.75;entryDx=0;entryDy=0;exitX=0;exitY=0.75;exitDx=0;exitDy=0;" edge="1" parent="1">
          <mxGeometry width="50" height="50" relative="1" as="geometry">
            <mxPoint x="-10.000000000000455" y="329.5999999999998" as="sourcePoint" />
            <mxPoint x="129.99999999999955" y="329.5999999999998" as="targetPoint" />
          </mxGeometry>
        </mxCell>
        <mxCell id="im_bpf7Kk3_-UFMZWJdJ-32" value="Cal &amp;amp; User Data" style="text;html=1;align=center;verticalAlign=middle;resizable=0;points=[];autosize=1;strokeColor=none;fillColor=none;" vertex="1" parent="1">
          <mxGeometry x="5" y="330" width="110" height="30" as="geometry" />
        </mxCell>
        <mxCell id="im_bpf7Kk3_-UFMZWJdJ-33" value="13744KB" style="text;html=1;align=center;verticalAlign=middle;resizable=0;points=[];autosize=1;strokeColor=none;fillColor=none;" vertex="1" parent="1">
          <mxGeometry x="25" y="350" width="70" height="30" as="geometry" />
        </mxCell>
      </root>
    </mxGraphModel>
  </diagram>
  <diagram id="oGCIDGe48r0uu7kWX7WP" name="Page-3">
    <mxGraphModel dx="2765" dy="910" grid="1" gridSize="10" guides="1" tooltips="1" connect="1" arrows="1" fold="1" page="1" pageScale="1" pageWidth="850" pageHeight="1100" math="0" shadow="0">
      <root>
        <mxCell id="0" />
        <mxCell id="1" parent="0" />
        <mxCell id="Qu22maIKbpEJhWDoB8dW-3" value="&lt;div style=&quot;color: rgb(212, 212, 212); background-color: rgb(30, 30, 30); font-family: &amp;quot;Droid Sans Mono&amp;quot;, &amp;quot;monospace&amp;quot;, monospace; font-weight: normal; font-size: 14px; line-height: 19px;&quot;&gt;&lt;div&gt;&lt;span style=&quot;color: #d4d4d4;&quot;&gt;        &lt;/span&gt;&lt;span style=&quot;color: #9cdcfe;&quot;&gt;self&lt;/span&gt;&lt;span style=&quot;color: #d4d4d4;&quot;&gt;.&lt;/span&gt;&lt;span style=&quot;color: #9cdcfe;&quot;&gt;node&lt;/span&gt;&lt;span style=&quot;color: #d4d4d4;&quot;&gt;.&lt;/span&gt;&lt;span style=&quot;color: #9cdcfe;&quot;&gt;sdo&lt;/span&gt;&lt;span style=&quot;color: #d4d4d4;&quot;&gt;.&lt;/span&gt;&lt;span style=&quot;color: #dcdcaa;&quot;&gt;download&lt;/span&gt;&lt;span style=&quot;color: #d4d4d4;&quot;&gt;(&lt;/span&gt;&lt;span style=&quot;color: #569cd6;&quot;&gt;0x&lt;/span&gt;&lt;span style=&quot;color: #b5cea8;&quot;&gt;5500&lt;/span&gt;&lt;span style=&quot;color: #d4d4d4;&quot;&gt;, &lt;/span&gt;&lt;span style=&quot;color: #b5cea8;&quot;&gt;2&lt;/span&gt;&lt;span style=&quot;color: #d4d4d4;&quot;&gt;, &lt;/span&gt;&lt;span style=&quot;color: #9cdcfe;&quot;&gt;data&lt;/span&gt;&lt;span style=&quot;color: #d4d4d4;&quot;&gt;, &lt;/span&gt;&lt;span style=&quot;color: #9cdcfe;&quot;&gt;force_segment&lt;/span&gt;&lt;span style=&quot;color: #d4d4d4;&quot;&gt;=&lt;/span&gt;&lt;span style=&quot;color: #569cd6;&quot;&gt;False&lt;/span&gt;&lt;span style=&quot;color: #d4d4d4;&quot;&gt;)&lt;/span&gt;&lt;/div&gt;&lt;div&gt;&lt;span style=&quot;color: #d4d4d4;&quot;&gt;&lt;/span&gt;&lt;/div&gt;&lt;/div&gt;" style="text;whiteSpace=wrap;html=1;" vertex="1" parent="1">
          <mxGeometry x="-30" y="560" width="560" height="40" as="geometry" />
        </mxCell>
        <mxCell id="Qu22maIKbpEJhWDoB8dW-9" value="&lt;div style=&quot;color: rgb(212, 212, 212); background-color: rgb(30, 30, 30); font-family: &amp;quot;Droid Sans Mono&amp;quot;, &amp;quot;monospace&amp;quot;, monospace; font-weight: normal; font-size: 14px; line-height: 19px;&quot;&gt;&lt;div&gt;&lt;span style=&quot;color: #d4d4d4;&quot;&gt;        &lt;/span&gt;&lt;span style=&quot;color: #9cdcfe;&quot;&gt;self&lt;/span&gt;&lt;span style=&quot;color: #d4d4d4;&quot;&gt;.&lt;/span&gt;&lt;span style=&quot;color: #9cdcfe;&quot;&gt;node&lt;/span&gt;&lt;span style=&quot;color: #d4d4d4;&quot;&gt;.&lt;/span&gt;&lt;span style=&quot;color: #9cdcfe;&quot;&gt;sdo&lt;/span&gt;&lt;span style=&quot;color: #d4d4d4;&quot;&gt;.&lt;/span&gt;&lt;span style=&quot;color: #dcdcaa;&quot;&gt;download&lt;/span&gt;&lt;span style=&quot;color: #d4d4d4;&quot;&gt;(&lt;/span&gt;&lt;span style=&quot;color: #569cd6;&quot;&gt;0x&lt;/span&gt;&lt;span style=&quot;color: #b5cea8;&quot;&gt;5500&lt;/span&gt;&lt;span style=&quot;color: #d4d4d4;&quot;&gt;, &lt;/span&gt;&lt;span style=&quot;color: #b5cea8;&quot;&gt;1&lt;/span&gt;&lt;span style=&quot;color: #d4d4d4;&quot;&gt;, &lt;/span&gt;&lt;span style=&quot;color: #9cdcfe;&quot;&gt;self&lt;/span&gt;&lt;span style=&quot;color: #d4d4d4;&quot;&gt;.&lt;/span&gt;&lt;span style=&quot;color: #9cdcfe;&quot;&gt;bytes&lt;/span&gt;&lt;span style=&quot;color: #d4d4d4;&quot;&gt;, &lt;/span&gt;&lt;span style=&quot;color: #9cdcfe;&quot;&gt;force_segment&lt;/span&gt;&lt;span style=&quot;color: #d4d4d4;&quot;&gt;=&lt;/span&gt;&lt;span style=&quot;color: #569cd6;&quot;&gt;True&lt;/span&gt;&lt;span style=&quot;color: #d4d4d4;&quot;&gt;)&lt;/span&gt;&lt;/div&gt;&lt;br&gt;&lt;/div&gt;" style="text;whiteSpace=wrap;html=1;" vertex="1" parent="1">
          <mxGeometry x="-30" y="470" width="580" height="60" as="geometry" />
        </mxCell>
        <mxCell id="Qu22maIKbpEJhWDoB8dW-10" value="&lt;div style=&quot;color: rgb(212, 212, 212); background-color: rgb(30, 30, 30); font-family: &amp;quot;Droid Sans Mono&amp;quot;, &amp;quot;monospace&amp;quot;, monospace; font-weight: normal; font-size: 14px; line-height: 19px;&quot;&gt;&lt;div&gt;&lt;span style=&quot;color: #9cdcfe;&quot;&gt;self&lt;/span&gt;&lt;span style=&quot;color: #d4d4d4;&quot;&gt;.&lt;/span&gt;&lt;span style=&quot;color: #9cdcfe;&quot;&gt;node&lt;/span&gt;&lt;span style=&quot;color: #d4d4d4;&quot;&gt;.&lt;/span&gt;&lt;span style=&quot;color: #9cdcfe;&quot;&gt;sdo&lt;/span&gt;&lt;span style=&quot;color: #d4d4d4;&quot;&gt;.&lt;/span&gt;&lt;span style=&quot;color: #dcdcaa;&quot;&gt;download&lt;/span&gt;&lt;span style=&quot;color: #d4d4d4;&quot;&gt;(&lt;/span&gt;&lt;span style=&quot;color: #569cd6;&quot;&gt;0x&lt;/span&gt;&lt;span style=&quot;color: #b5cea8;&quot;&gt;5500&lt;/span&gt;&lt;span style=&quot;color: #d4d4d4;&quot;&gt;, &lt;/span&gt;&lt;span style=&quot;color: #b5cea8;&quot;&gt;3&lt;/span&gt;&lt;span style=&quot;color: #d4d4d4;&quot;&gt;, &lt;/span&gt;&lt;span style=&quot;color: #9cdcfe;&quot;&gt;data&lt;/span&gt;&lt;span style=&quot;color: #d4d4d4;&quot;&gt;, &lt;/span&gt;&lt;span style=&quot;color: #9cdcfe;&quot;&gt;force_segment&lt;/span&gt;&lt;span style=&quot;color: #d4d4d4;&quot;&gt;=&lt;/span&gt;&lt;span style=&quot;color: #569cd6;&quot;&gt;False&lt;/span&gt;&lt;span style=&quot;color: #d4d4d4;&quot;&gt;)&lt;/span&gt;&lt;/div&gt;&lt;/div&gt;" style="text;whiteSpace=wrap;html=1;" vertex="1" parent="1">
          <mxGeometry x="-30" y="640" width="560" height="40" as="geometry" />
        </mxCell>
        <mxCell id="Qu22maIKbpEJhWDoB8dW-13" value="&lt;div style=&quot;color: rgb(212, 212, 212); background-color: rgb(30, 30, 30); font-family: &amp;quot;Droid Sans Mono&amp;quot;, &amp;quot;monospace&amp;quot;, monospace; font-weight: normal; font-size: 14px; line-height: 19px;&quot;&gt;&lt;div&gt;&lt;span style=&quot;color: #9cdcfe;&quot;&gt;self&lt;/span&gt;&lt;span style=&quot;color: #d4d4d4;&quot;&gt;.&lt;/span&gt;&lt;span style=&quot;color: #9cdcfe;&quot;&gt;node&lt;/span&gt;&lt;span style=&quot;color: #d4d4d4;&quot;&gt;.&lt;/span&gt;&lt;span style=&quot;color: #9cdcfe;&quot;&gt;sdo&lt;/span&gt;&lt;span style=&quot;color: #d4d4d4;&quot;&gt;.&lt;/span&gt;&lt;span style=&quot;color: #dcdcaa;&quot;&gt;download&lt;/span&gt;&lt;span style=&quot;color: #d4d4d4;&quot;&gt;(&lt;/span&gt;&lt;span style=&quot;color: #569cd6;&quot;&gt;0x&lt;/span&gt;&lt;span style=&quot;color: #b5cea8;&quot;&gt;5500&lt;/span&gt;&lt;span style=&quot;color: #d4d4d4;&quot;&gt;, &lt;/span&gt;4&lt;span style=&quot;color: #d4d4d4;&quot;&gt;, &lt;/span&gt;&lt;span style=&quot;color: #9cdcfe;&quot;&gt;data&lt;/span&gt;&lt;span style=&quot;color: #d4d4d4;&quot;&gt;, &lt;/span&gt;&lt;span style=&quot;color: #9cdcfe;&quot;&gt;force_segment&lt;/span&gt;&lt;span style=&quot;color: #d4d4d4;&quot;&gt;=&lt;/span&gt;&lt;span style=&quot;color: #569cd6;&quot;&gt;False&lt;/span&gt;&lt;span style=&quot;color: #d4d4d4;&quot;&gt;)&lt;/span&gt;&lt;/div&gt;&lt;/div&gt;" style="text;whiteSpace=wrap;html=1;" vertex="1" parent="1">
          <mxGeometry x="-30" y="730" width="560" height="40" as="geometry" />
        </mxCell>
      </root>
    </mxGraphModel>
  </diagram>
</mxfile>
